<svg xmlns="http://www.w3.org/2000/svg">
<defs>
<font id="Aku&#38;Kamu" horiz-adv-x="1013" >
  <font-face 
    font-family="Aku &#38; Kamu"
    font-weight="400"
    font-style="italic"
    font-stretch="normal"
    units-per-em="2048"
    panose-1="2 11 6 3 5 3 2 2 2 4"
    ascent="1638"
    descent="-410"
    x-height="1737"
    cap-height="1738"
    bbox="-64 -500.39 1693 2209"
    underline-thickness="0"
    underline-position="0"
    slope="-12"
    unicode-range="U+0020-20AC"
  />
<missing-glyph horiz-adv-x="2048" 
d="M146 495v-43l1488 298v43zM136 1035v-43l1488 298v42zM177 906l11 2l47 -185l14 -51l13 57l47 204l12 3v-327l-8 -1v306l-57 -245l-8 -32l-7 29l-56 222v-306l-8 -2v326zM149 561v-14l14 3l35 7l14 3v14v90l5 -19l3 -11l6 -26l45 9l7 29l2 11l5 22v-90v-14l14 3l35 7
l14 2v14v354v14l-14 -3l-36 -7l-10 -3l-3 -11l-37 -158l-36 143l-3 10l-11 -2l-35 -7l-14 -3v-14v-353zM543 758l-28 139l-13 60l-6 -1l-12 -66l-29 -150l-7 -37l-1 -1l33 7l38 7l32 7v1zM552 715l-32 -6l-42 -9l-32 -6l-12 -62l-8 -1l64 339l18 4l64 -314l-9 -1zM499 809
l-13 -67zM525 683l9 -46l3 -11l13 3l41 8l19 4l-3 15l-70 340l-2 11l-14 -3l-44 -9l-14 -3l-2 -12l-70 -368l-3 -16l19 3l41 9l13 3l2 11l10 50zM514 740l-30 -6l15 77zM662 679v145v80v101l22 4l22 5q26 5 46 -10q20 -16 20 -42v-71q0 -21 -12 -39q-10 -19 -29 -31l-13 -7
l5 -12l43 -102l-8 -2l-45 106l-3 8l-10 -1l-16 -4l-14 -3v-13v-111zM684 656l13 3v13v94l39 -91l3 -8l9 2l38 8l20 4l-7 17l-46 109q19 15 30 34q16 26 16 55v71q0 39 -27 60q-29 22 -66 14l-22 -4l-36 -7l-14 -3v-14v-115v-79v-159v-14l14 3zM670 826v-14l14 3l22 5
q23 4 41 25q17 21 17 44v71q0 23 -17 37q-18 13 -41 9l-22 -5l-14 -2v-14v-159zM697 977l9 2q13 1 21 -5q9 -8 9 -20v-70q0 -12 -9 -24q-9 -10 -21 -13l-9 -2v132zM914 730q-24 -5 -37 8q-15 13 -15 38v13l8 2v-13q0 -23 11 -32q12 -13 33 -8q20 4 31 23q7 14 7 34v53
q0 11 -9 22q-7 7 -11 9q-5 3 -11 7q-33 14 -47 28q-12 12 -12 22v53q0 24 15 44q13 18 37 23q19 4 33 -8q13 -12 13 -39v-13l-8 -2v13q0 19 -7 31q-11 14 -31 10q-21 -3 -33 -21q-11 -16 -11 -37v-53q0 -11 14 -22q20 -12 16 -10l14 -7q23 -9 36 -23q10 -12 10 -25v-54

<glyph glyph-name=".notdef" horiz-adv-x="2048" 
d="M146 495v-43l1488 298v43zM136 1035v-43l1488 298v42zM177 906l11 2l47 -185l14 -51l13 57l47 204l12 3v-327l-8 -1v306l-57 -245l-8 -32l-7 29l-56 222v-306l-8 -2v326zM149 561v-14l14 3l35 7l14 3v14v90l5 -19l3 -11l6 -26l45 9l7 29l2 11l5 22v-90v-14l14 3l35 7
l14 2v14v354v14l-14 -3l-36 -7l-10 -3l-3 -11l-37 -158l-36 143l-3 10l-11 -2l-35 -7l-14 -3v-14v-353zM543 758l-28 139l-13 60l-6 -1l-12 -66l-29 -150l-7 -37l-1 -1l33 7l38 7l32 7v1zM552 715l-32 -6l-42 -9l-32 -6l-12 -62l-8 -1l64 339l18 4l64 -314l-9 -1zM499 809
l-13 -67zM525 683l9 -46l3 -11l13 3l41 8l19 4l-3 15l-70 340l-2 11l-14 -3l-44 -9l-14 -3l-2 -12l-70 -368l-3 -16l19 3l41 9l13 3l2 11l10 50zM514 740l-30 -6l15 77zM662 679v145v80v101l22 4l22 5q26 5 46 -10q20 -16 20 -42v-71q0 -21 -12 -39q-10 -19 -29 -31l-13 -7
l5 -12l43 -102l-8 -2l-45 106l-3 8l-10 -1l-16 -4l-14 -3v-13v-111zM684 656l13 3v13v94l39 -91l3 -8l9 2l38 8l20 4l-7 17l-46 109q19 15 30 34q16 26 16 55v71q0 39 -27 60q-29 22 -66 14l-22 -4l-36 -7l-14 -3v-14v-115v-79v-159v-14l14 3zM670 826v-14l14 3l22 5
q23 4 41 25q17 21 17 44v71q0 23 -17 37q-18 13 -41 9l-22 -5l-14 -2v-14v-159zM697 977l9 2q13 1 21 -5q9 -8 9 -20v-70q0 -12 -9 -24q-9 -10 -21 -13l-9 -2v132zM914 730q-24 -5 -37 8q-15 13 -15 38v13l8 2v-13q0 -23 11 -32q12 -13 33 -8q20 4 31 23q7 14 7 34v53
q0 11 -9 22q-7 7 -11 9q-5 3 -11 7q-33 14 -47 28q-12 12 -12 22v53q0 24 15 44q13 18 37 23q19 4 33 -8q13 -12 13 -39v-13l-8 -2v13q0 19 -7 31q-11 14 -31 10q-21 -3 -33 -21q-11 -16 -11 -37v-53q0 -11 14 -22q20 -12 16 -10l14 -7q23 -9 36 -23q10 -12 10 -25v-54
q0 -28 -13 -45q-14 -17 -33 -21zM967 738q21 27 21 64v53q0 22 -17 41q-13 14 -42 29q-14 4 -26 14l-6 4v53q0 9 5 18q6 6 12 7q4 1 8 -2q3 -6 3 -18v-26v-14l14 3l35 7l14 3v14v26q0 36 -21 57q-20 19 -53 13q-35 -8 -57 -36q-23 -31 -23 -65v-53q0 -20 20 -38
q19 -18 51 -32q13 -8 16 -11q4 -6 4 -7v-53q0 -12 -3 -18q-3 -5 -8 -6q-8 -2 -12 3q-5 5 -5 16v26v14l-14 -3l-35 -7l-14 -3v-14v-26q0 -35 23 -56q22 -20 57 -13q33 7 53 36zM1050 1084l13 2l78 -223l24 -70l2 1v78v236l8 1v-326l-13 -3l-77 225l-24 69h-3v-79v-236l-8 -1
v326zM1023 739v-14l13 2l36 8l13 2v14v163l55 -156l3 -9l10 2l36 8l14 2v14v354v14l-14 -3l-36 -7l-13 -3v-14v-163l-54 156l-3 9l-10 -2l-37 -7l-13 -3v-14v-353zM1255 1153l123 25l14 3v-14v-35v-14l-14 -3l-74 -15v-96l38 8l14 3v-14v-36v-13l-14 -3l-38 -8v-96l74 15
l14 3v-14v-35v-14l-14 -3l-123 -25l-14 -3v14v354v14zM1364 1148l-95 -20v-326l95 20v8l-74 -16l-13 -2v14v123v14l13 3l39 8v8l-39 -8l-13 -3v13v125v13l13 3l74 15v8zM1490 1070l-6 34l-11 66l-8 -2l56 -314l15 3l56 337l-8 -1l-12 -71l-5 -36l-25 -149l-12 -70l-4 -1
l-11 65zM1511 1114l6 -34l11 -62l11 67l7 36l13 83l2 11l12 3l35 7l16 3l-3 -17l-60 -365l-2 -12l-12 -3l-38 -7l-11 -3l-2 11l-61 342l-2 15l16 4l35 7l12 2l2 -11zM81 1693h1612v-1612h-1612v1612zM357 235q3 0 5 -2q3 -3 3 -5v-25v-9v-3h2h9h5h3v3v9v3h-3h-2v22q0 3 2 5
q4 2 6 2q3 0 5 -2t2 -5v-25v-9v-3h3h9h5h3v3v9v3h-3h-2v22q0 8 -7 15q-6 6 -15 6q-7 0 -10 -2q-4 -2 -5 -3q-2 0 -3.5 1t-2.5 2q-3 2 -9 2q-4 0 -6 -1h-1h-1v1h-3h-8h-6h-2v-2v-9v-3h2h3v-7v-34v-3h3h8h3v3v34q0 1 2 5q4 2 6 2zM445 249q-8 0 -11 -2q-6 -2 -9 -6
q-5 -5 -6 -9q-3 -6 -3 -12q0 -5 3 -11q1 -5 6 -9q7 -9 20 -9q5 0 10 3q3 0 5 2v-2v-3h3h8h6h2v3v9v3h-2h-3v14v27v2h-3h-8h-3v-2v-2q-4 2 -5 2q-3 2 -10 2zM460 220q0 -6 -4 -10t-11 -4q-6 0 -10 4q-5 5 -5 10q0 6 5 11q4 4 10 4q7 0 11 -4t4 -11v0zM490 249h-5h-3v-2v-9v-3
h3h2v-15v-14h-2h-3v-3v-9v-3h3h5h9h3v3v9v17q0 7 4 11t10 4h3v3v9v2h-3q-7 0 -10 -2q-2 0 -4 -2v2v2h-3h-9zM524 194v-3h3h8h3v2h1q1 0 1 -1q2 0 3.5 -0.5t3.5 -0.5q9 0 17 6q7 4 7 13q0 6 -6 11q-6 3 -16 7h-2h-2q-1 0 -2.5 0.5t-1.5 1.5q-2 0 -2 1h-1q0 1 2 3q2 1 7 1
t7 -1q1 -1 2 -1l1 -1v-2h2h9h3v3v14v2h-3h-9h-2v-1q-2 0 -3 1h-3h-4q-10 0 -16 -5q-7 -5 -7 -13q0 -7 6 -11q6 -6 17 -7q2 0 4 -1q3 0 4 -1q0 -1 1 -1h1q0 -1 -2 -3q-2 -1 -8 -1q-4 0 -6 1q-3 1 -3 2l-1 2h-2h-7h-1h-3v-3v-14zM583 249h-5h-3v-2v-9v-3h3h2v-12v-3v-26v-3h3
h9h3v3v26v3q0 4 3 9q3 3 9 3q5 0 8 -3q4 -4 4 -9v-3v-17v-9v-3h3h8h6h2v3v9v3h-2h-3v14v3q0 12 -8 19q-7 7 -18 7q-6 0 -9 -1q-1 -1 -2 -1l-1 -1v1v2h-3h-9zM677 233q1 0 3 -2l-25 -9q1 6 4 9q4 4 11 4q5 0 7 -2zM697 222l2 1l-1 2q-2 11 -9 17q-9 7 -19 7q-8 0 -11 -2
q-6 -2 -10 -6q-2 -3 -3.5 -5t-2.5 -4q-2 -8 -2 -12q0 -3 2 -11q1 -3 2.5 -5t3.5 -4q9 -9 21 -9q6 0 14 4q6 4 11 11l2 2l-4 2l-8 3h-2l-1 -1l-5 -5q-3 -1 -7 -1q-5 0 -7 1q-1 0 -2 0.5t-1 1.5l28 10zM706 249h-2h-3v-2v-9v-3h3h4l17 -42l1 -2h2h9h2l1 2l21 53l1 3h-4h-9h-2
l-1 -1l-14 -35l-14 35l-1 1h-2h-9zM892 238q5 0 8 -3t3 -7v-25v-9h9h5v9h-5v25q0 4 3 7t7 3t7 -3t3 -7v-25v-9h9h6v9h-6v25q0 6 -5 13q-6 6 -14 6t-15 -7q-7 7 -15 7q-6 0 -10 -3v3h-9h-5v-9h5v-10v-34h9v34q0 4 3 7t7 3zM976 247q-11 0 -19 -8t-8 -19q0 -10 8 -18t19 -8
q10 0 17 7v-7h9h5v9h-5v17v27h-9v-7q-7 7 -17 7zM993 220q0 -6 -5 -12q-5 -5 -12 -5t-13 5q-5 6 -5 12t5 13q6 5 13 5t12 -5q5 -7 5 -13zM1016 247h-5v-9h5v-18v-17h-5v-9h5h9v9v17q0 6 5 13q5 5 12 5v9q-10 0 -17 -7v7h-9zM1047 194h9v3q6 -3 12 -3q8 0 15 5q6 4 6 11
q0 5 -6 10q-6 3 -14 5q-2 0 -8 2q-5 1 -5 4t3 5q6 2 9 2q4 0 8 -2t4 -3h8h1v14h-9v-3q-6 3 -12 3q-9 0 -15 -5t-6 -11t6 -10q7 -4 15 -5q2 0 8 -2q4 -2 4 -4q0 -4 -3 -5q-6 -2 -9 -2t-4.5 0.5t-3.5 0.5l-4 4h-8h-1v-14zM1099 247h-5v-9h5v-15v-3v-26h9v26v3q0 6 4 10
q5 5 11 5q7 0 11 -5q4 -4 4 -10v-3v-17v-9h9h5v9h-5v17v3q0 8 -7 17q-9 7 -17 7q-9 0 -15 -6v6h-9zM1182 238q4 0 8 -2q4 -3 6 -6l-32 -12v1v1q0 6 5 13q6 5 13 5zM1199 222l9 3q-2 9 -9 15q-7 7 -17 7q-11 0 -19 -8t-8 -19q0 -10 8 -18t19 -8q7 0 13 4q6 3 9 9l-8 3
q-6 -7 -14 -7q-10 0 -14 7zM1212 247h-2v-9h6l18 -44h9l21 53h-9l-17 -41l-16 41h-10zM1319 247q-11 0 -19 -8q-7 -7 -7 -19q0 -11 7 -18q8 -8 19 -8q6 0 11 3q5 1 9 7l-8 4q-5 -5 -12 -5t-12 5t-5 12q0 8 5 13t12 5t12 -5h9v14h-9v-3q-5 3 -12 3zM1370 247q-10 0 -18 -8
t-8 -19q0 -10 8 -18t18 -8q11 0 19 8t8 18q0 11 -8 19t-19 8zM1358 233q6 5 12 5t13 -5q5 -7 5 -13t-5 -12q-7 -5 -13 -5t-12 5q-5 6 -5 12t5 13zM1423 238q5 0 8 -3t3 -7v-25v-9h9h5v9h-5v25q0 4 3 7t7 3q5 0 8 -3t3 -7v-25v-9h8h6v9h-6v25q0 6 -5 13q-6 6 -14 6t-15 -7
q-7 7 -15 7q-6 0 -10 -3v3h-9h-5v-9h5v-10v-34h9v34q0 4 3 7t7 3zM814 246h-1h-1q-5 0 -7 -1q-3 0 -7 -2q-3 -2 -4 -4q-1 -1 -1 -4v-28q0 -3 1 -4q1 -3 4 -4q4 -2 7 -2q2 -1 7 -1h1h1h1h1v0v-1q0 -1 0.5 -2t2.5 -2q0 -1 1.5 -2t2.5 -1q8 -2 13 -2q6 0 12 4q2 1 4 5v0
q1 2 1 5v1v3v0v2v7v38q0 4 -3 9q-3 3 -9 7q-8 4 -13 5t-16 1t-16 -1t-13 -5q-7 -4 -9 -7q-3 -5 -3 -9v-63q0 -5 3 -9q2 -4 9 -7q8 -4 13 -5q10 -2 16 -2h2h3q1 0 2 0.5t3 0.5t3 1h1h2l4 1v3v1v6l-9 -2h-1h-1q-1 0 -2 -0.5t-2 -0.5h-3h-2q-7 0 -9 1q-4 0 -8 2q-4 1 -5 4
q-2 1 -2 3v68q0 3 2 4q3 3 5 4q-4 -2 8 2q1 0 3.5 0.5t5.5 0.5q2 0 4.5 -0.5t4.5 -0.5q12 -4 8 -2l3 -2q1 -2 3 -2q1 -1 1 -4v-44v-4v-1v0v-1v-1v-4v-2h-1h-1h-1v0q-1 0 -1 1t-1 2v43v4h-6h-2h-7v0h-1h-1zM816 213v-7v0h-1h-1h-1h-1h-1h-1h-1v1h-1v1v1v24v0v1v1l1 1v0l1 1h1
h1v0h1h1v-1q2 0 2 -1v-22zM1276 206q-7 0 -7 -7q0 -6 7 -6t7 6q0 7 -7 7zM665 1330l-4 -1v-4v-112v-4h4l11 2l5 1v4v113v4l-5 -1zM672 1323v-104h-3v103zM703 1328l4 1l25 -72l7 -22h1v25v75l2 1v-104l-3 -1l-25 72l-8 22h-1v-25v-75h-2v103zM694 1219v-5l4 1l12 2l4 1v4v52
l17 -50l1 -3l3 1l12 2l4 1v4v112v5l-4 -1l-11 -2l-5 -1v-4v-52l-17 50l-1 3l-3 -1l-12 -2l-4 -1v-4v-112zM790 1353q-12 -4 -19 -12q-8 -10 -8 -20v-67q0 -10 8 -18q8 -6 19 -4q10 1 19 11q8 9 8 21v39v4l-4 -1l-20 -3l-5 -1v-4v-12v-4l5 1l4 1v-24q0 -3 -2 -5q-2 -3 -5 -3
t-5 1q-2 2 -2 4v68q0 1 2 5q3 3 5 3q4 0 5 -1q2 -2 2 -5v-5v-4l5 1l11 2l4 1v4v5q0 10 -8 17q-7 6 -19 5zM790 1344q8 1 13 -3t5 -12l-2 -1v1q0 6 -5 10q-3 3 -11 3q-8 -2 -11 -7q-4 -6 -4 -12v-67q0 -8 4 -10q4 -5 11 -3q6 1 11 7q5 5 5 12v28v4l-4 -1l-5 -1v3l11 2v-35
q0 -9 -5 -14q-6 -7 -13 -7q-8 -2 -12 3q-6 3 -6 11v68q0 6 6 14q4 5 12 7zM831 1360l-4 -1v-4v-112v-4h4l38 7l5 1v5v11v4l-5 -1l-22 -4v97v4l-4 -1zM838 1353v-97v-4l5 1l22 4v-3l-29 -5v103zM913 1375q-11 -2 -18 -11q-8 -8 -8 -21v-67q0 -12 8 -17q6 -7 18 -5q11 2 19 12
q8 8 8 20v67q0 12 -8 18q-9 6 -19 4zM913 1367q8 0 13 -3q6 -5 6 -12v-67q0 -8 -6 -14q-4 -7 -13 -8q-8 -2 -12 3q-6 4 -6 12v67q0 8 6 14q4 6 12 8zM913 1364q-8 -2 -10 -7q-5 -4 -5 -11v-68q0 -7 5 -10q3 -3 10 -3q5 1 11 7q5 5 5 12v67q0 7 -5 11q-5 3 -11 2zM913 1355
q2 1 5 -1q2 -1 2 -4v-68q0 -3 -2 -5q-2 -3 -5 -3t-4 1q-2 2 -2 5v67q0 4 2 5q1 3 4 3zM959 1271v46v26v32l7 1l7 1q7 1 14 -3q6 -5 6 -14v-22q0 -6 -3 -12q-1 -2 -9 -10l-4 -2l1 -4l14 -33h-3l-14 34l-1 2h-3l-5 -1l-5 -1v-4v-35zM966 1264l4 1v4v30l12 -29l1 -3l3 1l12 2
l7 1l-3 5l-14 35q5 4 9 11q5 7 5 17v23q0 11 -9 19q-8 8 -20 5l-7 -1l-12 -2l-4 -1v-5v-36v-25v-51v-4l4 1zM961 1318v-4h5l7 2q6 0 13 7q5 8 5 14v23q0 7 -5 12q-6 4 -13 3l-7 -1l-5 -1v-5v-50zM970 1366h3q2 1 7 -1q2 -4 2 -7v-22q0 -2 -2 -8q-1 -1 -7 -4h-3v42z
M1018 1394l-5 -1v-4v-112v-5l5 1l11 2l4 1v5v112v4l-4 -1zM1025 1387v-104h-3v103zM1074 1405q-12 -3 -19 -12q-8 -8 -8 -20v-68q0 -12 8 -17q6 -7 19 -5q9 2 19 12q7 8 7 20v67q0 12 -7 18q-10 6 -19 5zM1074 1396q7 1 12 -3q6 -5 6 -12v-67q0 -8 -6 -14q-5 -7 -12 -8
q-9 -2 -13 3q-5 3 -5 12v67q0 9 5 14q4 6 13 8zM1074 1393q-7 -2 -11 -6q-5 -7 -5 -12v-68q0 -5 5 -10q4 -4 11 -2q5 0 11 6q4 5 4 12v67q0 7 -4 11q-6 3 -11 2zM1074 1384q2 1 4 -1q3 -2 3 -4v-67q0 -3 -3 -6l-2 -2l-2 -1q-4 0 -5 2q-2 1 -2 4v67q0 4 2 6t5 2zM1164 1416v5
l-5 -1l-11 -2l-4 -1v-4v-90q0 -3 -2 -5q-3 -3 -5 -3q-3 0 -5 1q-2 2 -2 5v89v5l-4 -1l-11 -2l-5 -1v-4v-90q0 -10 8 -18q6 -6 19 -4q11 1 19 11q8 11 8 21v89zM1155 1325q0 -6 -5 -14q-6 -6 -13 -7q-8 -2 -13 3q-5 3 -5 12v85h2v-85q0 -7 5 -10q4 -5 11 -3q7 1 11 7
q5 5 5 12v85h2v-85zM1199 1315q-8 -2 -12 3q-5 5 -5 12v4h3v-3q0 -7 3 -11q3 -3 11 -3q4 1 10 8q2 6 2 10v17q0 4 -3 7q-2 2 -4 3q-2 2 -3 2q-12 6 -15 10q-4 4 -4 7v16q0 7 5 14t12 7q6 1 10 -2q4 -4 4 -13v-4h-2v4q0 5 -2 9q-5 5 -10 4q-7 -2 -11 -7q-3 -5 -3 -11v-17
q0 -5 4 -7t5 -3q4 -2 5 -3q8 -4 11 -7q3 -5 3 -9v-16q0 -10 -4 -15q-3 -5 -10 -6zM1216 1317q6 9 6 20v17q0 6 -5 13q-4 4 -14 10l-8 4q-1 0 -1 1l-1 1v16q0 2 2 6q2 2 4 2h1h1q1 -2 1 -6v-8v-5l5 1l11 2l4 1v4v9q0 10 -6 18q-7 5 -17 4q-12 -2 -18 -11q-7 -9 -7 -20v-17
q0 -6 6 -12q4 -5 16 -11q4 -2 5 -3t1 -3v-16q0 -5 -1 -6q0 -2 -2 -2q-3 0 -4 1q-2 2 -2 5v8v5l-4 -1l-11 -2l-4 -1v-4v-8q0 -13 7 -18q6 -7 18 -5q8 1 17 11z" />
    <glyph glyph-name=".null" horiz-adv-x="0" 
 />
    <glyph glyph-name="nonmarkingreturn" horiz-adv-x="682" 
 />
    <glyph glyph-name="space" unicode=" " horiz-adv-x="540" 
 />
    <glyph glyph-name="exclam" unicode="!" horiz-adv-x="580" 
d="M358 485h-156h-72l-2 56l-34 1138l-2 59h75h229h75l-2 -59l-38 -1139l-2 -55h-71zM282 403q83 0 142.5 -59t59.5 -142q0 -84 -59.5 -143t-142.5 -59q-84 0 -142.5 59t-58.5 143q0 83 58.5 142t142.5 59z" />
    <glyph glyph-name="quotedbl" unicode="&#x22;" horiz-adv-x="690" 
d="M120 1738h141h55v-63v-101l-52 -301h-31h-66h-47l-55 301v101v63h55zM442 1738h141h56v-63v-101l-52 -301h-31h-67h-47l-55 301v101v63h55z" />
    <glyph glyph-name="numbersign" unicode="#" horiz-adv-x="920" 
d="M315 0h-257q11 110 31 316t24 248h-81q3 28 22 230l6 57h80l20 197h-81q2 27 22 230l5 56h81l34 347l5 57h257q-8 -79 -22.5 -231t-16.5 -173h96l38 404h257q-8 -79 -22.5 -231t-16.5 -173h81q-3 -26 -22 -229l-6 -57h-80l-19 -197h80q-2 -27 -22 -230l-5 -57h-81
l-49 -507l-6 -57h-256q10 111 30 316t24 248h-96zM493 851l19 197h-96l-19 -197h96z" />
    <glyph glyph-name="dollar" unicode="$" horiz-adv-x="830" 
d="M659 126q-57 -66 -137 -92v-138h-230v146q-73 26 -127 86q-100 106 -100 267v119v61h61h157h62v-61v-119q0 -48 23 -74q17 -22 50 -22q26 0 36 16q15 24 15 80v187q0 61 -16 83q-22 28 -71 62q-150 100 -229 190q-88 99 -88 189v236q0 160 100 268q52 57 127 86v147h230
v-140q80 -26 137 -92q90 -106 90 -269v-118v-61h-61h-158h-61v61v118q0 55 -15 80q-11 17 -36 17q-33 0 -50 -22q-23 -27 -23 -75v-189q0 -43 27 -70q54 -52 114 -87q126 -80 191 -167q72 -96 72 -197v-237q0 -164 -90 -269z" />
    <glyph glyph-name="percent" unicode="%" horiz-adv-x="1160" 
d="M873 749q8 0 18 -4q8 -4 14 -10q6 -7 9 -13q2 -4 2 -14v-508q0 -10 -2 -14q-4 -9 -9 -14q-8 -8 -14 -10q-8 -3 -18 -3t-17 3q-7 2 -14 10q-6 5 -9 14q-3 6 -3 14v508q0 8 3 14q2 6 9 13q5 6 14 10q10 4 17 4zM828 1669h27h117l-44 -108l-620 -1521l-20 -48h-52h-27h-116
l43 107l620 1522l20 48h52zM262 1527h-4l-2 -1q-3 -2 -7 -6q-5 -5 -6 -10q-2 -6 -2 -12v-455q0 -6 2 -12q1 -6 6 -9q3 -5 7 -6q1 -1 6 -1q4 0 6 1q3 1 7 6q4 3 6 9t2 12v455q0 6 -2 12q-2 5 -6 10q-4 4 -7 6q-2 0 -3.5 0.5t-2.5 0.5zM262 1710q40 0 75 -15q36 -15 64 -42
q28 -29 43 -65q15 -35 15 -75v-481q0 -40 -15 -76t-43 -64t-64 -42q-37 -16 -75 -16q-39 0 -75 16q-39 15 -65 42q-27 26 -42 64q-15 36 -15 76v481q0 40 15 75q15 38 42 65q26 26 65 42q34 15 75 15zM873 936q-42 0 -83 -16q-43 -16 -72 -44q-33 -30 -50 -69
q-19 -42 -19 -83v-537q0 -42 19 -83q18 -41 50 -69q33 -31 72 -43q39 -15 83 -15q45 0 84 15q35 11 72 43q31 28 50 69t19 83v537q0 41 -19 83q-18 39 -50 69q-33 29 -72 44q-42 16 -84 16z" />
    <glyph glyph-name="ampersand" unicode="&#x26;" horiz-adv-x="1030" 
d="M497 778h-30q-41 0 -70 -29t-29 -69l-1 -295q0 -41 29 -70q30 -29 70 -29t69 29t29 70l-4 393h-50h-13zM467 1065h30h13h50h327h127v-287h-127h-41l5 -393q0 -159 -113 -272t-272 -113q-161 0 -272 113q-113 113 -113 272l1 295q0 82 34 158q22 47 52 83q-31 37 -52 84
q-34 75 -34 158l-1 189q0 160 113 272q112 114 272 114q158 0 272 -114q113 -112 113 -272v-76h-62h-161h-63l-1 76q0 41 -29 70q-28 29 -69 29t-70 -29t-29 -70l1 -189q0 -40 29 -69t70 -29z" />
    <glyph glyph-name="quotesingle" unicode="'" horiz-adv-x="380" 
d="M65 1738h251v-164l-52 -301h-144l-55 301v164z" />
    <glyph glyph-name="parenleft" unicode="(" horiz-adv-x="600" 
d="M443 1851l67 4v-66v-206v-54l-54 -8q-34 -5 -59 -41q-30 -42 -30 -100v-1227q0 -59 30 -100q25 -37 59 -41l54 -8v-53v-205v-68l-67 5q-157 13 -262 153q-100 136 -100 317v1227q0 182 100 318q105 140 262 153z" />
    <glyph glyph-name="parenright" unicode=")" horiz-adv-x="600" 
d="M148 1851q156 -13 261 -153q101 -135 101 -318v-1227q0 -182 -101 -317q-105 -140 -261 -153l-67 -5v68v205v53l53 8q34 4 60 41q30 41 30 100v1227q0 58 -30 100q-26 36 -60 41l-53 8v54v206v66z" />
    <glyph glyph-name="asterisk" unicode="*" horiz-adv-x="830" 
d="M65 1628q39 -24 124.5 -83.5t126.5 -84.5q0 43 -5 139t-5 139h231q0 -43 -5 -139t-5 -139q42 25 127.5 84.5t124.5 83.5v-294q-23 -15 -94.5 -43.5t-94.5 -42.5q23 -14 94.5 -42t94.5 -43v-294q-39 24 -124.5 83.5t-127.5 84.5q0 -43 5 -139t5 -139h-231q0 43 5 139
t5 139q-41 -25 -126.5 -84.5t-124.5 -83.5v294q23 15 94.5 43t94.5 42q-23 14 -94.5 42.5t-94.5 43.5v294z" />
    <glyph glyph-name="plus" unicode="+" horiz-adv-x="940" 
d="M81 878h242v403h286v-403h242v-276h-242v-404h-286v404h-242v276z" />
    <glyph glyph-name="comma" unicode="," horiz-adv-x="530" 
d="M266 403q83 0 142.5 -59t59.5 -142q0 -105 -79 -232t-169 -205l-123 1q27 48 57 120t36 129q-125 51 -125 187q0 83 58.5 142t142.5 59z" />
    <glyph glyph-name="hyphen" unicode="-" horiz-adv-x="850" 
d="M60 890h730v-276h-730v276z" />
    <glyph glyph-name="period" unicode="." horiz-adv-x="530" 
d="M266 403q83 0 142.5 -59t59.5 -142q0 -84 -59.5 -143t-142.5 -59q-84 0 -142.5 59t-58.5 143q0 83 58.5 142t142.5 59z" />
    <glyph glyph-name="slash" unicode="/" horiz-adv-x="780" 
d="M506 1791h161h78l-17 -77l-403 -1745l-11 -49h-50h-161h-79l18 77l403 1745l11 49h50z" />
    <glyph glyph-name="zero" unicode="0" horiz-adv-x="910" 
d="M466 1738q158 0 272 -114q113 -112 113 -272v-967q0 -159 -113 -272t-272 -113q-161 0 -272 113q-113 113 -113 272v967q0 160 113 272q112 114 272 114zM466 1451q-41 0 -70 -29t-29 -70v-967q0 -41 29 -70q30 -29 70 -29t69 29t29 70v967q0 41 -29 70q-28 29 -69 29z
" />
    <glyph glyph-name="one" unicode="1" horiz-adv-x="560" 
d="M40 1321v223v27l20 18l137 131l18 18h25h163h63v-63v-1612v-63h-63h-161h-63v63v1244h-139v14z" />
    <glyph glyph-name="two" unicode="2" horiz-adv-x="910" 
d="M81 1352q0 104 52 193t141 141t192 52q158 0 272 -114q113 -112 113 -272v-268q0 -47 -4 -86t-15 -86.5t-34.5 -93.5t-59.5 -86q-32 -36 -77.5 -72.5t-106.5 -79.5t-86 -62q-101 -79 -101 -168v-64h197h287v-286h-770v280q0 46 5.5 88t13.5 75.5t24 66.5t29 56.5t36 50
t38.5 42.5t43 39t42.5 34.5t45 33.5t45.5 34t41.5 34t39.5 37.5t31.5 40t26.5 47.5t15 52.5t6.5 62.5v278q0 40 -29 69.5t-69 29.5q-27 0 -49.5 -13.5t-36 -36t-13.5 -49.5v-183h-286v183z" />
    <glyph glyph-name="three" unicode="3" horiz-adv-x="910" 
d="M450 726h-30h-63v62v161v63h63h30q40 0 69 29t29 70v241q0 41 -29 70t-69 29q-41 0 -70 -29t-29 -70v-80v-63h-63h-161h-62v63v80q0 160 113 272q112 114 272 114q158 0 272 -114q113 -113 113 -272v-241q0 -81 -34 -158q-20 -44 -52 -84q32 -43 52 -84q34 -78 34 -158
v-242q0 -158 -113 -272q-113 -113 -272 -113q-161 0 -272 113q-113 113 -113 272v81v62h62h161h63v-62v-81q0 -41 29 -70q30 -29 70 -29q38 0 69 29q29 29 29 70v242q0 41 -29 70t-69 29z" />
    <glyph glyph-name="four" unicode="4" horiz-adv-x="910" 
d="M510 643v338l-138 -338h138zM566 1738h168h62v-63v-1032h27h63v-63v-161v-63h-63h-27v-293v-63h-62h-162h-62v63v293h-407h-63v63v163l5 24l463 1093l16 39h42z" />
    <glyph glyph-name="five" unicode="5" horiz-adv-x="910" 
d="M521 1002q-29 30 -70 30t-70 -29q-24 -24 -33 -61.5t-15 -70.5l-268 20l1 45l28 741l2 61h60h323h228h62v-63v-161v-63h-62h-99h-129h-105l-13 -145l1 1q40 11 89 11q67 2 135.5 -26t120.5 -69q56 -49 95 -132q34 -76 34 -158v-548q0 -159 -113 -272t-272 -113t-272 113
t-113 272v4v119v62h62h152h62v-62v-119v-4q0 -42 30 -70q29 -29 79 -29q39 0 70 29q29 29 29 70v548q0 41 -29 69z" />
    <glyph glyph-name="six" unicode="6" horiz-adv-x="910" 
d="M466 1125q159 0 272 -113t113 -272v-355q0 -159 -113 -272t-272 -113q-161 0 -272 113q-113 113 -113 272v355v0v612q0 160 113 272q112 114 272 114q158 0 272 -114q113 -112 113 -272v-149h-63h-161h-63v149q0 41 -29 70q-28 29 -69 29t-70 -29t-29 -70v-135v-105
q52 13 99 13zM535 810q-28 28 -69 28t-70 -28q-29 -29 -29 -70v-344v-11q0 -41 29 -70q30 -29 70 -29t69 29t29 70v355q0 41 -29 70z" />
    <glyph glyph-name="seven" unicode="7" horiz-adv-x="860" 
d="M40 1514v161v63h63h645h63v-63v-168l-2 -12l-296 -1445l-10 -50h-51h-164h-77l15 75l282 1376h-405h-63v63z" />
    <glyph glyph-name="eight" unicode="8" horiz-adv-x="910" 
d="M535 697q-28 29 -69 29t-70 -29t-29 -70v-242q0 -41 29 -70q30 -29 70 -29t69 29t29 70v242q0 41 -29 70zM817 953q-20 -44 -52 -84q32 -43 52 -84q34 -75 34 -158v-242q0 -159 -113 -272t-272 -113q-161 0 -272 113q-113 113 -113 272v242q0 83 34 158q21 46 52 84
q-31 36 -52 84q-34 74 -34 158v241q0 160 113 272q112 114 272 114q158 0 272 -114q113 -112 113 -272v-241q0 -84 -34 -158zM466 1012q41 0 69 29q29 29 29 70v241q0 41 -29 70q-28 29 -69 29t-70 -29t-29 -70v-241q0 -41 29 -70t70 -29z" />
    <glyph glyph-name="nine" unicode="9" horiz-adv-x="910" 
d="M466 613q-161 0 -272 113q-113 113 -113 272v354q0 160 113 272q112 114 272 114q158 0 272 -114q113 -112 113 -272v-354v0v-613q0 -159 -113 -272t-272 -113q-161 0 -272 113q-113 113 -113 272v149h62h162h62v-149q0 -41 29 -70q30 -29 70 -29t69 29t29 70v135v106
q-45 -13 -98 -13zM396 928q29 -29 70 -29t69 29q29 29 29 70v343v11q0 41 -29 70q-28 29 -69 29t-70 -29t-29 -70v-354q0 -41 29 -70z" />
    <glyph glyph-name="colon" unicode=":" horiz-adv-x="530" 
d="M266 403q83 0 142.5 -59t59.5 -142q0 -84 -59.5 -143t-142.5 -59q-84 0 -142.5 59t-58.5 143q0 83 58.5 142t142.5 59zM266 1290q83 0 142.5 -59.5t59.5 -141.5q0 -84 -59.5 -143t-142.5 -59q-84 0 -142.5 59t-58.5 143q0 82 58.5 141.5t142.5 59.5z" />
    <glyph glyph-name="semicolon" unicode=";" horiz-adv-x="530" 
d="M266 1290q83 0 142.5 -59.5t59.5 -141.5q0 -84 -59.5 -143t-142.5 -59q-84 0 -142.5 59t-58.5 143q0 82 58.5 141.5t142.5 59.5zM266 403q83 0 142.5 -59t59.5 -142q0 -105 -79 -232t-169 -205l-123 1q27 48 57 120t36 129q-125 51 -125 187q0 83 58.5 142t142.5 59z" />
    <glyph glyph-name="less" unicode="&#x3c;" horiz-adv-x="1050" 
d="M728 521l81 -33l181 -76l36 -15v-39v-197v-87l-81 34l-806 336l-82 35v252l82 34l806 337l81 34v-88v-197v-39l-36 -15l-181 -75l-81 -34l-199 -83z" />
    <glyph glyph-name="equal" unicode="=" horiz-adv-x="940" 
d="M143 672h645h63v-63v-161v-63h-63h-645h-62v63v161v63h62zM143 1057h645h63v-63v-161v-63h-63h-645h-62v63v161v63h62z" />
    <glyph glyph-name="greater" unicode="&#x3e;" horiz-adv-x="1050" 
d="M355 688l-81 34l-182 75l-35 15v39v197v88l80 -34l806 -337l83 -34v-252l-83 -35l-806 -336l-80 -34v87v197v39l35 15l182 76l81 33l199 84z" />
    <glyph glyph-name="question" unicode="?" horiz-adv-x="920" 
d="M463 1738q158 0 272 -114q113 -112 113 -272v-398q0 -124 -99 -229q-76 -82 -184 -124l7 -147h-67h-153h-57l-19 394l47 3l80 4h3q57 0 115 41q41 30 41 58v398q0 41 -30 70q-28 29 -69 29t-70 -29t-29 -70v-290v-62h-62h-162h-59v62v290q0 163 110 272q114 114 272 114z
M435 383q82 0 141.5 -59.5t59.5 -141.5q0 -84 -59.5 -142.5t-141.5 -58.5q-84 0 -143 58.5t-59 142.5q0 82 59 141.5t143 59.5z" />
    <glyph glyph-name="at" unicode="@" horiz-adv-x="1110" 
d="M585 1170q10 -2 14 -3q3 -1 6.5 -2t6.5 -1v14h78h26h78v-78v-835q1 -11 2 -20.5t3 -16.5q1 -11 6 -20q2 -7 7 -11q6 -2 13 -2l5 1q9 4 11 7q5 18 7 107v12v13q0 6 0.5 13.5t0.5 15.5v16h-1v78v859q0 39 -19 72q-20 36 -62 68q-39 28 -92 45q-53 16 -111 16
q-59 0 -111 -16q-54 -17 -92 -45q-43 -32 -62 -68q-19 -35 -19 -72v-1322q0 -37 19 -72q21 -38 62 -67q42 -30 92 -45q52 -16 111 -16q33 0 57 4q28 5 55 12q3 2 10 3q5 3 8 3l2 1l106 39v-112v-32v-54l-51 -19q-16 -7 -35 -12q-8 -2 -17 -4.5t-18 -5.5q-31 -6 -58 -9
q-30 -3 -59 -3q-97 0 -183 32q-91 34 -158 94t-105 140q-37 79 -37 165v1237q0 86 37 167q37 78 105 139q70 62 158 94q89 33 183 33q93 0 183 -33q87 -32 158 -94q67 -61 105 -139q37 -81 37 -167v-736v-138v-36v-3q0 -64 -1 -88q-4 -48 -12 -84q-3 -13 -2.5 -9t0.5 1
q-7 -27 -15.5 -53.5t-28.5 -47.5q-54 -62 -141 -69q-81 -7 -149 39l-5 3q-31 23 -52 59q-23 36 -28 70l-1 12v13q-3 0 -6 -0.5t-5 -0.5q-10 -2 -18 -2q-7 -1 -19 -1q-46 0 -86 15q-40 13 -75 45q-32 28 -49 65q-19 39 -19 81v557q0 40 19 80q18 38 49 66q33 28 75 45
q45 15 86 15q5 0 21 -2zM612 526v433q-9 21 -21 27q-8 3 -14 5q-8 2 -13 2v0q-14 0 -24 -5q-8 -3 -13 -10q-6 -8 -9 -18q-4 -18 -4 -31v0l1 -480q0 -18 4 -30q3 -13 8 -17q3 -6 12 -11q12 -4 25 -4q10 0 14 1q10 2 15 4q3 1 6.5 2.5t6.5 3.5q4 2 6 4v124zM612 959z" />
    <glyph glyph-name="A" unicode="A" 
d="M604 543l-98 828l-97 -828h195zM646 269h-279q-2 -11 -22.5 -113t-30.5 -156h-294l299 1738h375l299 -1740h-294q-11 60 -53 271z" />
    <glyph glyph-name="B" unicode="B" horiz-adv-x="900" 
d="M712 879q138 -159 138 -292v-162q0 -177 -125 -300q-125 -125 -300 -125h-344v1738h324q175 0 300 -125q125 -124 125 -301v-161q0 -142 -118 -272zM564 587q0 57 -41 98t-98 41h-58v-440h58q57 0 98 41t41 98v162zM554 1312q0 57 -41 98t-98 41h-48v-439h48q57 0 98 41
t41 98v161z" />
    <glyph glyph-name="C" unicode="C" horiz-adv-x="880" 
d="M450 1738q158 0 272 -114q113 -112 113 -272v-40v-63h-63h-161h-63v63v40q0 41 -29 70q-28 29 -69 29t-70 -29t-29 -70v-967q0 -41 29 -70q30 -29 70 -29t69 29t29 70v40v63h63h161h63v-63v-40q0 -159 -113 -272t-272 -113q-161 0 -272 113q-113 113 -113 272v967
q0 160 113 272q112 114 272 114z" />
    <glyph glyph-name="D" unicode="D" horiz-adv-x="921" 
d="M486 1738q158 0 272 -114q113 -112 113 -272v-967q0 -159 -113 -272t-272 -113h-343h-62v63v322v967v323v63h62h343zM486 1451h-119v-99v-967v-99h119q40 0 69 29t29 70v967q0 41 -29 70q-28 29 -69 29z" />
    <glyph glyph-name="E" unicode="E" horiz-adv-x="825" 
d="M143 1738h560h63v-63v-161v-63h-63h-336v-439h175h62v-63v-161v-62h-62h-175v-440h336h63v-62v-161v-63h-63h-560h-62v63v1612v63h62z" />
    <glyph glyph-name="F" unicode="F" horiz-adv-x="817" 
d="M143 1738h581h63v-63v-161v-63h-63h-357v-439h196h63v-63v-161v-62h-63h-196v-663v-63h-62h-162h-62v63v1612v63h62z" />
    <glyph glyph-name="G" unicode="G" horiz-adv-x="900" 
d="M65 1352q0 104 52 193t141 141t192 52q158 0 272 -114q113 -113 113 -272v-109h-277v109q0 39 -33.5 69t-74.5 30q-27 0 -49.5 -13.5t-36 -36t-13.5 -49.5v-967q0 -41 29.5 -70t69.5 -29q41 0 79.5 30t38.5 69v290h-143v266h410v-556q0 -103 -52 -192t-141 -141t-192 -52
q-161 0 -272 113q-113 113 -113 272v967z" />
    <glyph glyph-name="H" unicode="H" horiz-adv-x="940" 
d="M143 1738h162h62v-63v-663h206v663v63h63h161h63v-63v-1612v-63h-63h-161h-63v63v663h-206v-663v-63h-62h-162h-62v63v1612v63h62z" />
    <glyph glyph-name="I" unicode="I" horiz-adv-x="466" 
d="M152 1738h162h62v-63v-1612v-63h-62h-162h-62v63v1612v63h62z" />
    <glyph glyph-name="J" unicode="J" horiz-adv-x="838" 
d="M773 1675v-323v-967q0 -162 -109 -272q-109 -113 -266 -113q-155 0 -262 112q-106 112 -106 273v204v63h63h161h63v-63v-204q0 -47 25 -75q22 -24 56 -24q37 0 62 26q26 27 26 73v967v323v63h63h161h63v-63z" />
    <glyph glyph-name="K" unicode="K" horiz-adv-x="908" 
d="M81 1738h286v-610l196 574l16 36h303q-57 -123 -104 -245t-102.5 -279.5t-102.5 -276.5q37 -112 102 -314t111.5 -339t101.5 -284h-306q-22 69 -94 318t-117 402q0 -83 -2 -360t-2 -360h-286v1738z" />
    <glyph glyph-name="L" unicode="L" horiz-adv-x="783" 
d="M143 1738h162h62v-63v-1389h323h63v-62v-161v-63h-63h-547h-62v63v1612v63h62z" />
    <glyph glyph-name="M" unicode="M" horiz-adv-x="1461" 
d="M80 0v1738h467l184 -1168l183 1168h467v-1738h-296v1244l-215 -1244h-269l-225 1244v-1244v0h1v0v0v0h1v0v0v0h-1v0v0v0v0h-1v0v0h-1v0h-1v0h-1v0h-1v0h-1h-1v0h-1h-1h-1v0h-1h-1h-1h-1h-1h-1h-1h-1h-1h-1h-1h-1h-1h-1h-1h-1h-1h-1h-1h-1h-1h-1h-1h-1h-1h-1h-1h-1h-1h-1
h-1h-1h-1h-1h-1h-1h-1h-1h-1h-1h-1h-1h-1h-1h-1h-1h-1h-1h-1h-1h-1h-1h-1h-1h-1h-1h-1h-1h-1h-1h-1h-1h-1h-1h-1h-1h-1h-1h-1h-1h-1h-1h-1h-1h-1h-1h-1h-1h-1h-1h-1h-1h-1h-1h-1h-1h-1h-1h-1h-1h-1h-1h-1h-1h-1h-1h-1h-1h-1h-1h-1h-1h-1h-1h-1h-2h-1h-1h-1h-1h-1h-1h-1h-1
h-1h-1h-1h-2h-1h-1h-1h-1h-1h-1h-1h-1h-1h-2h-1h-1h-1h-1h-1h-1h-1h-2h-1h-1h-1h-1h-1h-1h-1h-2h-1h-1h-1h-1h-1h-1h-2h-1h-1h-1h-1h-1h-1h-2h-1h-1h-1h-1h-1h-2h-1h-1h-1h-1h-1h-2h-1h-1h-1h-1h-1h-2h-1h-1h-1h-1h-1h-2h-1h-1h-1h-1h-1h-2h-1h-1h-1h-1h-1h-2h-1h-1h-1h-1
h-1h-2h-1h-1h-1h-1h-1h-2h-1h-1h-1h-1h-1h-2h-1h-1h-1h-1h-1h-1h-2h-1h-1h-1h-1h-1h-2h-1h-1h-1h-1h-1h-1h-2h-1h-1h-1h-1h-1h-1h-1h-1h-2h-1h-1h-1h-1h-1h-1h-1h-1h-1h-1h-2h-1h-1h-1h-1h-1h-9z" />
    <glyph glyph-name="N" unicode="N" horiz-adv-x="1101" 
d="M80 0v1738h384q86 -391 160.5 -689.5t119.5 -495.5q0 134 -5 592.5t-5 592.5h287v-1738h-394q-31 131 -79.5 332.5t-60.5 252.5t-37.5 163t-41.5 190t-42 207v-1145h-286z" />
    <glyph glyph-name="O" unicode="O" horiz-adv-x="900" 
d="M450 1738q158 0 272 -114q113 -113 113 -272v-967q0 -158 -113 -272q-113 -113 -272 -113q-161 0 -272 113q-113 113 -113 272v967q0 160 113 272q112 114 272 114zM450 1451q-41 0 -70 -29t-29 -70v-967q0 -41 29 -70q30 -29 70 -29q38 0 69 29q29 29 29 70v967
q0 41 -29 70t-69 29z" />
    <glyph glyph-name="P" unicode="P" horiz-adv-x="890" 
d="M305 0h-162h-62v63v725v363v524v63h62h162h100q176 0 301 -125t125 -301v-322q0 -176 -125 -301t-301 -125h-38v-501v-63h-62zM367 1451v-600h38q57 0 98 41q41 39 41 98v322q0 58 -41 98q-41 41 -98 41h-38z" />
    <glyph glyph-name="Q" unicode="Q" horiz-adv-x="901" 
d="M450 1738q158 0 272 -114q113 -113 113 -272v-967q0 -158 -113 -272q-56 -56 -127 -84q10 -11 21 -18q44 -33 104 -12l61 20l55 -199l-91 -32q-91 -33 -168 -1q-77 33 -84.5 66.5t-75.5 59.5q-69 27 -134 -2l-65 -29l-56 192l9 4q9 5 30 14q-16 14 -23 21
q-113 113 -113 272v967q0 160 113 272q112 114 272 114zM450 1451q-41 0 -70 -29t-29 -70v-967q0 -41 29 -70q30 -29 70 -29q38 0 69 29q29 29 29 70v967q0 41 -29 70t-69 29z" />
    <glyph glyph-name="R" unicode="R" horiz-adv-x="917" 
d="M305 0h-162h-62v63v788v362v462v63h62h162h110q176 0 301 -125t125 -301v-260q0 -151 -118 -282q118 -132 118 -282v-328q-4 -105 26 -160h-286q-18 30 -22 74t-5 86v328q0 58 -41 98q-41 41 -98 41h-48v-564v-63h-62zM367 1451v-538h58q57 0 98 41t41 98v260
q0 58 -41 98q-41 41 -98 41h-58z" />
    <glyph glyph-name="S" unicode="S" horiz-adv-x="853" 
d="M803 385q0 -107 -48 -195t-132.5 -139t-187.5 -51t-188.5 51.5t-134 140t-48.5 193.5v184h276v-184q0 -41 28 -70t67 -29q35 0 58.5 28.5t23.5 70.5v91q0 33 -14.5 67t-29 53t-42 49.5t-33.5 38.5q-39 48 -134.5 144t-119.5 130q-39 55 -63.5 132.5t-26.5 130.5l-4 131
q0 105 51 194t139 140.5t191 51.5q102 0 185.5 -51.5t130 -140t46.5 -194.5v-183h-276v183q0 42 -23.5 70.5t-58.5 28.5q-40 0 -67.5 -29t-27.5 -70v-73q1 -25 15 -69.5t33 -71.5q20 -29 48.5 -58t58.5 -55t39 -36q25 -26 70.5 -72t59 -60.5t33 -39.5t32.5 -48
q33 -59 53 -128.5t20 -122.5z" />
    <glyph glyph-name="T" unicode="T" horiz-adv-x="830" 
d="M272 1451h-179h-63v63v161v63h63h242h161h242h62v-63v-161v-63h-62h-179v-1388v-63h-63h-161h-63v63v1388z" />
    <glyph glyph-name="U" unicode="U" horiz-adv-x="930" 
d="M850 1675v-1290q0 -159 -113 -272t-272 -113q-161 0 -272 113q-113 113 -113 272v1290v63h62h162h62v-63v-1290q0 -41 29 -70q30 -29 70 -29t69 29t29 70v1290v63h63h161h63v-63z" />
    <glyph glyph-name="V" unicode="V" horiz-adv-x="924" 
d="M317 1706l140 -1100l140 1080l9 52h298l-287 -1738h-320l-277 1738h288z" />
    <glyph glyph-name="W" unicode="W" horiz-adv-x="1421" 
d="M317 1686l140 -970l149 1022h209l149 -1022l140 970l9 52h288q-56 -325 -158.5 -926t-129.5 -760l-9 -52h-280q-25 174 -64 501.5t-50 411.5l-104 -861l-9 -52h-280q-55 321 -156 913t-128 751l-13 74h288z" />
    <glyph glyph-name="X" unicode="X" horiz-adv-x="948" 
d="M105 1737h168h46l14 -44l100 -330l41 -137l42 137l100 330l13 44h47h168h84l-24 -80l-239 -788l239 -788l24 -81h-84h-168h-47l-13 44l-100 330l-42 138l-41 -138l-100 -330l-14 -44h-46h-168h-85l25 81l238 788l-238 788l-25 80h85z" />
    <glyph glyph-name="Y" unicode="Y" horiz-adv-x="905" 
d="M20 1737h299q51 -309 134 -641q83 394 133 641h299l-289 -1039v-698h-287v688q-82 273 -175 626t-114 423z" />
    <glyph glyph-name="Z" unicode="Z" horiz-adv-x="767" 
d="M108 1738h551h63v-63v-162l-3 -17l-356 -1210h296h63v-62v-161v-63h-63h-551h-63v63v161l3 18l356 1209h-296h-63v63v161v63h63z" />
    <glyph glyph-name="bracketleft" unicode="[" horiz-adv-x="600" 
d="M143 -322h-62v63v2025v62h62h323h62v-62v-203v-63h-62h-99v-1495h99h62v-61v-203v-63h-62h-323z" />
    <glyph glyph-name="backslash" unicode="\" horiz-adv-x="710" 
d="M600 -104h-138h-44l-9 43l-371 1745l-14 66h67h138h43l9 -43l371 -1746l14 -65h-66z" />
    <glyph glyph-name="bracketright" unicode="]" horiz-adv-x="600" 
d="M466 -322h-323h-62v63v203v61h62h99v1495h-99h-62v63v203v62h62h323h62v-62v-2025v-63h-62z" />
    <glyph glyph-name="asciicircum" unicode="^" horiz-adv-x="940" 
d="M538 1066l-68 199l-67 -199l-27 -80l-62 -182l-12 -36h-31h-160h-71l28 81l272 806l28 83h204l28 -83l273 -806l27 -81h-71h-159h-32l-12 36l-61 182z" />
    <glyph glyph-name="grave" unicode="`" horiz-adv-x="510" 
d="M384 1264l-124 -2h-43l-16 39l-142 351l-35 86h93h72h106h48l12 -48l89 -348l19 -77z" />
    <glyph glyph-name="a" unicode="a" 
d="M604 543l-98 828l-97 -828h195zM646 269h-279q-2 -11 -22.5 -113t-30.5 -156h-294l299 1738h375l299 -1740h-294q-11 60 -53 271z" />
    <glyph glyph-name="b" unicode="b" horiz-adv-x="900" 
d="M712 879q138 -159 138 -292v-162q0 -177 -125 -300q-125 -125 -300 -125h-344v1738h324q175 0 300 -125q125 -124 125 -301v-161q0 -142 -118 -272zM564 587q0 57 -41 98t-98 41h-58v-440h58q57 0 98 41t41 98v162zM554 1312q0 57 -41 98t-98 41h-48v-439h48q57 0 98 41
t41 98v161z" />
    <glyph glyph-name="c" unicode="c" horiz-adv-x="880" 
d="M450 1738q158 0 272 -114q113 -112 113 -272v-40v-63h-63h-161h-63v63v40q0 41 -29 70q-28 29 -69 29t-70 -29t-29 -70v-967q0 -41 29 -70q30 -29 70 -29t69 29t29 70v40v63h63h161h63v-63v-40q0 -159 -113 -272t-272 -113q-161 0 -272 113q-113 113 -113 272v967
q0 160 113 272q112 114 272 114z" />
    <glyph glyph-name="d" unicode="d" horiz-adv-x="921" 
d="M486 1738q158 0 272 -114q113 -112 113 -272v-967q0 -159 -113 -272t-272 -113h-343h-62v63v322v967v323v63h62h343zM486 1451h-119v-99v-967v-99h119q40 0 69 29t29 70v967q0 41 -29 70q-28 29 -69 29z" />
    <glyph glyph-name="e" unicode="e" horiz-adv-x="825" 
d="M143 1738h560h63v-63v-161v-63h-63h-336v-439h175h62v-63v-161v-62h-62h-175v-440h336h63v-62v-161v-63h-63h-560h-62v63v1612v63h62z" />
    <glyph glyph-name="f" unicode="f" horiz-adv-x="817" 
d="M143 1738h581h63v-63v-161v-63h-63h-357v-439h196h63v-63v-161v-62h-63h-196v-663v-63h-62h-162h-62v63v1612v63h62z" />
    <glyph glyph-name="g" unicode="g" horiz-adv-x="900" 
d="M65 1352q0 104 52 193t141 141t192 52q158 0 272 -114q113 -113 113 -272v-109h-277v109q0 39 -33.5 69t-74.5 30q-27 0 -49.5 -13.5t-36 -36t-13.5 -49.5v-967q0 -41 29.5 -70t69.5 -29q41 0 79.5 30t38.5 69v290h-143v266h410v-556q0 -103 -52 -192t-141 -141t-192 -52
q-161 0 -272 113q-113 113 -113 272v967z" />
    <glyph glyph-name="h" unicode="h" horiz-adv-x="940" 
d="M143 1738h162h62v-63v-663h206v663v63h63h161h63v-63v-1612v-63h-63h-161h-63v63v663h-206v-663v-63h-62h-162h-62v63v1612v63h62z" />
    <glyph glyph-name="i" unicode="i" horiz-adv-x="466" 
d="M152 1738h162h62v-63v-1612v-63h-62h-162h-62v63v1612v63h62z" />
    <glyph glyph-name="j" unicode="j" horiz-adv-x="838" 
d="M773 1675v-323v-967q0 -162 -109 -272q-109 -113 -266 -113q-155 0 -262 112q-106 112 -106 273v204v63h63h161h63v-63v-204q0 -47 25 -75q22 -24 56 -24q37 0 62 26q26 27 26 73v967v323v63h63h161h63v-63z" />
    <glyph glyph-name="k" unicode="k" horiz-adv-x="908" 
d="M81 1738h286v-610l196 574l16 36h303q-57 -123 -104 -245t-102.5 -279.5t-102.5 -276.5q37 -112 102 -314t111.5 -339t101.5 -284h-306q-22 69 -94 318t-117 402q0 -83 -2 -360t-2 -360h-286v1738z" />
    <glyph glyph-name="l" unicode="l" horiz-adv-x="783" 
d="M143 1738h162h62v-63v-1389h323h63v-62v-161v-63h-63h-547h-62v63v1612v63h62z" />
    <glyph glyph-name="m" unicode="m" horiz-adv-x="1461" 
d="M80 0v1738h467l184 -1168l183 1168h467v-1738h-296v1244l-215 -1244h-269l-225 1244v-1244v0h1v0v0v0h1v0v0v0h-1v0v0v0v0h-1v0v0h-1v0h-1v0h-1v0h-1v0h-1h-1v0h-1h-1h-1v0h-1h-1h-1h-1h-1h-1h-1h-1h-1h-1h-1h-1h-1h-1h-1h-1h-1h-1h-1h-1h-1h-1h-1h-1h-1h-1h-1h-1h-1h-1
h-1h-1h-1h-1h-1h-1h-1h-1h-1h-1h-1h-1h-1h-1h-1h-1h-1h-1h-1h-1h-1h-1h-1h-1h-1h-1h-1h-1h-1h-1h-1h-1h-1h-1h-1h-1h-1h-1h-1h-1h-1h-1h-1h-1h-1h-1h-1h-1h-1h-1h-1h-1h-1h-1h-1h-1h-1h-1h-1h-1h-1h-1h-1h-1h-1h-1h-1h-1h-1h-1h-1h-1h-1h-1h-1h-2h-1h-1h-1h-1h-1h-1h-1h-1
h-1h-1h-1h-2h-1h-1h-1h-1h-1h-1h-1h-1h-1h-2h-1h-1h-1h-1h-1h-1h-1h-2h-1h-1h-1h-1h-1h-1h-1h-2h-1h-1h-1h-1h-1h-1h-2h-1h-1h-1h-1h-1h-1h-2h-1h-1h-1h-1h-1h-2h-1h-1h-1h-1h-1h-2h-1h-1h-1h-1h-1h-2h-1h-1h-1h-1h-1h-2h-1h-1h-1h-1h-1h-2h-1h-1h-1h-1h-1h-2h-1h-1h-1h-1
h-1h-2h-1h-1h-1h-1h-1h-2h-1h-1h-1h-1h-1h-2h-1h-1h-1h-1h-1h-1h-2h-1h-1h-1h-1h-1h-2h-1h-1h-1h-1h-1h-1h-2h-1h-1h-1h-1h-1h-1h-1h-1h-2h-1h-1h-1h-1h-1h-1h-1h-1h-1h-1h-2h-1h-1h-1h-1h-1h-9z" />
    <glyph glyph-name="n" unicode="n" horiz-adv-x="1101" 
d="M80 0v1738h384q86 -391 160.5 -689.5t119.5 -495.5q0 134 -5 592.5t-5 592.5h287v-1738h-394q-31 131 -79.5 332.5t-60.5 252.5t-37.5 163t-41.5 190t-42 207v-1145h-286z" />
    <glyph glyph-name="o" unicode="o" horiz-adv-x="900" 
d="M450 1738q158 0 272 -114q113 -113 113 -272v-967q0 -158 -113 -272q-113 -113 -272 -113q-161 0 -272 113q-113 113 -113 272v967q0 160 113 272q112 114 272 114zM450 1451q-41 0 -70 -29t-29 -70v-967q0 -41 29 -70q30 -29 70 -29q38 0 69 29q29 29 29 70v967
q0 41 -29 70t-69 29z" />
    <glyph glyph-name="p" unicode="p" horiz-adv-x="890" 
d="M305 0h-162h-62v63v725v363v524v63h62h162h100q176 0 301 -125t125 -301v-322q0 -176 -125 -301t-301 -125h-38v-501v-63h-62zM367 1451v-600h38q57 0 98 41q41 39 41 98v322q0 58 -41 98q-41 41 -98 41h-38z" />
    <glyph glyph-name="q" unicode="q" horiz-adv-x="901" 
d="M450 1738q158 0 272 -114q113 -113 113 -272v-967q0 -158 -113 -272q-56 -56 -127 -84q10 -11 21 -18q44 -33 104 -12l61 20l55 -199l-91 -32q-91 -33 -168 -1q-77 33 -84.5 66.5t-75.5 59.5q-69 27 -134 -2l-65 -29l-56 192l9 4q9 5 30 14q-16 14 -23 21
q-113 113 -113 272v967q0 160 113 272q112 114 272 114zM450 1451q-41 0 -70 -29t-29 -70v-967q0 -41 29 -70q30 -29 70 -29q38 0 69 29q29 29 29 70v967q0 41 -29 70t-69 29z" />
    <glyph glyph-name="r" unicode="r" horiz-adv-x="917" 
d="M305 0h-162h-62v63v788v362v462v63h62h162h110q176 0 301 -125t125 -301v-260q0 -151 -118 -282q118 -132 118 -282v-328q-4 -105 26 -160h-286q-18 30 -22 74t-5 86v328q0 58 -41 98q-41 41 -98 41h-48v-564v-63h-62zM367 1451v-538h58q57 0 98 41t41 98v260
q0 58 -41 98q-41 41 -98 41h-58z" />
    <glyph glyph-name="s" unicode="s" horiz-adv-x="853" 
d="M803 385q0 -107 -48 -195t-132.5 -139t-187.5 -51t-188.5 51.5t-134 140t-48.5 193.5v184h276v-184q0 -41 28 -70t67 -29q35 0 58.5 28.5t23.5 70.5v91q0 33 -14.5 67t-29 53t-42 49.5t-33.5 38.5q-39 48 -134.5 144t-119.5 130q-39 55 -63.5 132.5t-26.5 130.5l-4 131
q0 105 51 194t139 140.5t191 51.5q102 0 185.5 -51.5t130 -140t46.5 -194.5v-183h-276v183q0 42 -23.5 70.5t-58.5 28.5q-40 0 -67.5 -29t-27.5 -70v-73q1 -25 15 -69.5t33 -71.5q20 -29 48.5 -58t58.5 -55t39 -36q25 -26 70.5 -72t59 -60.5t33 -39.5t32.5 -48
q33 -59 53 -128.5t20 -122.5z" />
    <glyph glyph-name="t" unicode="t" horiz-adv-x="830" 
d="M272 1451h-179h-63v63v161v63h63h242h161h242h62v-63v-161v-63h-62h-179v-1388v-63h-63h-161h-63v63v1388z" />
    <glyph glyph-name="u" unicode="u" horiz-adv-x="930" 
d="M850 1675v-1290q0 -159 -113 -272t-272 -113q-161 0 -272 113q-113 113 -113 272v1290v63h62h162h62v-63v-1290q0 -41 29 -70q30 -29 70 -29t69 29t29 70v1290v63h63h161h63v-63z" />
    <glyph glyph-name="v" unicode="v" horiz-adv-x="924" 
d="M317 1706l140 -1100l140 1080l9 52h298l-287 -1738h-320l-277 1738h288z" />
    <glyph glyph-name="w" unicode="w" horiz-adv-x="1421" 
d="M317 1686l140 -970l149 1022h209l149 -1022l140 970l9 52h288q-56 -325 -158.5 -926t-129.5 -760l-9 -52h-280q-25 174 -64 501.5t-50 411.5l-104 -861l-9 -52h-280q-55 321 -156 913t-128 751l-13 74h288z" />
    <glyph glyph-name="x" unicode="x" horiz-adv-x="948" 
d="M105 1737h168h46l14 -44l100 -330l41 -137l42 137l100 330l13 44h47h168h84l-24 -80l-239 -788l239 -788l24 -81h-84h-168h-47l-13 44l-100 330l-42 138l-41 -138l-100 -330l-14 -44h-46h-168h-85l25 81l238 788l-238 788l-25 80h85z" />
    <glyph glyph-name="y" unicode="y" horiz-adv-x="905" 
d="M20 1737h299q51 -309 134 -641q83 394 133 641h299l-289 -1039v-698h-287v688q-82 273 -175 626t-114 423z" />
    <glyph glyph-name="z" unicode="z" horiz-adv-x="767" 
d="M108 1738h551h63v-63v-162l-3 -17l-356 -1210h296h63v-62v-161v-63h-63h-551h-63v63v161l3 18l356 1209h-296h-63v63v161v63h63z" />
    <glyph glyph-name="braceleft" unicode="{" horiz-adv-x="824" 
d="M412 1157q113 0 194.5 -80.5t81.5 -194.5q0 -115 -81.5 -195.5t-194.5 -80.5q-115 0 -195 80.5t-80 195.5q0 114 80 194.5t195 80.5z" />
    <glyph glyph-name="bar" unicode="|" horiz-adv-x="620" 
d="M247 2132h121h45v-50v-2259v-50h-45h-121h-45v50v2259v50h45z" />
    <glyph glyph-name="braceright" unicode="}" horiz-adv-x="824" 
d="M412 1157q113 0 194.5 -80.5t81.5 -194.5q0 -115 -81.5 -195.5t-194.5 -80.5q-115 0 -195 80.5t-80 195.5q0 114 80 194.5t195 80.5z" />
    <glyph glyph-name="asciitilde" unicode="~" horiz-adv-x="1777" 
d="M146 495v-43l1488 298v43zM136 1035v-43l1488 298v42zM177 906l11 2l47 -185l14 -51l13 57l47 204l12 3v-327l-8 -1v306l-57 -245l-8 -32l-7 29l-56 222v-306l-8 -2v326zM149 561v-14l14 3l35 7l14 3v14v90l5 -19l3 -11l6 -26l45 9l7 29l2 11l5 22v-90v-14l14 3l35 7
l14 2v14v354v14l-14 -3l-36 -7l-10 -3l-3 -11l-37 -158l-36 143l-3 10l-11 -2l-35 -7l-14 -3v-14v-353zM543 758l-28 139l-13 60l-6 -1l-12 -66l-29 -150l-7 -37l-1 -1l33 7l38 7l32 7v1zM552 715l-32 -6l-42 -9l-32 -6l-12 -62l-8 -1l64 339l18 4l64 -314l-9 -1zM499 809
l-13 -67zM525 683l9 -46l3 -11l13 3l41 8l19 4l-3 15l-70 340l-2 11l-14 -3l-44 -9l-14 -3l-2 -12l-70 -368l-3 -16l19 3l41 9l13 3l2 11l10 50zM514 740l-30 -6l15 77zM662 679v145v80v101l22 4l22 5q26 5 46 -10q20 -16 20 -42v-71q0 -21 -12 -39q-10 -19 -29 -31l-13 -7
l5 -12l43 -102l-8 -2l-45 106l-3 8l-10 -1l-16 -4l-14 -3v-13v-111zM684 656l13 3v13v94l39 -91l3 -8l9 2l38 8l20 4l-7 17l-46 109q19 15 30 34q16 26 16 55v71q0 39 -27 60q-29 22 -66 14l-22 -4l-36 -7l-14 -3v-14v-115v-79v-159v-14l14 3zM670 826v-14l14 3l22 5
q23 4 41 25q17 21 17 44v71q0 23 -17 37q-18 13 -41 9l-22 -5l-14 -2v-14v-159zM697 977l9 2q13 1 21 -5q9 -8 9 -20v-70q0 -12 -9 -24q-9 -10 -21 -13l-9 -2v132zM914 730q-24 -5 -37 8q-15 13 -15 38v13l8 2v-13q0 -23 11 -32q12 -13 33 -8q20 4 31 23q7 14 7 34v53
q0 11 -9 22q-7 7 -11 9q-5 3 -11 7q-33 14 -47 28q-12 12 -12 22v53q0 24 15 44q13 18 37 23q19 4 33 -8q13 -12 13 -39v-13l-8 -2v13q0 19 -7 31q-11 14 -31 10q-21 -3 -33 -21q-11 -16 -11 -37v-53q0 -11 14 -22q20 -12 16 -10l14 -7q23 -9 36 -23q10 -12 10 -25v-54
q0 -28 -13 -45q-14 -17 -33 -21zM967 738q21 27 21 64v53q0 22 -17 41q-13 14 -42 29q-14 4 -26 14l-6 4v53q0 9 5 18q6 6 12 7q4 1 8 -2q3 -6 3 -18v-26v-14l14 3l35 7l14 3v14v26q0 36 -21 57q-20 19 -53 13q-35 -8 -57 -36q-23 -31 -23 -65v-53q0 -20 20 -38
q19 -18 51 -32q13 -8 16 -11q4 -6 4 -7v-53q0 -12 -3 -18q-3 -5 -8 -6q-8 -2 -12 3q-5 5 -5 16v26v14l-14 -3l-35 -7l-14 -3v-14v-26q0 -35 23 -56q22 -20 57 -13q33 7 53 36zM1050 1084l13 2l78 -223l24 -70l2 1v78v236l8 1v-326l-13 -3l-77 225l-24 69h-3v-79v-236l-8 -1
v326zM1023 739v-14l13 2l36 8l13 2v14v163l55 -156l3 -9l10 2l36 8l14 2v14v354v14l-14 -3l-36 -7l-13 -3v-14v-163l-54 156l-3 9l-10 -2l-37 -7l-13 -3v-14v-353zM1255 1153l123 25l14 3v-14v-35v-14l-14 -3l-74 -15v-96l38 8l14 3v-14v-36v-13l-14 -3l-38 -8v-96l74 15
l14 3v-14v-35v-14l-14 -3l-123 -25l-14 -3v14v354v14zM1364 1148l-95 -20v-326l95 20v8l-74 -16l-13 -2v14v123v14l13 3l39 8v8l-39 -8l-13 -3v13v125v13l13 3l74 15v8zM1490 1070l-6 34l-11 66l-8 -2l56 -314l15 3l56 337l-8 -1l-12 -71l-5 -36l-25 -149l-12 -70l-4 -1
l-11 65zM1511 1114l6 -34l11 -62l11 67l7 36l13 83l2 11l12 3l35 7l16 3l-3 -17l-60 -365l-2 -12l-12 -3l-38 -7l-11 -3l-2 11l-61 342l-2 15l16 4l35 7l12 2l2 -11zM81 1693h1612v-1612h-1612v1612zM357 235q3 0 5 -2q3 -3 3 -5v-25v-9v-3h2h9h5h3v3v9v3h-3h-2v22q0 3 2 5
q4 2 6 2q3 0 5 -2t2 -5v-25v-9v-3h3h9h5h3v3v9v3h-3h-2v22q0 8 -7 15q-6 6 -15 6q-7 0 -10 -2q-4 -2 -5 -3q-2 0 -3.5 1t-2.5 2q-3 2 -9 2q-4 0 -6 -1h-1h-1v1h-3h-8h-6h-2v-2v-9v-3h2h3v-7v-34v-3h3h8h3v3v34q0 1 2 5q4 2 6 2zM445 249q-8 0 -11 -2q-6 -2 -9 -6
q-5 -5 -6 -9q-3 -6 -3 -12q0 -5 3 -11q1 -5 6 -9q7 -9 20 -9q5 0 10 3q3 0 5 2v-2v-3h3h8h6h2v3v9v3h-2h-3v14v27v2h-3h-8h-3v-2v-2q-4 2 -5 2q-3 2 -10 2zM460 220q0 -6 -4 -10t-11 -4q-6 0 -10 4q-5 5 -5 10q0 6 5 11q4 4 10 4q7 0 11 -4t4 -11v0zM490 249h-5h-3v-2v-9v-3
h3h2v-15v-14h-2h-3v-3v-9v-3h3h5h9h3v3v9v17q0 7 4 11t10 4h3v3v9v2h-3q-7 0 -10 -2q-2 0 -4 -2v2v2h-3h-9zM524 194v-3h3h8h3v2h1q1 0 1 -1q2 0 3.5 -0.5t3.5 -0.5q9 0 17 6q7 4 7 13q0 6 -6 11q-6 3 -16 7h-2h-2q-1 0 -2.5 0.5t-1.5 1.5q-2 0 -2 1h-1q0 1 2 3q2 1 7 1
t7 -1q1 -1 2 -1l1 -1v-2h2h9h3v3v14v2h-3h-9h-2v-1q-2 0 -3 1h-3h-4q-10 0 -16 -5q-7 -5 -7 -13q0 -7 6 -11q6 -6 17 -7q2 0 4 -1q3 0 4 -1q0 -1 1 -1h1q0 -1 -2 -3q-2 -1 -8 -1q-4 0 -6 1q-3 1 -3 2l-1 2h-2h-7h-1h-3v-3v-14zM583 249h-5h-3v-2v-9v-3h3h2v-12v-3v-26v-3h3
h9h3v3v26v3q0 4 3 9q3 3 9 3q5 0 8 -3q4 -4 4 -9v-3v-17v-9v-3h3h8h6h2v3v9v3h-2h-3v14v3q0 12 -8 19q-7 7 -18 7q-6 0 -9 -1q-1 -1 -2 -1l-1 -1v1v2h-3h-9zM677 233q1 0 3 -2l-25 -9q1 6 4 9q4 4 11 4q5 0 7 -2zM697 222l2 1l-1 2q-2 11 -9 17q-9 7 -19 7q-8 0 -11 -2
q-6 -2 -10 -6q-2 -3 -3.5 -5t-2.5 -4q-2 -8 -2 -12q0 -3 2 -11q1 -3 2.5 -5t3.5 -4q9 -9 21 -9q6 0 14 4q6 4 11 11l2 2l-4 2l-8 3h-2l-1 -1l-5 -5q-3 -1 -7 -1q-5 0 -7 1q-1 0 -2 0.5t-1 1.5l28 10zM706 249h-2h-3v-2v-9v-3h3h4l17 -42l1 -2h2h9h2l1 2l21 53l1 3h-4h-9h-2
l-1 -1l-14 -35l-14 35l-1 1h-2h-9zM892 238q5 0 8 -3t3 -7v-25v-9h9h5v9h-5v25q0 4 3 7t7 3t7 -3t3 -7v-25v-9h9h6v9h-6v25q0 6 -5 13q-6 6 -14 6t-15 -7q-7 7 -15 7q-6 0 -10 -3v3h-9h-5v-9h5v-10v-34h9v34q0 4 3 7t7 3zM976 247q-11 0 -19 -8t-8 -19q0 -10 8 -18t19 -8
q10 0 17 7v-7h9h5v9h-5v17v27h-9v-7q-7 7 -17 7zM993 220q0 -6 -5 -12q-5 -5 -12 -5t-13 5q-5 6 -5 12t5 13q6 5 13 5t12 -5q5 -7 5 -13zM1016 247h-5v-9h5v-18v-17h-5v-9h5h9v9v17q0 6 5 13q5 5 12 5v9q-10 0 -17 -7v7h-9zM1047 194h9v3q6 -3 12 -3q8 0 15 5q6 4 6 11
q0 5 -6 10q-6 3 -14 5q-2 0 -8 2q-5 1 -5 4t3 5q6 2 9 2q4 0 8 -2t4 -3h8h1v14h-9v-3q-6 3 -12 3q-9 0 -15 -5t-6 -11t6 -10q7 -4 15 -5q2 0 8 -2q4 -2 4 -4q0 -4 -3 -5q-6 -2 -9 -2t-4.5 0.5t-3.5 0.5l-4 4h-8h-1v-14zM1099 247h-5v-9h5v-15v-3v-26h9v26v3q0 6 4 10
q5 5 11 5q7 0 11 -5q4 -4 4 -10v-3v-17v-9h9h5v9h-5v17v3q0 8 -7 17q-9 7 -17 7q-9 0 -15 -6v6h-9zM1182 238q4 0 8 -2q4 -3 6 -6l-32 -12v1v1q0 6 5 13q6 5 13 5zM1199 222l9 3q-2 9 -9 15q-7 7 -17 7q-11 0 -19 -8t-8 -19q0 -10 8 -18t19 -8q7 0 13 4q6 3 9 9l-8 3
q-6 -7 -14 -7q-10 0 -14 7zM1212 247h-2v-9h6l18 -44h9l21 53h-9l-17 -41l-16 41h-10zM1319 247q-11 0 -19 -8q-7 -7 -7 -19q0 -11 7 -18q8 -8 19 -8q6 0 11 3q5 1 9 7l-8 4q-5 -5 -12 -5t-12 5t-5 12q0 8 5 13t12 5t12 -5h9v14h-9v-3q-5 3 -12 3zM1370 247q-10 0 -18 -8
t-8 -19q0 -10 8 -18t18 -8q11 0 19 8t8 18q0 11 -8 19t-19 8zM1358 233q6 5 12 5t13 -5q5 -7 5 -13t-5 -12q-7 -5 -13 -5t-12 5q-5 6 -5 12t5 13zM1423 238q5 0 8 -3t3 -7v-25v-9h9h5v9h-5v25q0 4 3 7t7 3q5 0 8 -3t3 -7v-25v-9h8h6v9h-6v25q0 6 -5 13q-6 6 -14 6t-15 -7
q-7 7 -15 7q-6 0 -10 -3v3h-9h-5v-9h5v-10v-34h9v34q0 4 3 7t7 3zM814 246h-1h-1q-5 0 -7 -1q-3 0 -7 -2q-3 -2 -4 -4q-1 -1 -1 -4v-28q0 -3 1 -4q1 -3 4 -4q4 -2 7 -2q2 -1 7 -1h1h1h1h1v0v-1q0 -1 0.5 -2t2.5 -2q0 -1 1.5 -2t2.5 -1q8 -2 13 -2q6 0 12 4q2 1 4 5v0
q1 2 1 5v1v3v0v2v7v38q0 4 -3 9q-3 3 -9 7q-8 4 -13 5t-16 1t-16 -1t-13 -5q-7 -4 -9 -7q-3 -5 -3 -9v-63q0 -5 3 -9q2 -4 9 -7q8 -4 13 -5q10 -2 16 -2h2h3q1 0 2 0.5t3 0.5t3 1h1h2l4 1v3v1v6l-9 -2h-1h-1q-1 0 -2 -0.5t-2 -0.5h-3h-2q-7 0 -9 1q-4 0 -8 2q-4 1 -5 4
q-2 1 -2 3v68q0 3 2 4q3 3 5 4q-4 -2 8 2q1 0 3.5 0.5t5.5 0.5q2 0 4.5 -0.5t4.5 -0.5q12 -4 8 -2l3 -2q1 -2 3 -2q1 -1 1 -4v-44v-4v-1v0v-1v-1v-4v-2h-1h-1h-1v0q-1 0 -1 1t-1 2v43v4h-6h-2h-7v0h-1h-1zM816 213v-7v0h-1h-1h-1h-1h-1h-1h-1v1h-1v1v1v24v0v1v1l1 1v0l1 1h1
h1v0h1h1v-1q2 0 2 -1v-22zM1276 206q-7 0 -7 -7q0 -6 7 -6t7 6q0 7 -7 7zM665 1330l-4 -1v-4v-112v-4h4l11 2l5 1v4v113v4l-5 -1zM672 1323v-104h-3v103zM703 1328l4 1l25 -72l7 -22h1v25v75l2 1v-104l-3 -1l-25 72l-8 22h-1v-25v-75h-2v103zM694 1219v-5l4 1l12 2l4 1v4v52
l17 -50l1 -3l3 1l12 2l4 1v4v112v5l-4 -1l-11 -2l-5 -1v-4v-52l-17 50l-1 3l-3 -1l-12 -2l-4 -1v-4v-112zM790 1353q-12 -4 -19 -12q-8 -10 -8 -20v-67q0 -10 8 -18q8 -6 19 -4q10 1 19 11q8 9 8 21v39v4l-4 -1l-20 -3l-5 -1v-4v-12v-4l5 1l4 1v-24q0 -3 -2 -5q-2 -3 -5 -3
t-5 1q-2 2 -2 4v68q0 1 2 5q3 3 5 3q4 0 5 -1q2 -2 2 -5v-5v-4l5 1l11 2l4 1v4v5q0 10 -8 17q-7 6 -19 5zM790 1344q8 1 13 -3t5 -12l-2 -1v1q0 6 -5 10q-3 3 -11 3q-8 -2 -11 -7q-4 -6 -4 -12v-67q0 -8 4 -10q4 -5 11 -3q6 1 11 7q5 5 5 12v28v4l-4 -1l-5 -1v3l11 2v-35
q0 -9 -5 -14q-6 -7 -13 -7q-8 -2 -12 3q-6 3 -6 11v68q0 6 6 14q4 5 12 7zM831 1360l-4 -1v-4v-112v-4h4l38 7l5 1v5v11v4l-5 -1l-22 -4v97v4l-4 -1zM838 1353v-97v-4l5 1l22 4v-3l-29 -5v103zM913 1375q-11 -2 -18 -11q-8 -8 -8 -21v-67q0 -12 8 -17q6 -7 18 -5q11 2 19 12
q8 8 8 20v67q0 12 -8 18q-9 6 -19 4zM913 1367q8 0 13 -3q6 -5 6 -12v-67q0 -8 -6 -14q-4 -7 -13 -8q-8 -2 -12 3q-6 4 -6 12v67q0 8 6 14q4 6 12 8zM913 1364q-8 -2 -10 -7q-5 -4 -5 -11v-68q0 -7 5 -10q3 -3 10 -3q5 1 11 7q5 5 5 12v67q0 7 -5 11q-5 3 -11 2zM913 1355
q2 1 5 -1q2 -1 2 -4v-68q0 -3 -2 -5q-2 -3 -5 -3t-4 1q-2 2 -2 5v67q0 4 2 5q1 3 4 3zM959 1271v46v26v32l7 1l7 1q7 1 14 -3q6 -5 6 -14v-22q0 -6 -3 -12q-1 -2 -9 -10l-4 -2l1 -4l14 -33h-3l-14 34l-1 2h-3l-5 -1l-5 -1v-4v-35zM966 1264l4 1v4v30l12 -29l1 -3l3 1l12 2
l7 1l-3 5l-14 35q5 4 9 11q5 7 5 17v23q0 11 -9 19q-8 8 -20 5l-7 -1l-12 -2l-4 -1v-5v-36v-25v-51v-4l4 1zM961 1318v-4h5l7 2q6 0 13 7q5 8 5 14v23q0 7 -5 12q-6 4 -13 3l-7 -1l-5 -1v-5v-50zM970 1366h3q2 1 7 -1q2 -4 2 -7v-22q0 -2 -2 -8q-1 -1 -7 -4h-3v42z
M1018 1394l-5 -1v-4v-112v-5l5 1l11 2l4 1v5v112v4l-4 -1zM1025 1387v-104h-3v103zM1074 1405q-12 -3 -19 -12q-8 -8 -8 -20v-68q0 -12 8 -17q6 -7 19 -5q9 2 19 12q7 8 7 20v67q0 12 -7 18q-10 6 -19 5zM1074 1396q7 1 12 -3q6 -5 6 -12v-67q0 -8 -6 -14q-5 -7 -12 -8
q-9 -2 -13 3q-5 3 -5 12v67q0 9 5 14q4 6 13 8zM1074 1393q-7 -2 -11 -6q-5 -7 -5 -12v-68q0 -5 5 -10q4 -4 11 -2q5 0 11 6q4 5 4 12v67q0 7 -4 11q-6 3 -11 2zM1074 1384q2 1 4 -1q3 -2 3 -4v-67q0 -3 -3 -6l-2 -2l-2 -1q-4 0 -5 2q-2 1 -2 4v67q0 4 2 6t5 2zM1164 1416v5
l-5 -1l-11 -2l-4 -1v-4v-90q0 -3 -2 -5q-3 -3 -5 -3q-3 0 -5 1q-2 2 -2 5v89v5l-4 -1l-11 -2l-5 -1v-4v-90q0 -10 8 -18q6 -6 19 -4q11 1 19 11q8 11 8 21v89zM1155 1325q0 -6 -5 -14q-6 -6 -13 -7q-8 -2 -13 3q-5 3 -5 12v85h2v-85q0 -7 5 -10q4 -5 11 -3q7 1 11 7
q5 5 5 12v85h2v-85zM1199 1315q-8 -2 -12 3q-5 5 -5 12v4h3v-3q0 -7 3 -11q3 -3 11 -3q4 1 10 8q2 6 2 10v17q0 4 -3 7q-2 2 -4 3q-2 2 -3 2q-12 6 -15 10q-4 4 -4 7v16q0 7 5 14t12 7q6 1 10 -2q4 -4 4 -13v-4h-2v4q0 5 -2 9q-5 5 -10 4q-7 -2 -11 -7q-3 -5 -3 -11v-17
q0 -5 4 -7t5 -3q4 -2 5 -3q8 -4 11 -7q3 -5 3 -9v-16q0 -10 -4 -15q-3 -5 -10 -6zM1216 1317q6 9 6 20v17q0 6 -5 13q-4 4 -14 10l-8 4q-1 0 -1 1l-1 1v16q0 2 2 6q2 2 4 2h1h1q1 -2 1 -6v-8v-5l5 1l11 2l4 1v4v9q0 10 -6 18q-7 5 -17 4q-12 -2 -18 -11q-7 -9 -7 -20v-17
q0 -6 6 -12q4 -5 16 -11q4 -2 5 -3t1 -3v-16q0 -5 -1 -6q0 -2 -2 -2q-3 0 -4 1q-2 2 -2 5v8v5l-4 -1l-11 -2l-4 -1v-4v-8q0 -13 7 -18q6 -7 18 -5q8 1 17 11z" />
    <glyph glyph-name="uni0081" 
d="M799 154l179 -156q-50 -6 -96.5 -17t-89.5 -26.5t-73 -37t-45.5 -46.5t-9.5 -57t37 -67q16 -18 57.5 -29.5t89 -14.5t93 -3.5t75.5 1.5l30 2l-61 -201q-264 -14 -398 54t-154 229q-5 48 9 94t40.5 80.5t64.5 65.5t74 52t74.5 38.5t62.5 25.5t41 13z" />
    <glyph glyph-name="exclamdown" unicode="&#xa1;" horiz-adv-x="580" 
d="M207 949h156h72l1 -56l34 -1138l2 -59h-75h-228h-76l2 59l38 1138l2 56h72zM282 1030q-84 0 -142.5 59t-58.5 142t58.5 142.5t142.5 59.5q83 0 142.5 -59.5t59.5 -142.5t-59.5 -142t-142.5 -59z" />
    <glyph glyph-name="cent" unicode="&#xa2;" horiz-adv-x="750" 
d="M385 1601q9 0 25 -2l15 144h96l-17 -166q54 -24 98 -67t67 -100q24 -58 24 -117v-35v-25h-25h-141h-25v25v35q0 24 -9 44q-2 5 -11 21l-103 -1030h2h4q24 0 45 9q22 9 38 25q16 18 25 38q9 21 9 45v35v25h25h141h25v-25v-35q0 -61 -24 -118q-23 -56 -67 -100
q-43 -43 -100 -67q-56 -23 -117 -23q-17 0 -25 1l-15 -143h-96l17 166q-57 24 -98 66q-45 44 -67 100q-24 57 -24 118v848q0 59 24 117q22 57 67 100q42 44 100 67q57 24 117 24zM288 380l103 1029q-2 1 -6 1q-19 0 -44 -9q-23 -10 -38 -26q-17 -16 -26 -38q-9 -24 -9 -44
v-848q0 -20 9 -45q4 -10 11 -20z" />
    <glyph glyph-name="sterling" unicode="&#xa3;" horiz-adv-x="1020" 
d="M540 1738q159 0 272 -114q113 -112 113 -272v-40v-63h-62h-161h-63v63v40q0 41 -29 70t-70 29q-40 0 -69 -29t-29 -70v-434h328v-175h-328v-326q63 -39 117 -94.5t122 -55.5q92 0 181 99l89 98v-319l-77 -83q-77 -84 -193 -84q-117 0 -195 86.5t-153 88.5t-156 -69
l-82 -70v291l16 19q15 20 44 45v16v358h-115v175h115v434q0 159 113 272q114 114 272 114z" />
    <glyph glyph-name="currency" unicode="&#xa4;" horiz-adv-x="1750" 
d="M146 495v-43l1488 298v43zM136 1035v-43l1488 298v42zM177 906l11 2l47 -185l14 -51l13 57l47 204l12 3v-327l-8 -1v306l-57 -245l-8 -32l-7 29l-56 222v-306l-8 -2v326zM149 561v-14l14 3l35 7l14 3v14v90l5 -19l3 -11l6 -26l45 9l7 29l2 11l5 22v-90v-14l14 3l35 7
l14 2v14v354v14l-14 -3l-36 -7l-10 -3l-3 -11l-37 -158l-36 143l-3 10l-11 -2l-35 -7l-14 -3v-14v-353zM543 758l-28 139l-13 60l-6 -1l-12 -66l-29 -150l-7 -37l-1 -1l33 7l38 7l32 7v1zM552 715l-32 -6l-42 -9l-32 -6l-12 -62l-8 -1l64 339l18 4l64 -314l-9 -1zM499 809
l-13 -67zM525 683l9 -46l3 -11l13 3l41 8l19 4l-3 15l-70 340l-2 11l-14 -3l-44 -9l-14 -3l-2 -12l-70 -368l-3 -16l19 3l41 9l13 3l2 11l10 50zM514 740l-30 -6l15 77zM662 679v145v80v101l22 4l22 5q26 5 46 -10q20 -16 20 -42v-71q0 -21 -12 -39q-10 -19 -29 -31l-13 -7
l5 -12l43 -102l-8 -2l-45 106l-3 8l-10 -1l-16 -4l-14 -3v-13v-111zM684 656l13 3v13v94l39 -91l3 -8l9 2l38 8l20 4l-7 17l-46 109q19 15 30 34q16 26 16 55v71q0 39 -27 60q-29 22 -66 14l-22 -4l-36 -7l-14 -3v-14v-115v-79v-159v-14l14 3zM670 826v-14l14 3l22 5
q23 4 41 25q17 21 17 44v71q0 23 -17 37q-18 13 -41 9l-22 -5l-14 -2v-14v-159zM697 977l9 2q13 1 21 -5q9 -8 9 -20v-70q0 -12 -9 -24q-9 -10 -21 -13l-9 -2v132zM914 730q-24 -5 -37 8q-15 13 -15 38v13l8 2v-13q0 -23 11 -32q12 -13 33 -8q20 4 31 23q7 14 7 34v53
q0 11 -9 22q-7 7 -11 9q-5 3 -11 7q-33 14 -47 28q-12 12 -12 22v53q0 24 15 44q13 18 37 23q19 4 33 -8q13 -12 13 -39v-13l-8 -2v13q0 19 -7 31q-11 14 -31 10q-21 -3 -33 -21q-11 -16 -11 -37v-53q0 -11 14 -22q20 -12 16 -10l14 -7q23 -9 36 -23q10 -12 10 -25v-54
q0 -28 -13 -45q-14 -17 -33 -21zM967 738q21 27 21 64v53q0 22 -17 41q-13 14 -42 29q-14 4 -26 14l-6 4v53q0 9 5 18q6 6 12 7q4 1 8 -2q3 -6 3 -18v-26v-14l14 3l35 7l14 3v14v26q0 36 -21 57q-20 19 -53 13q-35 -8 -57 -36q-23 -31 -23 -65v-53q0 -20 20 -38
q19 -18 51 -32q13 -8 16 -11q4 -6 4 -7v-53q0 -12 -3 -18q-3 -5 -8 -6q-8 -2 -12 3q-5 5 -5 16v26v14l-14 -3l-35 -7l-14 -3v-14v-26q0 -35 23 -56q22 -20 57 -13q33 7 53 36zM1050 1084l13 2l78 -223l24 -70l2 1v78v236l8 1v-326l-13 -3l-77 225l-24 69h-3v-79v-236l-8 -1
v326zM1023 739v-14l13 2l36 8l13 2v14v163l55 -156l3 -9l10 2l36 8l14 2v14v354v14l-14 -3l-36 -7l-13 -3v-14v-163l-54 156l-3 9l-10 -2l-37 -7l-13 -3v-14v-353zM1255 1153l123 25l14 3v-14v-35v-14l-14 -3l-74 -15v-96l38 8l14 3v-14v-36v-13l-14 -3l-38 -8v-96l74 15
l14 3v-14v-35v-14l-14 -3l-123 -25l-14 -3v14v354v14zM1364 1148l-95 -20v-326l95 20v8l-74 -16l-13 -2v14v123v14l13 3l39 8v8l-39 -8l-13 -3v13v125v13l13 3l74 15v8zM1490 1070l-6 34l-11 66l-8 -2l56 -314l15 3l56 337l-8 -1l-12 -71l-5 -36l-25 -149l-12 -70l-4 -1
l-11 65zM1511 1114l6 -34l11 -62l11 67l7 36l13 83l2 11l12 3l35 7l16 3l-3 -17l-60 -365l-2 -12l-12 -3l-38 -7l-11 -3l-2 11l-61 342l-2 15l16 4l35 7l12 2l2 -11zM81 1693h1612v-1612h-1612v1612zM357 235q3 0 5 -2q3 -3 3 -5v-25v-9v-3h2h9h5h3v3v9v3h-3h-2v22q0 3 2 5
q4 2 6 2q3 0 5 -2t2 -5v-25v-9v-3h3h9h5h3v3v9v3h-3h-2v22q0 8 -7 15q-6 6 -15 6q-7 0 -10 -2q-4 -2 -5 -3q-2 0 -3.5 1t-2.5 2q-3 2 -9 2q-4 0 -6 -1h-1h-1v1h-3h-8h-6h-2v-2v-9v-3h2h3v-7v-34v-3h3h8h3v3v34q0 1 2 5q4 2 6 2zM445 249q-8 0 -11 -2q-6 -2 -9 -6
q-5 -5 -6 -9q-3 -6 -3 -12q0 -5 3 -11q1 -5 6 -9q7 -9 20 -9q5 0 10 3q3 0 5 2v-2v-3h3h8h6h2v3v9v3h-2h-3v14v27v2h-3h-8h-3v-2v-2q-4 2 -5 2q-3 2 -10 2zM460 220q0 -6 -4 -10t-11 -4q-6 0 -10 4q-5 5 -5 10q0 6 5 11q4 4 10 4q7 0 11 -4t4 -11v0zM490 249h-5h-3v-2v-9v-3
h3h2v-15v-14h-2h-3v-3v-9v-3h3h5h9h3v3v9v17q0 7 4 11t10 4h3v3v9v2h-3q-7 0 -10 -2q-2 0 -4 -2v2v2h-3h-9zM524 194v-3h3h8h3v2h1q1 0 1 -1q2 0 3.5 -0.5t3.5 -0.5q9 0 17 6q7 4 7 13q0 6 -6 11q-6 3 -16 7h-2h-2q-1 0 -2.5 0.5t-1.5 1.5q-2 0 -2 1h-1q0 1 2 3q2 1 7 1
t7 -1q1 -1 2 -1l1 -1v-2h2h9h3v3v14v2h-3h-9h-2v-1q-2 0 -3 1h-3h-4q-10 0 -16 -5q-7 -5 -7 -13q0 -7 6 -11q6 -6 17 -7q2 0 4 -1q3 0 4 -1q0 -1 1 -1h1q0 -1 -2 -3q-2 -1 -8 -1q-4 0 -6 1q-3 1 -3 2l-1 2h-2h-7h-1h-3v-3v-14zM583 249h-5h-3v-2v-9v-3h3h2v-12v-3v-26v-3h3
h9h3v3v26v3q0 4 3 9q3 3 9 3q5 0 8 -3q4 -4 4 -9v-3v-17v-9v-3h3h8h6h2v3v9v3h-2h-3v14v3q0 12 -8 19q-7 7 -18 7q-6 0 -9 -1q-1 -1 -2 -1l-1 -1v1v2h-3h-9zM677 233q1 0 3 -2l-25 -9q1 6 4 9q4 4 11 4q5 0 7 -2zM697 222l2 1l-1 2q-2 11 -9 17q-9 7 -19 7q-8 0 -11 -2
q-6 -2 -10 -6q-2 -3 -3.5 -5t-2.5 -4q-2 -8 -2 -12q0 -3 2 -11q1 -3 2.5 -5t3.5 -4q9 -9 21 -9q6 0 14 4q6 4 11 11l2 2l-4 2l-8 3h-2l-1 -1l-5 -5q-3 -1 -7 -1q-5 0 -7 1q-1 0 -2 0.5t-1 1.5l28 10zM706 249h-2h-3v-2v-9v-3h3h4l17 -42l1 -2h2h9h2l1 2l21 53l1 3h-4h-9h-2
l-1 -1l-14 -35l-14 35l-1 1h-2h-9zM892 238q5 0 8 -3t3 -7v-25v-9h9h5v9h-5v25q0 4 3 7t7 3t7 -3t3 -7v-25v-9h9h6v9h-6v25q0 6 -5 13q-6 6 -14 6t-15 -7q-7 7 -15 7q-6 0 -10 -3v3h-9h-5v-9h5v-10v-34h9v34q0 4 3 7t7 3zM976 247q-11 0 -19 -8t-8 -19q0 -10 8 -18t19 -8
q10 0 17 7v-7h9h5v9h-5v17v27h-9v-7q-7 7 -17 7zM993 220q0 -6 -5 -12q-5 -5 -12 -5t-13 5q-5 6 -5 12t5 13q6 5 13 5t12 -5q5 -7 5 -13zM1016 247h-5v-9h5v-18v-17h-5v-9h5h9v9v17q0 6 5 13q5 5 12 5v9q-10 0 -17 -7v7h-9zM1047 194h9v3q6 -3 12 -3q8 0 15 5q6 4 6 11
q0 5 -6 10q-6 3 -14 5q-2 0 -8 2q-5 1 -5 4t3 5q6 2 9 2q4 0 8 -2t4 -3h8h1v14h-9v-3q-6 3 -12 3q-9 0 -15 -5t-6 -11t6 -10q7 -4 15 -5q2 0 8 -2q4 -2 4 -4q0 -4 -3 -5q-6 -2 -9 -2t-4.5 0.5t-3.5 0.5l-4 4h-8h-1v-14zM1099 247h-5v-9h5v-15v-3v-26h9v26v3q0 6 4 10
q5 5 11 5q7 0 11 -5q4 -4 4 -10v-3v-17v-9h9h5v9h-5v17v3q0 8 -7 17q-9 7 -17 7q-9 0 -15 -6v6h-9zM1182 238q4 0 8 -2q4 -3 6 -6l-32 -12v1v1q0 6 5 13q6 5 13 5zM1199 222l9 3q-2 9 -9 15q-7 7 -17 7q-11 0 -19 -8t-8 -19q0 -10 8 -18t19 -8q7 0 13 4q6 3 9 9l-8 3
q-6 -7 -14 -7q-10 0 -14 7zM1212 247h-2v-9h6l18 -44h9l21 53h-9l-17 -41l-16 41h-10zM1319 247q-11 0 -19 -8q-7 -7 -7 -19q0 -11 7 -18q8 -8 19 -8q6 0 11 3q5 1 9 7l-8 4q-5 -5 -12 -5t-12 5t-5 12q0 8 5 13t12 5t12 -5h9v14h-9v-3q-5 3 -12 3zM1370 247q-10 0 -18 -8
t-8 -19q0 -10 8 -18t18 -8q11 0 19 8t8 18q0 11 -8 19t-19 8zM1358 233q6 5 12 5t13 -5q5 -7 5 -13t-5 -12q-7 -5 -13 -5t-12 5q-5 6 -5 12t5 13zM1423 238q5 0 8 -3t3 -7v-25v-9h9h5v9h-5v25q0 4 3 7t7 3q5 0 8 -3t3 -7v-25v-9h8h6v9h-6v25q0 6 -5 13q-6 6 -14 6t-15 -7
q-7 7 -15 7q-6 0 -10 -3v3h-9h-5v-9h5v-10v-34h9v34q0 4 3 7t7 3zM814 246h-1h-1q-5 0 -7 -1q-3 0 -7 -2q-3 -2 -4 -4q-1 -1 -1 -4v-28q0 -3 1 -4q1 -3 4 -4q4 -2 7 -2q2 -1 7 -1h1h1h1h1v0v-1q0 -1 0.5 -2t2.5 -2q0 -1 1.5 -2t2.5 -1q8 -2 13 -2q6 0 12 4q2 1 4 5v0
q1 2 1 5v1v3v0v2v7v38q0 4 -3 9q-3 3 -9 7q-8 4 -13 5t-16 1t-16 -1t-13 -5q-7 -4 -9 -7q-3 -5 -3 -9v-63q0 -5 3 -9q2 -4 9 -7q8 -4 13 -5q10 -2 16 -2h2h3q1 0 2 0.5t3 0.5t3 1h1h2l4 1v3v1v6l-9 -2h-1h-1q-1 0 -2 -0.5t-2 -0.5h-3h-2q-7 0 -9 1q-4 0 -8 2q-4 1 -5 4
q-2 1 -2 3v68q0 3 2 4q3 3 5 4q-4 -2 8 2q1 0 3.5 0.5t5.5 0.5q2 0 4.5 -0.5t4.5 -0.5q12 -4 8 -2l3 -2q1 -2 3 -2q1 -1 1 -4v-44v-4v-1v0v-1v-1v-4v-2h-1h-1h-1v0q-1 0 -1 1t-1 2v43v4h-6h-2h-7v0h-1h-1zM816 213v-7v0h-1h-1h-1h-1h-1h-1h-1v1h-1v1v1v24v0v1v1l1 1v0l1 1h1
h1v0h1h1v-1q2 0 2 -1v-22zM1276 206q-7 0 -7 -7q0 -6 7 -6t7 6q0 7 -7 7zM665 1330l-4 -1v-4v-112v-4h4l11 2l5 1v4v113v4l-5 -1zM672 1323v-104h-3v103zM703 1328l4 1l25 -72l7 -22h1v25v75l2 1v-104l-3 -1l-25 72l-8 22h-1v-25v-75h-2v103zM694 1219v-5l4 1l12 2l4 1v4v52
l17 -50l1 -3l3 1l12 2l4 1v4v112v5l-4 -1l-11 -2l-5 -1v-4v-52l-17 50l-1 3l-3 -1l-12 -2l-4 -1v-4v-112zM790 1353q-12 -4 -19 -12q-8 -10 -8 -20v-67q0 -10 8 -18q8 -6 19 -4q10 1 19 11q8 9 8 21v39v4l-4 -1l-20 -3l-5 -1v-4v-12v-4l5 1l4 1v-24q0 -3 -2 -5q-2 -3 -5 -3
t-5 1q-2 2 -2 4v68q0 1 2 5q3 3 5 3q4 0 5 -1q2 -2 2 -5v-5v-4l5 1l11 2l4 1v4v5q0 10 -8 17q-7 6 -19 5zM790 1344q8 1 13 -3t5 -12l-2 -1v1q0 6 -5 10q-3 3 -11 3q-8 -2 -11 -7q-4 -6 -4 -12v-67q0 -8 4 -10q4 -5 11 -3q6 1 11 7q5 5 5 12v28v4l-4 -1l-5 -1v3l11 2v-35
q0 -9 -5 -14q-6 -7 -13 -7q-8 -2 -12 3q-6 3 -6 11v68q0 6 6 14q4 5 12 7zM831 1360l-4 -1v-4v-112v-4h4l38 7l5 1v5v11v4l-5 -1l-22 -4v97v4l-4 -1zM838 1353v-97v-4l5 1l22 4v-3l-29 -5v103zM913 1375q-11 -2 -18 -11q-8 -8 -8 -21v-67q0 -12 8 -17q6 -7 18 -5q11 2 19 12
q8 8 8 20v67q0 12 -8 18q-9 6 -19 4zM913 1367q8 0 13 -3q6 -5 6 -12v-67q0 -8 -6 -14q-4 -7 -13 -8q-8 -2 -12 3q-6 4 -6 12v67q0 8 6 14q4 6 12 8zM913 1364q-8 -2 -10 -7q-5 -4 -5 -11v-68q0 -7 5 -10q3 -3 10 -3q5 1 11 7q5 5 5 12v67q0 7 -5 11q-5 3 -11 2zM913 1355
q2 1 5 -1q2 -1 2 -4v-68q0 -3 -2 -5q-2 -3 -5 -3t-4 1q-2 2 -2 5v67q0 4 2 5q1 3 4 3zM959 1271v46v26v32l7 1l7 1q7 1 14 -3q6 -5 6 -14v-22q0 -6 -3 -12q-1 -2 -9 -10l-4 -2l1 -4l14 -33h-3l-14 34l-1 2h-3l-5 -1l-5 -1v-4v-35zM966 1264l4 1v4v30l12 -29l1 -3l3 1l12 2
l7 1l-3 5l-14 35q5 4 9 11q5 7 5 17v23q0 11 -9 19q-8 8 -20 5l-7 -1l-12 -2l-4 -1v-5v-36v-25v-51v-4l4 1zM961 1318v-4h5l7 2q6 0 13 7q5 8 5 14v23q0 7 -5 12q-6 4 -13 3l-7 -1l-5 -1v-5v-50zM970 1366h3q2 1 7 -1q2 -4 2 -7v-22q0 -2 -2 -8q-1 -1 -7 -4h-3v42z
M1018 1394l-5 -1v-4v-112v-5l5 1l11 2l4 1v5v112v4l-4 -1zM1025 1387v-104h-3v103zM1074 1405q-12 -3 -19 -12q-8 -8 -8 -20v-68q0 -12 8 -17q6 -7 19 -5q9 2 19 12q7 8 7 20v67q0 12 -7 18q-10 6 -19 5zM1074 1396q7 1 12 -3q6 -5 6 -12v-67q0 -8 -6 -14q-5 -7 -12 -8
q-9 -2 -13 3q-5 3 -5 12v67q0 9 5 14q4 6 13 8zM1074 1393q-7 -2 -11 -6q-5 -7 -5 -12v-68q0 -5 5 -10q4 -4 11 -2q5 0 11 6q4 5 4 12v67q0 7 -4 11q-6 3 -11 2zM1074 1384q2 1 4 -1q3 -2 3 -4v-67q0 -3 -3 -6l-2 -2l-2 -1q-4 0 -5 2q-2 1 -2 4v67q0 4 2 6t5 2zM1164 1416v5
l-5 -1l-11 -2l-4 -1v-4v-90q0 -3 -2 -5q-3 -3 -5 -3q-3 0 -5 1q-2 2 -2 5v89v5l-4 -1l-11 -2l-5 -1v-4v-90q0 -10 8 -18q6 -6 19 -4q11 1 19 11q8 11 8 21v89zM1155 1325q0 -6 -5 -14q-6 -6 -13 -7q-8 -2 -13 3q-5 3 -5 12v85h2v-85q0 -7 5 -10q4 -5 11 -3q7 1 11 7
q5 5 5 12v85h2v-85zM1199 1315q-8 -2 -12 3q-5 5 -5 12v4h3v-3q0 -7 3 -11q3 -3 11 -3q4 1 10 8q2 6 2 10v17q0 4 -3 7q-2 2 -4 3q-2 2 -3 2q-12 6 -15 10q-4 4 -4 7v16q0 7 5 14t12 7q6 1 10 -2q4 -4 4 -13v-4h-2v4q0 5 -2 9q-5 5 -10 4q-7 -2 -11 -7q-3 -5 -3 -11v-17
q0 -5 4 -7t5 -3q4 -2 5 -3q8 -4 11 -7q3 -5 3 -9v-16q0 -10 -4 -15q-3 -5 -10 -6zM1216 1317q6 9 6 20v17q0 6 -5 13q-4 4 -14 10l-8 4q-1 0 -1 1l-1 1v16q0 2 2 6q2 2 4 2h1h1q1 -2 1 -6v-8v-5l5 1l11 2l4 1v4v9q0 10 -6 18q-7 5 -17 4q-12 -2 -18 -11q-7 -9 -7 -20v-17
q0 -6 6 -12q4 -5 16 -11q4 -2 5 -3t1 -3v-16q0 -5 -1 -6q0 -2 -2 -2q-3 0 -4 1q-2 2 -2 5v8v5l-4 -1l-11 -2l-4 -1v-4v-8q0 -13 7 -18q6 -7 18 -5q8 1 17 11z" />
    <glyph glyph-name="yen" unicode="&#xa5;" horiz-adv-x="900" 
d="M24 1737h299q20 -63 57.5 -243t56.5 -241l99 440l14 44h299q-49 -161 -139.5 -459t-111.5 -368h210v-163h-228v-61h228v-162h-228v-524h-287v524h-228v162h228v61h-228v163h210q-20 64 -110.5 365t-140.5 462z" />
    <glyph glyph-name="section" unicode="&#xa7;" horiz-adv-x="1750" 
d="M146 495v-43l1488 298v43zM136 1035v-43l1488 298v42zM177 906l11 2l47 -185l14 -51l13 57l47 204l12 3v-327l-8 -1v306l-57 -245l-8 -32l-7 29l-56 222v-306l-8 -2v326zM149 561v-14l14 3l35 7l14 3v14v90l5 -19l3 -11l6 -26l45 9l7 29l2 11l5 22v-90v-14l14 3l35 7
l14 2v14v354v14l-14 -3l-36 -7l-10 -3l-3 -11l-37 -158l-36 143l-3 10l-11 -2l-35 -7l-14 -3v-14v-353zM543 758l-28 139l-13 60l-6 -1l-12 -66l-29 -150l-7 -37l-1 -1l33 7l38 7l32 7v1zM552 715l-32 -6l-42 -9l-32 -6l-12 -62l-8 -1l64 339l18 4l64 -314l-9 -1zM499 809
l-13 -67zM525 683l9 -46l3 -11l13 3l41 8l19 4l-3 15l-70 340l-2 11l-14 -3l-44 -9l-14 -3l-2 -12l-70 -368l-3 -16l19 3l41 9l13 3l2 11l10 50zM514 740l-30 -6l15 77zM662 679v145v80v101l22 4l22 5q26 5 46 -10q20 -16 20 -42v-71q0 -21 -12 -39q-10 -19 -29 -31l-13 -7
l5 -12l43 -102l-8 -2l-45 106l-3 8l-10 -1l-16 -4l-14 -3v-13v-111zM684 656l13 3v13v94l39 -91l3 -8l9 2l38 8l20 4l-7 17l-46 109q19 15 30 34q16 26 16 55v71q0 39 -27 60q-29 22 -66 14l-22 -4l-36 -7l-14 -3v-14v-115v-79v-159v-14l14 3zM670 826v-14l14 3l22 5
q23 4 41 25q17 21 17 44v71q0 23 -17 37q-18 13 -41 9l-22 -5l-14 -2v-14v-159zM697 977l9 2q13 1 21 -5q9 -8 9 -20v-70q0 -12 -9 -24q-9 -10 -21 -13l-9 -2v132zM914 730q-24 -5 -37 8q-15 13 -15 38v13l8 2v-13q0 -23 11 -32q12 -13 33 -8q20 4 31 23q7 14 7 34v53
q0 11 -9 22q-7 7 -11 9q-5 3 -11 7q-33 14 -47 28q-12 12 -12 22v53q0 24 15 44q13 18 37 23q19 4 33 -8q13 -12 13 -39v-13l-8 -2v13q0 19 -7 31q-11 14 -31 10q-21 -3 -33 -21q-11 -16 -11 -37v-53q0 -11 14 -22q20 -12 16 -10l14 -7q23 -9 36 -23q10 -12 10 -25v-54
q0 -28 -13 -45q-14 -17 -33 -21zM967 738q21 27 21 64v53q0 22 -17 41q-13 14 -42 29q-14 4 -26 14l-6 4v53q0 9 5 18q6 6 12 7q4 1 8 -2q3 -6 3 -18v-26v-14l14 3l35 7l14 3v14v26q0 36 -21 57q-20 19 -53 13q-35 -8 -57 -36q-23 -31 -23 -65v-53q0 -20 20 -38
q19 -18 51 -32q13 -8 16 -11q4 -6 4 -7v-53q0 -12 -3 -18q-3 -5 -8 -6q-8 -2 -12 3q-5 5 -5 16v26v14l-14 -3l-35 -7l-14 -3v-14v-26q0 -35 23 -56q22 -20 57 -13q33 7 53 36zM1050 1084l13 2l78 -223l24 -70l2 1v78v236l8 1v-326l-13 -3l-77 225l-24 69h-3v-79v-236l-8 -1
v326zM1023 739v-14l13 2l36 8l13 2v14v163l55 -156l3 -9l10 2l36 8l14 2v14v354v14l-14 -3l-36 -7l-13 -3v-14v-163l-54 156l-3 9l-10 -2l-37 -7l-13 -3v-14v-353zM1255 1153l123 25l14 3v-14v-35v-14l-14 -3l-74 -15v-96l38 8l14 3v-14v-36v-13l-14 -3l-38 -8v-96l74 15
l14 3v-14v-35v-14l-14 -3l-123 -25l-14 -3v14v354v14zM1364 1148l-95 -20v-326l95 20v8l-74 -16l-13 -2v14v123v14l13 3l39 8v8l-39 -8l-13 -3v13v125v13l13 3l74 15v8zM1490 1070l-6 34l-11 66l-8 -2l56 -314l15 3l56 337l-8 -1l-12 -71l-5 -36l-25 -149l-12 -70l-4 -1
l-11 65zM1511 1114l6 -34l11 -62l11 67l7 36l13 83l2 11l12 3l35 7l16 3l-3 -17l-60 -365l-2 -12l-12 -3l-38 -7l-11 -3l-2 11l-61 342l-2 15l16 4l35 7l12 2l2 -11zM81 1693h1612v-1612h-1612v1612zM357 235q3 0 5 -2q3 -3 3 -5v-25v-9v-3h2h9h5h3v3v9v3h-3h-2v22q0 3 2 5
q4 2 6 2q3 0 5 -2t2 -5v-25v-9v-3h3h9h5h3v3v9v3h-3h-2v22q0 8 -7 15q-6 6 -15 6q-7 0 -10 -2q-4 -2 -5 -3q-2 0 -3.5 1t-2.5 2q-3 2 -9 2q-4 0 -6 -1h-1h-1v1h-3h-8h-6h-2v-2v-9v-3h2h3v-7v-34v-3h3h8h3v3v34q0 1 2 5q4 2 6 2zM445 249q-8 0 -11 -2q-6 -2 -9 -6
q-5 -5 -6 -9q-3 -6 -3 -12q0 -5 3 -11q1 -5 6 -9q7 -9 20 -9q5 0 10 3q3 0 5 2v-2v-3h3h8h6h2v3v9v3h-2h-3v14v27v2h-3h-8h-3v-2v-2q-4 2 -5 2q-3 2 -10 2zM460 220q0 -6 -4 -10t-11 -4q-6 0 -10 4q-5 5 -5 10q0 6 5 11q4 4 10 4q7 0 11 -4t4 -11v0zM490 249h-5h-3v-2v-9v-3
h3h2v-15v-14h-2h-3v-3v-9v-3h3h5h9h3v3v9v17q0 7 4 11t10 4h3v3v9v2h-3q-7 0 -10 -2q-2 0 -4 -2v2v2h-3h-9zM524 194v-3h3h8h3v2h1q1 0 1 -1q2 0 3.5 -0.5t3.5 -0.5q9 0 17 6q7 4 7 13q0 6 -6 11q-6 3 -16 7h-2h-2q-1 0 -2.5 0.5t-1.5 1.5q-2 0 -2 1h-1q0 1 2 3q2 1 7 1
t7 -1q1 -1 2 -1l1 -1v-2h2h9h3v3v14v2h-3h-9h-2v-1q-2 0 -3 1h-3h-4q-10 0 -16 -5q-7 -5 -7 -13q0 -7 6 -11q6 -6 17 -7q2 0 4 -1q3 0 4 -1q0 -1 1 -1h1q0 -1 -2 -3q-2 -1 -8 -1q-4 0 -6 1q-3 1 -3 2l-1 2h-2h-7h-1h-3v-3v-14zM583 249h-5h-3v-2v-9v-3h3h2v-12v-3v-26v-3h3
h9h3v3v26v3q0 4 3 9q3 3 9 3q5 0 8 -3q4 -4 4 -9v-3v-17v-9v-3h3h8h6h2v3v9v3h-2h-3v14v3q0 12 -8 19q-7 7 -18 7q-6 0 -9 -1q-1 -1 -2 -1l-1 -1v1v2h-3h-9zM677 233q1 0 3 -2l-25 -9q1 6 4 9q4 4 11 4q5 0 7 -2zM697 222l2 1l-1 2q-2 11 -9 17q-9 7 -19 7q-8 0 -11 -2
q-6 -2 -10 -6q-2 -3 -3.5 -5t-2.5 -4q-2 -8 -2 -12q0 -3 2 -11q1 -3 2.5 -5t3.5 -4q9 -9 21 -9q6 0 14 4q6 4 11 11l2 2l-4 2l-8 3h-2l-1 -1l-5 -5q-3 -1 -7 -1q-5 0 -7 1q-1 0 -2 0.5t-1 1.5l28 10zM706 249h-2h-3v-2v-9v-3h3h4l17 -42l1 -2h2h9h2l1 2l21 53l1 3h-4h-9h-2
l-1 -1l-14 -35l-14 35l-1 1h-2h-9zM892 238q5 0 8 -3t3 -7v-25v-9h9h5v9h-5v25q0 4 3 7t7 3t7 -3t3 -7v-25v-9h9h6v9h-6v25q0 6 -5 13q-6 6 -14 6t-15 -7q-7 7 -15 7q-6 0 -10 -3v3h-9h-5v-9h5v-10v-34h9v34q0 4 3 7t7 3zM976 247q-11 0 -19 -8t-8 -19q0 -10 8 -18t19 -8
q10 0 17 7v-7h9h5v9h-5v17v27h-9v-7q-7 7 -17 7zM993 220q0 -6 -5 -12q-5 -5 -12 -5t-13 5q-5 6 -5 12t5 13q6 5 13 5t12 -5q5 -7 5 -13zM1016 247h-5v-9h5v-18v-17h-5v-9h5h9v9v17q0 6 5 13q5 5 12 5v9q-10 0 -17 -7v7h-9zM1047 194h9v3q6 -3 12 -3q8 0 15 5q6 4 6 11
q0 5 -6 10q-6 3 -14 5q-2 0 -8 2q-5 1 -5 4t3 5q6 2 9 2q4 0 8 -2t4 -3h8h1v14h-9v-3q-6 3 -12 3q-9 0 -15 -5t-6 -11t6 -10q7 -4 15 -5q2 0 8 -2q4 -2 4 -4q0 -4 -3 -5q-6 -2 -9 -2t-4.5 0.5t-3.5 0.5l-4 4h-8h-1v-14zM1099 247h-5v-9h5v-15v-3v-26h9v26v3q0 6 4 10
q5 5 11 5q7 0 11 -5q4 -4 4 -10v-3v-17v-9h9h5v9h-5v17v3q0 8 -7 17q-9 7 -17 7q-9 0 -15 -6v6h-9zM1182 238q4 0 8 -2q4 -3 6 -6l-32 -12v1v1q0 6 5 13q6 5 13 5zM1199 222l9 3q-2 9 -9 15q-7 7 -17 7q-11 0 -19 -8t-8 -19q0 -10 8 -18t19 -8q7 0 13 4q6 3 9 9l-8 3
q-6 -7 -14 -7q-10 0 -14 7zM1212 247h-2v-9h6l18 -44h9l21 53h-9l-17 -41l-16 41h-10zM1319 247q-11 0 -19 -8q-7 -7 -7 -19q0 -11 7 -18q8 -8 19 -8q6 0 11 3q5 1 9 7l-8 4q-5 -5 -12 -5t-12 5t-5 12q0 8 5 13t12 5t12 -5h9v14h-9v-3q-5 3 -12 3zM1370 247q-10 0 -18 -8
t-8 -19q0 -10 8 -18t18 -8q11 0 19 8t8 18q0 11 -8 19t-19 8zM1358 233q6 5 12 5t13 -5q5 -7 5 -13t-5 -12q-7 -5 -13 -5t-12 5q-5 6 -5 12t5 13zM1423 238q5 0 8 -3t3 -7v-25v-9h9h5v9h-5v25q0 4 3 7t7 3q5 0 8 -3t3 -7v-25v-9h8h6v9h-6v25q0 6 -5 13q-6 6 -14 6t-15 -7
q-7 7 -15 7q-6 0 -10 -3v3h-9h-5v-9h5v-10v-34h9v34q0 4 3 7t7 3zM814 246h-1h-1q-5 0 -7 -1q-3 0 -7 -2q-3 -2 -4 -4q-1 -1 -1 -4v-28q0 -3 1 -4q1 -3 4 -4q4 -2 7 -2q2 -1 7 -1h1h1h1h1v0v-1q0 -1 0.5 -2t2.5 -2q0 -1 1.5 -2t2.5 -1q8 -2 13 -2q6 0 12 4q2 1 4 5v0
q1 2 1 5v1v3v0v2v7v38q0 4 -3 9q-3 3 -9 7q-8 4 -13 5t-16 1t-16 -1t-13 -5q-7 -4 -9 -7q-3 -5 -3 -9v-63q0 -5 3 -9q2 -4 9 -7q8 -4 13 -5q10 -2 16 -2h2h3q1 0 2 0.5t3 0.5t3 1h1h2l4 1v3v1v6l-9 -2h-1h-1q-1 0 -2 -0.5t-2 -0.5h-3h-2q-7 0 -9 1q-4 0 -8 2q-4 1 -5 4
q-2 1 -2 3v68q0 3 2 4q3 3 5 4q-4 -2 8 2q1 0 3.5 0.5t5.5 0.5q2 0 4.5 -0.5t4.5 -0.5q12 -4 8 -2l3 -2q1 -2 3 -2q1 -1 1 -4v-44v-4v-1v0v-1v-1v-4v-2h-1h-1h-1v0q-1 0 -1 1t-1 2v43v4h-6h-2h-7v0h-1h-1zM816 213v-7v0h-1h-1h-1h-1h-1h-1h-1v1h-1v1v1v24v0v1v1l1 1v0l1 1h1
h1v0h1h1v-1q2 0 2 -1v-22zM1276 206q-7 0 -7 -7q0 -6 7 -6t7 6q0 7 -7 7zM665 1330l-4 -1v-4v-112v-4h4l11 2l5 1v4v113v4l-5 -1zM672 1323v-104h-3v103zM703 1328l4 1l25 -72l7 -22h1v25v75l2 1v-104l-3 -1l-25 72l-8 22h-1v-25v-75h-2v103zM694 1219v-5l4 1l12 2l4 1v4v52
l17 -50l1 -3l3 1l12 2l4 1v4v112v5l-4 -1l-11 -2l-5 -1v-4v-52l-17 50l-1 3l-3 -1l-12 -2l-4 -1v-4v-112zM790 1353q-12 -4 -19 -12q-8 -10 -8 -20v-67q0 -10 8 -18q8 -6 19 -4q10 1 19 11q8 9 8 21v39v4l-4 -1l-20 -3l-5 -1v-4v-12v-4l5 1l4 1v-24q0 -3 -2 -5q-2 -3 -5 -3
t-5 1q-2 2 -2 4v68q0 1 2 5q3 3 5 3q4 0 5 -1q2 -2 2 -5v-5v-4l5 1l11 2l4 1v4v5q0 10 -8 17q-7 6 -19 5zM790 1344q8 1 13 -3t5 -12l-2 -1v1q0 6 -5 10q-3 3 -11 3q-8 -2 -11 -7q-4 -6 -4 -12v-67q0 -8 4 -10q4 -5 11 -3q6 1 11 7q5 5 5 12v28v4l-4 -1l-5 -1v3l11 2v-35
q0 -9 -5 -14q-6 -7 -13 -7q-8 -2 -12 3q-6 3 -6 11v68q0 6 6 14q4 5 12 7zM831 1360l-4 -1v-4v-112v-4h4l38 7l5 1v5v11v4l-5 -1l-22 -4v97v4l-4 -1zM838 1353v-97v-4l5 1l22 4v-3l-29 -5v103zM913 1375q-11 -2 -18 -11q-8 -8 -8 -21v-67q0 -12 8 -17q6 -7 18 -5q11 2 19 12
q8 8 8 20v67q0 12 -8 18q-9 6 -19 4zM913 1367q8 0 13 -3q6 -5 6 -12v-67q0 -8 -6 -14q-4 -7 -13 -8q-8 -2 -12 3q-6 4 -6 12v67q0 8 6 14q4 6 12 8zM913 1364q-8 -2 -10 -7q-5 -4 -5 -11v-68q0 -7 5 -10q3 -3 10 -3q5 1 11 7q5 5 5 12v67q0 7 -5 11q-5 3 -11 2zM913 1355
q2 1 5 -1q2 -1 2 -4v-68q0 -3 -2 -5q-2 -3 -5 -3t-4 1q-2 2 -2 5v67q0 4 2 5q1 3 4 3zM959 1271v46v26v32l7 1l7 1q7 1 14 -3q6 -5 6 -14v-22q0 -6 -3 -12q-1 -2 -9 -10l-4 -2l1 -4l14 -33h-3l-14 34l-1 2h-3l-5 -1l-5 -1v-4v-35zM966 1264l4 1v4v30l12 -29l1 -3l3 1l12 2
l7 1l-3 5l-14 35q5 4 9 11q5 7 5 17v23q0 11 -9 19q-8 8 -20 5l-7 -1l-12 -2l-4 -1v-5v-36v-25v-51v-4l4 1zM961 1318v-4h5l7 2q6 0 13 7q5 8 5 14v23q0 7 -5 12q-6 4 -13 3l-7 -1l-5 -1v-5v-50zM970 1366h3q2 1 7 -1q2 -4 2 -7v-22q0 -2 -2 -8q-1 -1 -7 -4h-3v42z
M1018 1394l-5 -1v-4v-112v-5l5 1l11 2l4 1v5v112v4l-4 -1zM1025 1387v-104h-3v103zM1074 1405q-12 -3 -19 -12q-8 -8 -8 -20v-68q0 -12 8 -17q6 -7 19 -5q9 2 19 12q7 8 7 20v67q0 12 -7 18q-10 6 -19 5zM1074 1396q7 1 12 -3q6 -5 6 -12v-67q0 -8 -6 -14q-5 -7 -12 -8
q-9 -2 -13 3q-5 3 -5 12v67q0 9 5 14q4 6 13 8zM1074 1393q-7 -2 -11 -6q-5 -7 -5 -12v-68q0 -5 5 -10q4 -4 11 -2q5 0 11 6q4 5 4 12v67q0 7 -4 11q-6 3 -11 2zM1074 1384q2 1 4 -1q3 -2 3 -4v-67q0 -3 -3 -6l-2 -2l-2 -1q-4 0 -5 2q-2 1 -2 4v67q0 4 2 6t5 2zM1164 1416v5
l-5 -1l-11 -2l-4 -1v-4v-90q0 -3 -2 -5q-3 -3 -5 -3q-3 0 -5 1q-2 2 -2 5v89v5l-4 -1l-11 -2l-5 -1v-4v-90q0 -10 8 -18q6 -6 19 -4q11 1 19 11q8 11 8 21v89zM1155 1325q0 -6 -5 -14q-6 -6 -13 -7q-8 -2 -13 3q-5 3 -5 12v85h2v-85q0 -7 5 -10q4 -5 11 -3q7 1 11 7
q5 5 5 12v85h2v-85zM1199 1315q-8 -2 -12 3q-5 5 -5 12v4h3v-3q0 -7 3 -11q3 -3 11 -3q4 1 10 8q2 6 2 10v17q0 4 -3 7q-2 2 -4 3q-2 2 -3 2q-12 6 -15 10q-4 4 -4 7v16q0 7 5 14t12 7q6 1 10 -2q4 -4 4 -13v-4h-2v4q0 5 -2 9q-5 5 -10 4q-7 -2 -11 -7q-3 -5 -3 -11v-17
q0 -5 4 -7t5 -3q4 -2 5 -3q8 -4 11 -7q3 -5 3 -9v-16q0 -10 -4 -15q-3 -5 -10 -6zM1216 1317q6 9 6 20v17q0 6 -5 13q-4 4 -14 10l-8 4q-1 0 -1 1l-1 1v16q0 2 2 6q2 2 4 2h1h1q1 -2 1 -6v-8v-5l5 1l11 2l4 1v4v9q0 10 -6 18q-7 5 -17 4q-12 -2 -18 -11q-7 -9 -7 -20v-17
q0 -6 6 -12q4 -5 16 -11q4 -2 5 -3t1 -3v-16q0 -5 -1 -6q0 -2 -2 -2q-3 0 -4 1q-2 2 -2 5v8v5l-4 -1l-11 -2l-4 -1v-4v-8q0 -13 7 -18q6 -7 18 -5q8 1 17 11z" />
    <glyph glyph-name="copyright" unicode="&#xa9;" horiz-adv-x="1750" 
d="M146 495v-43l1488 298v43zM136 1035v-43l1488 298v42zM177 906l11 2l47 -185l14 -51l13 57l47 204l12 3v-327l-8 -1v306l-57 -245l-8 -32l-7 29l-56 222v-306l-8 -2v326zM149 561v-14l14 3l35 7l14 3v14v90l5 -19l3 -11l6 -26l45 9l7 29l2 11l5 22v-90v-14l14 3l35 7
l14 2v14v354v14l-14 -3l-36 -7l-10 -3l-3 -11l-37 -158l-36 143l-3 10l-11 -2l-35 -7l-14 -3v-14v-353zM543 758l-28 139l-13 60l-6 -1l-12 -66l-29 -150l-7 -37l-1 -1l33 7l38 7l32 7v1zM552 715l-32 -6l-42 -9l-32 -6l-12 -62l-8 -1l64 339l18 4l64 -314l-9 -1zM499 809
l-13 -67zM525 683l9 -46l3 -11l13 3l41 8l19 4l-3 15l-70 340l-2 11l-14 -3l-44 -9l-14 -3l-2 -12l-70 -368l-3 -16l19 3l41 9l13 3l2 11l10 50zM514 740l-30 -6l15 77zM662 679v145v80v101l22 4l22 5q26 5 46 -10q20 -16 20 -42v-71q0 -21 -12 -39q-10 -19 -29 -31l-13 -7
l5 -12l43 -102l-8 -2l-45 106l-3 8l-10 -1l-16 -4l-14 -3v-13v-111zM684 656l13 3v13v94l39 -91l3 -8l9 2l38 8l20 4l-7 17l-46 109q19 15 30 34q16 26 16 55v71q0 39 -27 60q-29 22 -66 14l-22 -4l-36 -7l-14 -3v-14v-115v-79v-159v-14l14 3zM670 826v-14l14 3l22 5
q23 4 41 25q17 21 17 44v71q0 23 -17 37q-18 13 -41 9l-22 -5l-14 -2v-14v-159zM697 977l9 2q13 1 21 -5q9 -8 9 -20v-70q0 -12 -9 -24q-9 -10 -21 -13l-9 -2v132zM914 730q-24 -5 -37 8q-15 13 -15 38v13l8 2v-13q0 -23 11 -32q12 -13 33 -8q20 4 31 23q7 14 7 34v53
q0 11 -9 22q-7 7 -11 9q-5 3 -11 7q-33 14 -47 28q-12 12 -12 22v53q0 24 15 44q13 18 37 23q19 4 33 -8q13 -12 13 -39v-13l-8 -2v13q0 19 -7 31q-11 14 -31 10q-21 -3 -33 -21q-11 -16 -11 -37v-53q0 -11 14 -22q20 -12 16 -10l14 -7q23 -9 36 -23q10 -12 10 -25v-54
q0 -28 -13 -45q-14 -17 -33 -21zM967 738q21 27 21 64v53q0 22 -17 41q-13 14 -42 29q-14 4 -26 14l-6 4v53q0 9 5 18q6 6 12 7q4 1 8 -2q3 -6 3 -18v-26v-14l14 3l35 7l14 3v14v26q0 36 -21 57q-20 19 -53 13q-35 -8 -57 -36q-23 -31 -23 -65v-53q0 -20 20 -38
q19 -18 51 -32q13 -8 16 -11q4 -6 4 -7v-53q0 -12 -3 -18q-3 -5 -8 -6q-8 -2 -12 3q-5 5 -5 16v26v14l-14 -3l-35 -7l-14 -3v-14v-26q0 -35 23 -56q22 -20 57 -13q33 7 53 36zM1050 1084l13 2l78 -223l24 -70l2 1v78v236l8 1v-326l-13 -3l-77 225l-24 69h-3v-79v-236l-8 -1
v326zM1023 739v-14l13 2l36 8l13 2v14v163l55 -156l3 -9l10 2l36 8l14 2v14v354v14l-14 -3l-36 -7l-13 -3v-14v-163l-54 156l-3 9l-10 -2l-37 -7l-13 -3v-14v-353zM1255 1153l123 25l14 3v-14v-35v-14l-14 -3l-74 -15v-96l38 8l14 3v-14v-36v-13l-14 -3l-38 -8v-96l74 15
l14 3v-14v-35v-14l-14 -3l-123 -25l-14 -3v14v354v14zM1364 1148l-95 -20v-326l95 20v8l-74 -16l-13 -2v14v123v14l13 3l39 8v8l-39 -8l-13 -3v13v125v13l13 3l74 15v8zM1490 1070l-6 34l-11 66l-8 -2l56 -314l15 3l56 337l-8 -1l-12 -71l-5 -36l-25 -149l-12 -70l-4 -1
l-11 65zM1511 1114l6 -34l11 -62l11 67l7 36l13 83l2 11l12 3l35 7l16 3l-3 -17l-60 -365l-2 -12l-12 -3l-38 -7l-11 -3l-2 11l-61 342l-2 15l16 4l35 7l12 2l2 -11zM81 1693h1612v-1612h-1612v1612zM357 235q3 0 5 -2q3 -3 3 -5v-25v-9v-3h2h9h5h3v3v9v3h-3h-2v22q0 3 2 5
q4 2 6 2q3 0 5 -2t2 -5v-25v-9v-3h3h9h5h3v3v9v3h-3h-2v22q0 8 -7 15q-6 6 -15 6q-7 0 -10 -2q-4 -2 -5 -3q-2 0 -3.5 1t-2.5 2q-3 2 -9 2q-4 0 -6 -1h-1h-1v1h-3h-8h-6h-2v-2v-9v-3h2h3v-7v-34v-3h3h8h3v3v34q0 1 2 5q4 2 6 2zM445 249q-8 0 -11 -2q-6 -2 -9 -6
q-5 -5 -6 -9q-3 -6 -3 -12q0 -5 3 -11q1 -5 6 -9q7 -9 20 -9q5 0 10 3q3 0 5 2v-2v-3h3h8h6h2v3v9v3h-2h-3v14v27v2h-3h-8h-3v-2v-2q-4 2 -5 2q-3 2 -10 2zM460 220q0 -6 -4 -10t-11 -4q-6 0 -10 4q-5 5 -5 10q0 6 5 11q4 4 10 4q7 0 11 -4t4 -11v0zM490 249h-5h-3v-2v-9v-3
h3h2v-15v-14h-2h-3v-3v-9v-3h3h5h9h3v3v9v17q0 7 4 11t10 4h3v3v9v2h-3q-7 0 -10 -2q-2 0 -4 -2v2v2h-3h-9zM524 194v-3h3h8h3v2h1q1 0 1 -1q2 0 3.5 -0.5t3.5 -0.5q9 0 17 6q7 4 7 13q0 6 -6 11q-6 3 -16 7h-2h-2q-1 0 -2.5 0.5t-1.5 1.5q-2 0 -2 1h-1q0 1 2 3q2 1 7 1
t7 -1q1 -1 2 -1l1 -1v-2h2h9h3v3v14v2h-3h-9h-2v-1q-2 0 -3 1h-3h-4q-10 0 -16 -5q-7 -5 -7 -13q0 -7 6 -11q6 -6 17 -7q2 0 4 -1q3 0 4 -1q0 -1 1 -1h1q0 -1 -2 -3q-2 -1 -8 -1q-4 0 -6 1q-3 1 -3 2l-1 2h-2h-7h-1h-3v-3v-14zM583 249h-5h-3v-2v-9v-3h3h2v-12v-3v-26v-3h3
h9h3v3v26v3q0 4 3 9q3 3 9 3q5 0 8 -3q4 -4 4 -9v-3v-17v-9v-3h3h8h6h2v3v9v3h-2h-3v14v3q0 12 -8 19q-7 7 -18 7q-6 0 -9 -1q-1 -1 -2 -1l-1 -1v1v2h-3h-9zM677 233q1 0 3 -2l-25 -9q1 6 4 9q4 4 11 4q5 0 7 -2zM697 222l2 1l-1 2q-2 11 -9 17q-9 7 -19 7q-8 0 -11 -2
q-6 -2 -10 -6q-2 -3 -3.5 -5t-2.5 -4q-2 -8 -2 -12q0 -3 2 -11q1 -3 2.5 -5t3.5 -4q9 -9 21 -9q6 0 14 4q6 4 11 11l2 2l-4 2l-8 3h-2l-1 -1l-5 -5q-3 -1 -7 -1q-5 0 -7 1q-1 0 -2 0.5t-1 1.5l28 10zM706 249h-2h-3v-2v-9v-3h3h4l17 -42l1 -2h2h9h2l1 2l21 53l1 3h-4h-9h-2
l-1 -1l-14 -35l-14 35l-1 1h-2h-9zM892 238q5 0 8 -3t3 -7v-25v-9h9h5v9h-5v25q0 4 3 7t7 3t7 -3t3 -7v-25v-9h9h6v9h-6v25q0 6 -5 13q-6 6 -14 6t-15 -7q-7 7 -15 7q-6 0 -10 -3v3h-9h-5v-9h5v-10v-34h9v34q0 4 3 7t7 3zM976 247q-11 0 -19 -8t-8 -19q0 -10 8 -18t19 -8
q10 0 17 7v-7h9h5v9h-5v17v27h-9v-7q-7 7 -17 7zM993 220q0 -6 -5 -12q-5 -5 -12 -5t-13 5q-5 6 -5 12t5 13q6 5 13 5t12 -5q5 -7 5 -13zM1016 247h-5v-9h5v-18v-17h-5v-9h5h9v9v17q0 6 5 13q5 5 12 5v9q-10 0 -17 -7v7h-9zM1047 194h9v3q6 -3 12 -3q8 0 15 5q6 4 6 11
q0 5 -6 10q-6 3 -14 5q-2 0 -8 2q-5 1 -5 4t3 5q6 2 9 2q4 0 8 -2t4 -3h8h1v14h-9v-3q-6 3 -12 3q-9 0 -15 -5t-6 -11t6 -10q7 -4 15 -5q2 0 8 -2q4 -2 4 -4q0 -4 -3 -5q-6 -2 -9 -2t-4.5 0.5t-3.5 0.5l-4 4h-8h-1v-14zM1099 247h-5v-9h5v-15v-3v-26h9v26v3q0 6 4 10
q5 5 11 5q7 0 11 -5q4 -4 4 -10v-3v-17v-9h9h5v9h-5v17v3q0 8 -7 17q-9 7 -17 7q-9 0 -15 -6v6h-9zM1182 238q4 0 8 -2q4 -3 6 -6l-32 -12v1v1q0 6 5 13q6 5 13 5zM1199 222l9 3q-2 9 -9 15q-7 7 -17 7q-11 0 -19 -8t-8 -19q0 -10 8 -18t19 -8q7 0 13 4q6 3 9 9l-8 3
q-6 -7 -14 -7q-10 0 -14 7zM1212 247h-2v-9h6l18 -44h9l21 53h-9l-17 -41l-16 41h-10zM1319 247q-11 0 -19 -8q-7 -7 -7 -19q0 -11 7 -18q8 -8 19 -8q6 0 11 3q5 1 9 7l-8 4q-5 -5 -12 -5t-12 5t-5 12q0 8 5 13t12 5t12 -5h9v14h-9v-3q-5 3 -12 3zM1370 247q-10 0 -18 -8
t-8 -19q0 -10 8 -18t18 -8q11 0 19 8t8 18q0 11 -8 19t-19 8zM1358 233q6 5 12 5t13 -5q5 -7 5 -13t-5 -12q-7 -5 -13 -5t-12 5q-5 6 -5 12t5 13zM1423 238q5 0 8 -3t3 -7v-25v-9h9h5v9h-5v25q0 4 3 7t7 3q5 0 8 -3t3 -7v-25v-9h8h6v9h-6v25q0 6 -5 13q-6 6 -14 6t-15 -7
q-7 7 -15 7q-6 0 -10 -3v3h-9h-5v-9h5v-10v-34h9v34q0 4 3 7t7 3zM814 246h-1h-1q-5 0 -7 -1q-3 0 -7 -2q-3 -2 -4 -4q-1 -1 -1 -4v-28q0 -3 1 -4q1 -3 4 -4q4 -2 7 -2q2 -1 7 -1h1h1h1h1v0v-1q0 -1 0.5 -2t2.5 -2q0 -1 1.5 -2t2.5 -1q8 -2 13 -2q6 0 12 4q2 1 4 5v0
q1 2 1 5v1v3v0v2v7v38q0 4 -3 9q-3 3 -9 7q-8 4 -13 5t-16 1t-16 -1t-13 -5q-7 -4 -9 -7q-3 -5 -3 -9v-63q0 -5 3 -9q2 -4 9 -7q8 -4 13 -5q10 -2 16 -2h2h3q1 0 2 0.5t3 0.5t3 1h1h2l4 1v3v1v6l-9 -2h-1h-1q-1 0 -2 -0.5t-2 -0.5h-3h-2q-7 0 -9 1q-4 0 -8 2q-4 1 -5 4
q-2 1 -2 3v68q0 3 2 4q3 3 5 4q-4 -2 8 2q1 0 3.5 0.5t5.5 0.5q2 0 4.5 -0.5t4.5 -0.5q12 -4 8 -2l3 -2q1 -2 3 -2q1 -1 1 -4v-44v-4v-1v0v-1v-1v-4v-2h-1h-1h-1v0q-1 0 -1 1t-1 2v43v4h-6h-2h-7v0h-1h-1zM816 213v-7v0h-1h-1h-1h-1h-1h-1h-1v1h-1v1v1v24v0v1v1l1 1v0l1 1h1
h1v0h1h1v-1q2 0 2 -1v-22zM1276 206q-7 0 -7 -7q0 -6 7 -6t7 6q0 7 -7 7zM665 1330l-4 -1v-4v-112v-4h4l11 2l5 1v4v113v4l-5 -1zM672 1323v-104h-3v103zM703 1328l4 1l25 -72l7 -22h1v25v75l2 1v-104l-3 -1l-25 72l-8 22h-1v-25v-75h-2v103zM694 1219v-5l4 1l12 2l4 1v4v52
l17 -50l1 -3l3 1l12 2l4 1v4v112v5l-4 -1l-11 -2l-5 -1v-4v-52l-17 50l-1 3l-3 -1l-12 -2l-4 -1v-4v-112zM790 1353q-12 -4 -19 -12q-8 -10 -8 -20v-67q0 -10 8 -18q8 -6 19 -4q10 1 19 11q8 9 8 21v39v4l-4 -1l-20 -3l-5 -1v-4v-12v-4l5 1l4 1v-24q0 -3 -2 -5q-2 -3 -5 -3
t-5 1q-2 2 -2 4v68q0 1 2 5q3 3 5 3q4 0 5 -1q2 -2 2 -5v-5v-4l5 1l11 2l4 1v4v5q0 10 -8 17q-7 6 -19 5zM790 1344q8 1 13 -3t5 -12l-2 -1v1q0 6 -5 10q-3 3 -11 3q-8 -2 -11 -7q-4 -6 -4 -12v-67q0 -8 4 -10q4 -5 11 -3q6 1 11 7q5 5 5 12v28v4l-4 -1l-5 -1v3l11 2v-35
q0 -9 -5 -14q-6 -7 -13 -7q-8 -2 -12 3q-6 3 -6 11v68q0 6 6 14q4 5 12 7zM831 1360l-4 -1v-4v-112v-4h4l38 7l5 1v5v11v4l-5 -1l-22 -4v97v4l-4 -1zM838 1353v-97v-4l5 1l22 4v-3l-29 -5v103zM913 1375q-11 -2 -18 -11q-8 -8 -8 -21v-67q0 -12 8 -17q6 -7 18 -5q11 2 19 12
q8 8 8 20v67q0 12 -8 18q-9 6 -19 4zM913 1367q8 0 13 -3q6 -5 6 -12v-67q0 -8 -6 -14q-4 -7 -13 -8q-8 -2 -12 3q-6 4 -6 12v67q0 8 6 14q4 6 12 8zM913 1364q-8 -2 -10 -7q-5 -4 -5 -11v-68q0 -7 5 -10q3 -3 10 -3q5 1 11 7q5 5 5 12v67q0 7 -5 11q-5 3 -11 2zM913 1355
q2 1 5 -1q2 -1 2 -4v-68q0 -3 -2 -5q-2 -3 -5 -3t-4 1q-2 2 -2 5v67q0 4 2 5q1 3 4 3zM959 1271v46v26v32l7 1l7 1q7 1 14 -3q6 -5 6 -14v-22q0 -6 -3 -12q-1 -2 -9 -10l-4 -2l1 -4l14 -33h-3l-14 34l-1 2h-3l-5 -1l-5 -1v-4v-35zM966 1264l4 1v4v30l12 -29l1 -3l3 1l12 2
l7 1l-3 5l-14 35q5 4 9 11q5 7 5 17v23q0 11 -9 19q-8 8 -20 5l-7 -1l-12 -2l-4 -1v-5v-36v-25v-51v-4l4 1zM961 1318v-4h5l7 2q6 0 13 7q5 8 5 14v23q0 7 -5 12q-6 4 -13 3l-7 -1l-5 -1v-5v-50zM970 1366h3q2 1 7 -1q2 -4 2 -7v-22q0 -2 -2 -8q-1 -1 -7 -4h-3v42z
M1018 1394l-5 -1v-4v-112v-5l5 1l11 2l4 1v5v112v4l-4 -1zM1025 1387v-104h-3v103zM1074 1405q-12 -3 -19 -12q-8 -8 -8 -20v-68q0 -12 8 -17q6 -7 19 -5q9 2 19 12q7 8 7 20v67q0 12 -7 18q-10 6 -19 5zM1074 1396q7 1 12 -3q6 -5 6 -12v-67q0 -8 -6 -14q-5 -7 -12 -8
q-9 -2 -13 3q-5 3 -5 12v67q0 9 5 14q4 6 13 8zM1074 1393q-7 -2 -11 -6q-5 -7 -5 -12v-68q0 -5 5 -10q4 -4 11 -2q5 0 11 6q4 5 4 12v67q0 7 -4 11q-6 3 -11 2zM1074 1384q2 1 4 -1q3 -2 3 -4v-67q0 -3 -3 -6l-2 -2l-2 -1q-4 0 -5 2q-2 1 -2 4v67q0 4 2 6t5 2zM1164 1416v5
l-5 -1l-11 -2l-4 -1v-4v-90q0 -3 -2 -5q-3 -3 -5 -3q-3 0 -5 1q-2 2 -2 5v89v5l-4 -1l-11 -2l-5 -1v-4v-90q0 -10 8 -18q6 -6 19 -4q11 1 19 11q8 11 8 21v89zM1155 1325q0 -6 -5 -14q-6 -6 -13 -7q-8 -2 -13 3q-5 3 -5 12v85h2v-85q0 -7 5 -10q4 -5 11 -3q7 1 11 7
q5 5 5 12v85h2v-85zM1199 1315q-8 -2 -12 3q-5 5 -5 12v4h3v-3q0 -7 3 -11q3 -3 11 -3q4 1 10 8q2 6 2 10v17q0 4 -3 7q-2 2 -4 3q-2 2 -3 2q-12 6 -15 10q-4 4 -4 7v16q0 7 5 14t12 7q6 1 10 -2q4 -4 4 -13v-4h-2v4q0 5 -2 9q-5 5 -10 4q-7 -2 -11 -7q-3 -5 -3 -11v-17
q0 -5 4 -7t5 -3q4 -2 5 -3q8 -4 11 -7q3 -5 3 -9v-16q0 -10 -4 -15q-3 -5 -10 -6zM1216 1317q6 9 6 20v17q0 6 -5 13q-4 4 -14 10l-8 4q-1 0 -1 1l-1 1v16q0 2 2 6q2 2 4 2h1h1q1 -2 1 -6v-8v-5l5 1l11 2l4 1v4v9q0 10 -6 18q-7 5 -17 4q-12 -2 -18 -11q-7 -9 -7 -20v-17
q0 -6 6 -12q4 -5 16 -11q4 -2 5 -3t1 -3v-16q0 -5 -1 -6q0 -2 -2 -2q-3 0 -4 1q-2 2 -2 5v8v5l-4 -1l-11 -2l-4 -1v-4v-8q0 -13 7 -18q6 -7 18 -5q8 1 17 11z" />
    <glyph glyph-name="registered" unicode="&#xae;" horiz-adv-x="1750" 
d="M146 495v-43l1488 298v43zM136 1035v-43l1488 298v42zM177 906l11 2l47 -185l14 -51l13 57l47 204l12 3v-327l-8 -1v306l-57 -245l-8 -32l-7 29l-56 222v-306l-8 -2v326zM149 561v-14l14 3l35 7l14 3v14v90l5 -19l3 -11l6 -26l45 9l7 29l2 11l5 22v-90v-14l14 3l35 7
l14 2v14v354v14l-14 -3l-36 -7l-10 -3l-3 -11l-37 -158l-36 143l-3 10l-11 -2l-35 -7l-14 -3v-14v-353zM543 758l-28 139l-13 60l-6 -1l-12 -66l-29 -150l-7 -37l-1 -1l33 7l38 7l32 7v1zM552 715l-32 -6l-42 -9l-32 -6l-12 -62l-8 -1l64 339l18 4l64 -314l-9 -1zM499 809
l-13 -67zM525 683l9 -46l3 -11l13 3l41 8l19 4l-3 15l-70 340l-2 11l-14 -3l-44 -9l-14 -3l-2 -12l-70 -368l-3 -16l19 3l41 9l13 3l2 11l10 50zM514 740l-30 -6l15 77zM662 679v145v80v101l22 4l22 5q26 5 46 -10q20 -16 20 -42v-71q0 -21 -12 -39q-10 -19 -29 -31l-13 -7
l5 -12l43 -102l-8 -2l-45 106l-3 8l-10 -1l-16 -4l-14 -3v-13v-111zM684 656l13 3v13v94l39 -91l3 -8l9 2l38 8l20 4l-7 17l-46 109q19 15 30 34q16 26 16 55v71q0 39 -27 60q-29 22 -66 14l-22 -4l-36 -7l-14 -3v-14v-115v-79v-159v-14l14 3zM670 826v-14l14 3l22 5
q23 4 41 25q17 21 17 44v71q0 23 -17 37q-18 13 -41 9l-22 -5l-14 -2v-14v-159zM697 977l9 2q13 1 21 -5q9 -8 9 -20v-70q0 -12 -9 -24q-9 -10 -21 -13l-9 -2v132zM914 730q-24 -5 -37 8q-15 13 -15 38v13l8 2v-13q0 -23 11 -32q12 -13 33 -8q20 4 31 23q7 14 7 34v53
q0 11 -9 22q-7 7 -11 9q-5 3 -11 7q-33 14 -47 28q-12 12 -12 22v53q0 24 15 44q13 18 37 23q19 4 33 -8q13 -12 13 -39v-13l-8 -2v13q0 19 -7 31q-11 14 -31 10q-21 -3 -33 -21q-11 -16 -11 -37v-53q0 -11 14 -22q20 -12 16 -10l14 -7q23 -9 36 -23q10 -12 10 -25v-54
q0 -28 -13 -45q-14 -17 -33 -21zM967 738q21 27 21 64v53q0 22 -17 41q-13 14 -42 29q-14 4 -26 14l-6 4v53q0 9 5 18q6 6 12 7q4 1 8 -2q3 -6 3 -18v-26v-14l14 3l35 7l14 3v14v26q0 36 -21 57q-20 19 -53 13q-35 -8 -57 -36q-23 -31 -23 -65v-53q0 -20 20 -38
q19 -18 51 -32q13 -8 16 -11q4 -6 4 -7v-53q0 -12 -3 -18q-3 -5 -8 -6q-8 -2 -12 3q-5 5 -5 16v26v14l-14 -3l-35 -7l-14 -3v-14v-26q0 -35 23 -56q22 -20 57 -13q33 7 53 36zM1050 1084l13 2l78 -223l24 -70l2 1v78v236l8 1v-326l-13 -3l-77 225l-24 69h-3v-79v-236l-8 -1
v326zM1023 739v-14l13 2l36 8l13 2v14v163l55 -156l3 -9l10 2l36 8l14 2v14v354v14l-14 -3l-36 -7l-13 -3v-14v-163l-54 156l-3 9l-10 -2l-37 -7l-13 -3v-14v-353zM1255 1153l123 25l14 3v-14v-35v-14l-14 -3l-74 -15v-96l38 8l14 3v-14v-36v-13l-14 -3l-38 -8v-96l74 15
l14 3v-14v-35v-14l-14 -3l-123 -25l-14 -3v14v354v14zM1364 1148l-95 -20v-326l95 20v8l-74 -16l-13 -2v14v123v14l13 3l39 8v8l-39 -8l-13 -3v13v125v13l13 3l74 15v8zM1490 1070l-6 34l-11 66l-8 -2l56 -314l15 3l56 337l-8 -1l-12 -71l-5 -36l-25 -149l-12 -70l-4 -1
l-11 65zM1511 1114l6 -34l11 -62l11 67l7 36l13 83l2 11l12 3l35 7l16 3l-3 -17l-60 -365l-2 -12l-12 -3l-38 -7l-11 -3l-2 11l-61 342l-2 15l16 4l35 7l12 2l2 -11zM81 1693h1612v-1612h-1612v1612zM357 235q3 0 5 -2q3 -3 3 -5v-25v-9v-3h2h9h5h3v3v9v3h-3h-2v22q0 3 2 5
q4 2 6 2q3 0 5 -2t2 -5v-25v-9v-3h3h9h5h3v3v9v3h-3h-2v22q0 8 -7 15q-6 6 -15 6q-7 0 -10 -2q-4 -2 -5 -3q-2 0 -3.5 1t-2.5 2q-3 2 -9 2q-4 0 -6 -1h-1h-1v1h-3h-8h-6h-2v-2v-9v-3h2h3v-7v-34v-3h3h8h3v3v34q0 1 2 5q4 2 6 2zM445 249q-8 0 -11 -2q-6 -2 -9 -6
q-5 -5 -6 -9q-3 -6 -3 -12q0 -5 3 -11q1 -5 6 -9q7 -9 20 -9q5 0 10 3q3 0 5 2v-2v-3h3h8h6h2v3v9v3h-2h-3v14v27v2h-3h-8h-3v-2v-2q-4 2 -5 2q-3 2 -10 2zM460 220q0 -6 -4 -10t-11 -4q-6 0 -10 4q-5 5 -5 10q0 6 5 11q4 4 10 4q7 0 11 -4t4 -11v0zM490 249h-5h-3v-2v-9v-3
h3h2v-15v-14h-2h-3v-3v-9v-3h3h5h9h3v3v9v17q0 7 4 11t10 4h3v3v9v2h-3q-7 0 -10 -2q-2 0 -4 -2v2v2h-3h-9zM524 194v-3h3h8h3v2h1q1 0 1 -1q2 0 3.5 -0.5t3.5 -0.5q9 0 17 6q7 4 7 13q0 6 -6 11q-6 3 -16 7h-2h-2q-1 0 -2.5 0.5t-1.5 1.5q-2 0 -2 1h-1q0 1 2 3q2 1 7 1
t7 -1q1 -1 2 -1l1 -1v-2h2h9h3v3v14v2h-3h-9h-2v-1q-2 0 -3 1h-3h-4q-10 0 -16 -5q-7 -5 -7 -13q0 -7 6 -11q6 -6 17 -7q2 0 4 -1q3 0 4 -1q0 -1 1 -1h1q0 -1 -2 -3q-2 -1 -8 -1q-4 0 -6 1q-3 1 -3 2l-1 2h-2h-7h-1h-3v-3v-14zM583 249h-5h-3v-2v-9v-3h3h2v-12v-3v-26v-3h3
h9h3v3v26v3q0 4 3 9q3 3 9 3q5 0 8 -3q4 -4 4 -9v-3v-17v-9v-3h3h8h6h2v3v9v3h-2h-3v14v3q0 12 -8 19q-7 7 -18 7q-6 0 -9 -1q-1 -1 -2 -1l-1 -1v1v2h-3h-9zM677 233q1 0 3 -2l-25 -9q1 6 4 9q4 4 11 4q5 0 7 -2zM697 222l2 1l-1 2q-2 11 -9 17q-9 7 -19 7q-8 0 -11 -2
q-6 -2 -10 -6q-2 -3 -3.5 -5t-2.5 -4q-2 -8 -2 -12q0 -3 2 -11q1 -3 2.5 -5t3.5 -4q9 -9 21 -9q6 0 14 4q6 4 11 11l2 2l-4 2l-8 3h-2l-1 -1l-5 -5q-3 -1 -7 -1q-5 0 -7 1q-1 0 -2 0.5t-1 1.5l28 10zM706 249h-2h-3v-2v-9v-3h3h4l17 -42l1 -2h2h9h2l1 2l21 53l1 3h-4h-9h-2
l-1 -1l-14 -35l-14 35l-1 1h-2h-9zM892 238q5 0 8 -3t3 -7v-25v-9h9h5v9h-5v25q0 4 3 7t7 3t7 -3t3 -7v-25v-9h9h6v9h-6v25q0 6 -5 13q-6 6 -14 6t-15 -7q-7 7 -15 7q-6 0 -10 -3v3h-9h-5v-9h5v-10v-34h9v34q0 4 3 7t7 3zM976 247q-11 0 -19 -8t-8 -19q0 -10 8 -18t19 -8
q10 0 17 7v-7h9h5v9h-5v17v27h-9v-7q-7 7 -17 7zM993 220q0 -6 -5 -12q-5 -5 -12 -5t-13 5q-5 6 -5 12t5 13q6 5 13 5t12 -5q5 -7 5 -13zM1016 247h-5v-9h5v-18v-17h-5v-9h5h9v9v17q0 6 5 13q5 5 12 5v9q-10 0 -17 -7v7h-9zM1047 194h9v3q6 -3 12 -3q8 0 15 5q6 4 6 11
q0 5 -6 10q-6 3 -14 5q-2 0 -8 2q-5 1 -5 4t3 5q6 2 9 2q4 0 8 -2t4 -3h8h1v14h-9v-3q-6 3 -12 3q-9 0 -15 -5t-6 -11t6 -10q7 -4 15 -5q2 0 8 -2q4 -2 4 -4q0 -4 -3 -5q-6 -2 -9 -2t-4.5 0.5t-3.5 0.5l-4 4h-8h-1v-14zM1099 247h-5v-9h5v-15v-3v-26h9v26v3q0 6 4 10
q5 5 11 5q7 0 11 -5q4 -4 4 -10v-3v-17v-9h9h5v9h-5v17v3q0 8 -7 17q-9 7 -17 7q-9 0 -15 -6v6h-9zM1182 238q4 0 8 -2q4 -3 6 -6l-32 -12v1v1q0 6 5 13q6 5 13 5zM1199 222l9 3q-2 9 -9 15q-7 7 -17 7q-11 0 -19 -8t-8 -19q0 -10 8 -18t19 -8q7 0 13 4q6 3 9 9l-8 3
q-6 -7 -14 -7q-10 0 -14 7zM1212 247h-2v-9h6l18 -44h9l21 53h-9l-17 -41l-16 41h-10zM1319 247q-11 0 -19 -8q-7 -7 -7 -19q0 -11 7 -18q8 -8 19 -8q6 0 11 3q5 1 9 7l-8 4q-5 -5 -12 -5t-12 5t-5 12q0 8 5 13t12 5t12 -5h9v14h-9v-3q-5 3 -12 3zM1370 247q-10 0 -18 -8
t-8 -19q0 -10 8 -18t18 -8q11 0 19 8t8 18q0 11 -8 19t-19 8zM1358 233q6 5 12 5t13 -5q5 -7 5 -13t-5 -12q-7 -5 -13 -5t-12 5q-5 6 -5 12t5 13zM1423 238q5 0 8 -3t3 -7v-25v-9h9h5v9h-5v25q0 4 3 7t7 3q5 0 8 -3t3 -7v-25v-9h8h6v9h-6v25q0 6 -5 13q-6 6 -14 6t-15 -7
q-7 7 -15 7q-6 0 -10 -3v3h-9h-5v-9h5v-10v-34h9v34q0 4 3 7t7 3zM814 246h-1h-1q-5 0 -7 -1q-3 0 -7 -2q-3 -2 -4 -4q-1 -1 -1 -4v-28q0 -3 1 -4q1 -3 4 -4q4 -2 7 -2q2 -1 7 -1h1h1h1h1v0v-1q0 -1 0.5 -2t2.5 -2q0 -1 1.5 -2t2.5 -1q8 -2 13 -2q6 0 12 4q2 1 4 5v0
q1 2 1 5v1v3v0v2v7v38q0 4 -3 9q-3 3 -9 7q-8 4 -13 5t-16 1t-16 -1t-13 -5q-7 -4 -9 -7q-3 -5 -3 -9v-63q0 -5 3 -9q2 -4 9 -7q8 -4 13 -5q10 -2 16 -2h2h3q1 0 2 0.5t3 0.5t3 1h1h2l4 1v3v1v6l-9 -2h-1h-1q-1 0 -2 -0.5t-2 -0.5h-3h-2q-7 0 -9 1q-4 0 -8 2q-4 1 -5 4
q-2 1 -2 3v68q0 3 2 4q3 3 5 4q-4 -2 8 2q1 0 3.5 0.5t5.5 0.5q2 0 4.5 -0.5t4.5 -0.5q12 -4 8 -2l3 -2q1 -2 3 -2q1 -1 1 -4v-44v-4v-1v0v-1v-1v-4v-2h-1h-1h-1v0q-1 0 -1 1t-1 2v43v4h-6h-2h-7v0h-1h-1zM816 213v-7v0h-1h-1h-1h-1h-1h-1h-1v1h-1v1v1v24v0v1v1l1 1v0l1 1h1
h1v0h1h1v-1q2 0 2 -1v-22zM1276 206q-7 0 -7 -7q0 -6 7 -6t7 6q0 7 -7 7zM665 1330l-4 -1v-4v-112v-4h4l11 2l5 1v4v113v4l-5 -1zM672 1323v-104h-3v103zM703 1328l4 1l25 -72l7 -22h1v25v75l2 1v-104l-3 -1l-25 72l-8 22h-1v-25v-75h-2v103zM694 1219v-5l4 1l12 2l4 1v4v52
l17 -50l1 -3l3 1l12 2l4 1v4v112v5l-4 -1l-11 -2l-5 -1v-4v-52l-17 50l-1 3l-3 -1l-12 -2l-4 -1v-4v-112zM790 1353q-12 -4 -19 -12q-8 -10 -8 -20v-67q0 -10 8 -18q8 -6 19 -4q10 1 19 11q8 9 8 21v39v4l-4 -1l-20 -3l-5 -1v-4v-12v-4l5 1l4 1v-24q0 -3 -2 -5q-2 -3 -5 -3
t-5 1q-2 2 -2 4v68q0 1 2 5q3 3 5 3q4 0 5 -1q2 -2 2 -5v-5v-4l5 1l11 2l4 1v4v5q0 10 -8 17q-7 6 -19 5zM790 1344q8 1 13 -3t5 -12l-2 -1v1q0 6 -5 10q-3 3 -11 3q-8 -2 -11 -7q-4 -6 -4 -12v-67q0 -8 4 -10q4 -5 11 -3q6 1 11 7q5 5 5 12v28v4l-4 -1l-5 -1v3l11 2v-35
q0 -9 -5 -14q-6 -7 -13 -7q-8 -2 -12 3q-6 3 -6 11v68q0 6 6 14q4 5 12 7zM831 1360l-4 -1v-4v-112v-4h4l38 7l5 1v5v11v4l-5 -1l-22 -4v97v4l-4 -1zM838 1353v-97v-4l5 1l22 4v-3l-29 -5v103zM913 1375q-11 -2 -18 -11q-8 -8 -8 -21v-67q0 -12 8 -17q6 -7 18 -5q11 2 19 12
q8 8 8 20v67q0 12 -8 18q-9 6 -19 4zM913 1367q8 0 13 -3q6 -5 6 -12v-67q0 -8 -6 -14q-4 -7 -13 -8q-8 -2 -12 3q-6 4 -6 12v67q0 8 6 14q4 6 12 8zM913 1364q-8 -2 -10 -7q-5 -4 -5 -11v-68q0 -7 5 -10q3 -3 10 -3q5 1 11 7q5 5 5 12v67q0 7 -5 11q-5 3 -11 2zM913 1355
q2 1 5 -1q2 -1 2 -4v-68q0 -3 -2 -5q-2 -3 -5 -3t-4 1q-2 2 -2 5v67q0 4 2 5q1 3 4 3zM959 1271v46v26v32l7 1l7 1q7 1 14 -3q6 -5 6 -14v-22q0 -6 -3 -12q-1 -2 -9 -10l-4 -2l1 -4l14 -33h-3l-14 34l-1 2h-3l-5 -1l-5 -1v-4v-35zM966 1264l4 1v4v30l12 -29l1 -3l3 1l12 2
l7 1l-3 5l-14 35q5 4 9 11q5 7 5 17v23q0 11 -9 19q-8 8 -20 5l-7 -1l-12 -2l-4 -1v-5v-36v-25v-51v-4l4 1zM961 1318v-4h5l7 2q6 0 13 7q5 8 5 14v23q0 7 -5 12q-6 4 -13 3l-7 -1l-5 -1v-5v-50zM970 1366h3q2 1 7 -1q2 -4 2 -7v-22q0 -2 -2 -8q-1 -1 -7 -4h-3v42z
M1018 1394l-5 -1v-4v-112v-5l5 1l11 2l4 1v5v112v4l-4 -1zM1025 1387v-104h-3v103zM1074 1405q-12 -3 -19 -12q-8 -8 -8 -20v-68q0 -12 8 -17q6 -7 19 -5q9 2 19 12q7 8 7 20v67q0 12 -7 18q-10 6 -19 5zM1074 1396q7 1 12 -3q6 -5 6 -12v-67q0 -8 -6 -14q-5 -7 -12 -8
q-9 -2 -13 3q-5 3 -5 12v67q0 9 5 14q4 6 13 8zM1074 1393q-7 -2 -11 -6q-5 -7 -5 -12v-68q0 -5 5 -10q4 -4 11 -2q5 0 11 6q4 5 4 12v67q0 7 -4 11q-6 3 -11 2zM1074 1384q2 1 4 -1q3 -2 3 -4v-67q0 -3 -3 -6l-2 -2l-2 -1q-4 0 -5 2q-2 1 -2 4v67q0 4 2 6t5 2zM1164 1416v5
l-5 -1l-11 -2l-4 -1v-4v-90q0 -3 -2 -5q-3 -3 -5 -3q-3 0 -5 1q-2 2 -2 5v89v5l-4 -1l-11 -2l-5 -1v-4v-90q0 -10 8 -18q6 -6 19 -4q11 1 19 11q8 11 8 21v89zM1155 1325q0 -6 -5 -14q-6 -6 -13 -7q-8 -2 -13 3q-5 3 -5 12v85h2v-85q0 -7 5 -10q4 -5 11 -3q7 1 11 7
q5 5 5 12v85h2v-85zM1199 1315q-8 -2 -12 3q-5 5 -5 12v4h3v-3q0 -7 3 -11q3 -3 11 -3q4 1 10 8q2 6 2 10v17q0 4 -3 7q-2 2 -4 3q-2 2 -3 2q-12 6 -15 10q-4 4 -4 7v16q0 7 5 14t12 7q6 1 10 -2q4 -4 4 -13v-4h-2v4q0 5 -2 9q-5 5 -10 4q-7 -2 -11 -7q-3 -5 -3 -11v-17
q0 -5 4 -7t5 -3q4 -2 5 -3q8 -4 11 -7q3 -5 3 -9v-16q0 -10 -4 -15q-3 -5 -10 -6zM1216 1317q6 9 6 20v17q0 6 -5 13q-4 4 -14 10l-8 4q-1 0 -1 1l-1 1v16q0 2 2 6q2 2 4 2h1h1q1 -2 1 -6v-8v-5l5 1l11 2l4 1v4v9q0 10 -6 18q-7 5 -17 4q-12 -2 -18 -11q-7 -9 -7 -20v-17
q0 -6 6 -12q4 -5 16 -11q4 -2 5 -3t1 -3v-16q0 -5 -1 -6q0 -2 -2 -2q-3 0 -4 1q-2 2 -2 5v8v5l-4 -1l-11 -2l-4 -1v-4v-8q0 -13 7 -18q6 -7 18 -5q8 1 17 11z" />
    <glyph glyph-name="acute" unicode="&#xb4;" horiz-adv-x="380" 
d="M120 1738h141h55v-63v-178l-3 -19l-47 -162l-13 -43h-40h-66h-61l6 69l8 93h-35v62v178v63h55z" />
    <glyph glyph-name="paragraph" unicode="&#xb6;" horiz-adv-x="1750" 
d="M146 495v-43l1488 298v43zM136 1035v-43l1488 298v42zM177 906l11 2l47 -185l14 -51l13 57l47 204l12 3v-327l-8 -1v306l-57 -245l-8 -32l-7 29l-56 222v-306l-8 -2v326zM149 561v-14l14 3l35 7l14 3v14v90l5 -19l3 -11l6 -26l45 9l7 29l2 11l5 22v-90v-14l14 3l35 7
l14 2v14v354v14l-14 -3l-36 -7l-10 -3l-3 -11l-37 -158l-36 143l-3 10l-11 -2l-35 -7l-14 -3v-14v-353zM543 758l-28 139l-13 60l-6 -1l-12 -66l-29 -150l-7 -37l-1 -1l33 7l38 7l32 7v1zM552 715l-32 -6l-42 -9l-32 -6l-12 -62l-8 -1l64 339l18 4l64 -314l-9 -1zM499 809
l-13 -67zM525 683l9 -46l3 -11l13 3l41 8l19 4l-3 15l-70 340l-2 11l-14 -3l-44 -9l-14 -3l-2 -12l-70 -368l-3 -16l19 3l41 9l13 3l2 11l10 50zM514 740l-30 -6l15 77zM662 679v145v80v101l22 4l22 5q26 5 46 -10q20 -16 20 -42v-71q0 -21 -12 -39q-10 -19 -29 -31l-13 -7
l5 -12l43 -102l-8 -2l-45 106l-3 8l-10 -1l-16 -4l-14 -3v-13v-111zM684 656l13 3v13v94l39 -91l3 -8l9 2l38 8l20 4l-7 17l-46 109q19 15 30 34q16 26 16 55v71q0 39 -27 60q-29 22 -66 14l-22 -4l-36 -7l-14 -3v-14v-115v-79v-159v-14l14 3zM670 826v-14l14 3l22 5
q23 4 41 25q17 21 17 44v71q0 23 -17 37q-18 13 -41 9l-22 -5l-14 -2v-14v-159zM697 977l9 2q13 1 21 -5q9 -8 9 -20v-70q0 -12 -9 -24q-9 -10 -21 -13l-9 -2v132zM914 730q-24 -5 -37 8q-15 13 -15 38v13l8 2v-13q0 -23 11 -32q12 -13 33 -8q20 4 31 23q7 14 7 34v53
q0 11 -9 22q-7 7 -11 9q-5 3 -11 7q-33 14 -47 28q-12 12 -12 22v53q0 24 15 44q13 18 37 23q19 4 33 -8q13 -12 13 -39v-13l-8 -2v13q0 19 -7 31q-11 14 -31 10q-21 -3 -33 -21q-11 -16 -11 -37v-53q0 -11 14 -22q20 -12 16 -10l14 -7q23 -9 36 -23q10 -12 10 -25v-54
q0 -28 -13 -45q-14 -17 -33 -21zM967 738q21 27 21 64v53q0 22 -17 41q-13 14 -42 29q-14 4 -26 14l-6 4v53q0 9 5 18q6 6 12 7q4 1 8 -2q3 -6 3 -18v-26v-14l14 3l35 7l14 3v14v26q0 36 -21 57q-20 19 -53 13q-35 -8 -57 -36q-23 -31 -23 -65v-53q0 -20 20 -38
q19 -18 51 -32q13 -8 16 -11q4 -6 4 -7v-53q0 -12 -3 -18q-3 -5 -8 -6q-8 -2 -12 3q-5 5 -5 16v26v14l-14 -3l-35 -7l-14 -3v-14v-26q0 -35 23 -56q22 -20 57 -13q33 7 53 36zM1050 1084l13 2l78 -223l24 -70l2 1v78v236l8 1v-326l-13 -3l-77 225l-24 69h-3v-79v-236l-8 -1
v326zM1023 739v-14l13 2l36 8l13 2v14v163l55 -156l3 -9l10 2l36 8l14 2v14v354v14l-14 -3l-36 -7l-13 -3v-14v-163l-54 156l-3 9l-10 -2l-37 -7l-13 -3v-14v-353zM1255 1153l123 25l14 3v-14v-35v-14l-14 -3l-74 -15v-96l38 8l14 3v-14v-36v-13l-14 -3l-38 -8v-96l74 15
l14 3v-14v-35v-14l-14 -3l-123 -25l-14 -3v14v354v14zM1364 1148l-95 -20v-326l95 20v8l-74 -16l-13 -2v14v123v14l13 3l39 8v8l-39 -8l-13 -3v13v125v13l13 3l74 15v8zM1490 1070l-6 34l-11 66l-8 -2l56 -314l15 3l56 337l-8 -1l-12 -71l-5 -36l-25 -149l-12 -70l-4 -1
l-11 65zM1511 1114l6 -34l11 -62l11 67l7 36l13 83l2 11l12 3l35 7l16 3l-3 -17l-60 -365l-2 -12l-12 -3l-38 -7l-11 -3l-2 11l-61 342l-2 15l16 4l35 7l12 2l2 -11zM81 1693h1612v-1612h-1612v1612zM357 235q3 0 5 -2q3 -3 3 -5v-25v-9v-3h2h9h5h3v3v9v3h-3h-2v22q0 3 2 5
q4 2 6 2q3 0 5 -2t2 -5v-25v-9v-3h3h9h5h3v3v9v3h-3h-2v22q0 8 -7 15q-6 6 -15 6q-7 0 -10 -2q-4 -2 -5 -3q-2 0 -3.5 1t-2.5 2q-3 2 -9 2q-4 0 -6 -1h-1h-1v1h-3h-8h-6h-2v-2v-9v-3h2h3v-7v-34v-3h3h8h3v3v34q0 1 2 5q4 2 6 2zM445 249q-8 0 -11 -2q-6 -2 -9 -6
q-5 -5 -6 -9q-3 -6 -3 -12q0 -5 3 -11q1 -5 6 -9q7 -9 20 -9q5 0 10 3q3 0 5 2v-2v-3h3h8h6h2v3v9v3h-2h-3v14v27v2h-3h-8h-3v-2v-2q-4 2 -5 2q-3 2 -10 2zM460 220q0 -6 -4 -10t-11 -4q-6 0 -10 4q-5 5 -5 10q0 6 5 11q4 4 10 4q7 0 11 -4t4 -11v0zM490 249h-5h-3v-2v-9v-3
h3h2v-15v-14h-2h-3v-3v-9v-3h3h5h9h3v3v9v17q0 7 4 11t10 4h3v3v9v2h-3q-7 0 -10 -2q-2 0 -4 -2v2v2h-3h-9zM524 194v-3h3h8h3v2h1q1 0 1 -1q2 0 3.5 -0.5t3.5 -0.5q9 0 17 6q7 4 7 13q0 6 -6 11q-6 3 -16 7h-2h-2q-1 0 -2.5 0.5t-1.5 1.5q-2 0 -2 1h-1q0 1 2 3q2 1 7 1
t7 -1q1 -1 2 -1l1 -1v-2h2h9h3v3v14v2h-3h-9h-2v-1q-2 0 -3 1h-3h-4q-10 0 -16 -5q-7 -5 -7 -13q0 -7 6 -11q6 -6 17 -7q2 0 4 -1q3 0 4 -1q0 -1 1 -1h1q0 -1 -2 -3q-2 -1 -8 -1q-4 0 -6 1q-3 1 -3 2l-1 2h-2h-7h-1h-3v-3v-14zM583 249h-5h-3v-2v-9v-3h3h2v-12v-3v-26v-3h3
h9h3v3v26v3q0 4 3 9q3 3 9 3q5 0 8 -3q4 -4 4 -9v-3v-17v-9v-3h3h8h6h2v3v9v3h-2h-3v14v3q0 12 -8 19q-7 7 -18 7q-6 0 -9 -1q-1 -1 -2 -1l-1 -1v1v2h-3h-9zM677 233q1 0 3 -2l-25 -9q1 6 4 9q4 4 11 4q5 0 7 -2zM697 222l2 1l-1 2q-2 11 -9 17q-9 7 -19 7q-8 0 -11 -2
q-6 -2 -10 -6q-2 -3 -3.5 -5t-2.5 -4q-2 -8 -2 -12q0 -3 2 -11q1 -3 2.5 -5t3.5 -4q9 -9 21 -9q6 0 14 4q6 4 11 11l2 2l-4 2l-8 3h-2l-1 -1l-5 -5q-3 -1 -7 -1q-5 0 -7 1q-1 0 -2 0.5t-1 1.5l28 10zM706 249h-2h-3v-2v-9v-3h3h4l17 -42l1 -2h2h9h2l1 2l21 53l1 3h-4h-9h-2
l-1 -1l-14 -35l-14 35l-1 1h-2h-9zM892 238q5 0 8 -3t3 -7v-25v-9h9h5v9h-5v25q0 4 3 7t7 3t7 -3t3 -7v-25v-9h9h6v9h-6v25q0 6 -5 13q-6 6 -14 6t-15 -7q-7 7 -15 7q-6 0 -10 -3v3h-9h-5v-9h5v-10v-34h9v34q0 4 3 7t7 3zM976 247q-11 0 -19 -8t-8 -19q0 -10 8 -18t19 -8
q10 0 17 7v-7h9h5v9h-5v17v27h-9v-7q-7 7 -17 7zM993 220q0 -6 -5 -12q-5 -5 -12 -5t-13 5q-5 6 -5 12t5 13q6 5 13 5t12 -5q5 -7 5 -13zM1016 247h-5v-9h5v-18v-17h-5v-9h5h9v9v17q0 6 5 13q5 5 12 5v9q-10 0 -17 -7v7h-9zM1047 194h9v3q6 -3 12 -3q8 0 15 5q6 4 6 11
q0 5 -6 10q-6 3 -14 5q-2 0 -8 2q-5 1 -5 4t3 5q6 2 9 2q4 0 8 -2t4 -3h8h1v14h-9v-3q-6 3 -12 3q-9 0 -15 -5t-6 -11t6 -10q7 -4 15 -5q2 0 8 -2q4 -2 4 -4q0 -4 -3 -5q-6 -2 -9 -2t-4.5 0.5t-3.5 0.5l-4 4h-8h-1v-14zM1099 247h-5v-9h5v-15v-3v-26h9v26v3q0 6 4 10
q5 5 11 5q7 0 11 -5q4 -4 4 -10v-3v-17v-9h9h5v9h-5v17v3q0 8 -7 17q-9 7 -17 7q-9 0 -15 -6v6h-9zM1182 238q4 0 8 -2q4 -3 6 -6l-32 -12v1v1q0 6 5 13q6 5 13 5zM1199 222l9 3q-2 9 -9 15q-7 7 -17 7q-11 0 -19 -8t-8 -19q0 -10 8 -18t19 -8q7 0 13 4q6 3 9 9l-8 3
q-6 -7 -14 -7q-10 0 -14 7zM1212 247h-2v-9h6l18 -44h9l21 53h-9l-17 -41l-16 41h-10zM1319 247q-11 0 -19 -8q-7 -7 -7 -19q0 -11 7 -18q8 -8 19 -8q6 0 11 3q5 1 9 7l-8 4q-5 -5 -12 -5t-12 5t-5 12q0 8 5 13t12 5t12 -5h9v14h-9v-3q-5 3 -12 3zM1370 247q-10 0 -18 -8
t-8 -19q0 -10 8 -18t18 -8q11 0 19 8t8 18q0 11 -8 19t-19 8zM1358 233q6 5 12 5t13 -5q5 -7 5 -13t-5 -12q-7 -5 -13 -5t-12 5q-5 6 -5 12t5 13zM1423 238q5 0 8 -3t3 -7v-25v-9h9h5v9h-5v25q0 4 3 7t7 3q5 0 8 -3t3 -7v-25v-9h8h6v9h-6v25q0 6 -5 13q-6 6 -14 6t-15 -7
q-7 7 -15 7q-6 0 -10 -3v3h-9h-5v-9h5v-10v-34h9v34q0 4 3 7t7 3zM814 246h-1h-1q-5 0 -7 -1q-3 0 -7 -2q-3 -2 -4 -4q-1 -1 -1 -4v-28q0 -3 1 -4q1 -3 4 -4q4 -2 7 -2q2 -1 7 -1h1h1h1h1v0v-1q0 -1 0.5 -2t2.5 -2q0 -1 1.5 -2t2.5 -1q8 -2 13 -2q6 0 12 4q2 1 4 5v0
q1 2 1 5v1v3v0v2v7v38q0 4 -3 9q-3 3 -9 7q-8 4 -13 5t-16 1t-16 -1t-13 -5q-7 -4 -9 -7q-3 -5 -3 -9v-63q0 -5 3 -9q2 -4 9 -7q8 -4 13 -5q10 -2 16 -2h2h3q1 0 2 0.5t3 0.5t3 1h1h2l4 1v3v1v6l-9 -2h-1h-1q-1 0 -2 -0.5t-2 -0.5h-3h-2q-7 0 -9 1q-4 0 -8 2q-4 1 -5 4
q-2 1 -2 3v68q0 3 2 4q3 3 5 4q-4 -2 8 2q1 0 3.5 0.5t5.5 0.5q2 0 4.5 -0.5t4.5 -0.5q12 -4 8 -2l3 -2q1 -2 3 -2q1 -1 1 -4v-44v-4v-1v0v-1v-1v-4v-2h-1h-1h-1v0q-1 0 -1 1t-1 2v43v4h-6h-2h-7v0h-1h-1zM816 213v-7v0h-1h-1h-1h-1h-1h-1h-1v1h-1v1v1v24v0v1v1l1 1v0l1 1h1
h1v0h1h1v-1q2 0 2 -1v-22zM1276 206q-7 0 -7 -7q0 -6 7 -6t7 6q0 7 -7 7zM665 1330l-4 -1v-4v-112v-4h4l11 2l5 1v4v113v4l-5 -1zM672 1323v-104h-3v103zM703 1328l4 1l25 -72l7 -22h1v25v75l2 1v-104l-3 -1l-25 72l-8 22h-1v-25v-75h-2v103zM694 1219v-5l4 1l12 2l4 1v4v52
l17 -50l1 -3l3 1l12 2l4 1v4v112v5l-4 -1l-11 -2l-5 -1v-4v-52l-17 50l-1 3l-3 -1l-12 -2l-4 -1v-4v-112zM790 1353q-12 -4 -19 -12q-8 -10 -8 -20v-67q0 -10 8 -18q8 -6 19 -4q10 1 19 11q8 9 8 21v39v4l-4 -1l-20 -3l-5 -1v-4v-12v-4l5 1l4 1v-24q0 -3 -2 -5q-2 -3 -5 -3
t-5 1q-2 2 -2 4v68q0 1 2 5q3 3 5 3q4 0 5 -1q2 -2 2 -5v-5v-4l5 1l11 2l4 1v4v5q0 10 -8 17q-7 6 -19 5zM790 1344q8 1 13 -3t5 -12l-2 -1v1q0 6 -5 10q-3 3 -11 3q-8 -2 -11 -7q-4 -6 -4 -12v-67q0 -8 4 -10q4 -5 11 -3q6 1 11 7q5 5 5 12v28v4l-4 -1l-5 -1v3l11 2v-35
q0 -9 -5 -14q-6 -7 -13 -7q-8 -2 -12 3q-6 3 -6 11v68q0 6 6 14q4 5 12 7zM831 1360l-4 -1v-4v-112v-4h4l38 7l5 1v5v11v4l-5 -1l-22 -4v97v4l-4 -1zM838 1353v-97v-4l5 1l22 4v-3l-29 -5v103zM913 1375q-11 -2 -18 -11q-8 -8 -8 -21v-67q0 -12 8 -17q6 -7 18 -5q11 2 19 12
q8 8 8 20v67q0 12 -8 18q-9 6 -19 4zM913 1367q8 0 13 -3q6 -5 6 -12v-67q0 -8 -6 -14q-4 -7 -13 -8q-8 -2 -12 3q-6 4 -6 12v67q0 8 6 14q4 6 12 8zM913 1364q-8 -2 -10 -7q-5 -4 -5 -11v-68q0 -7 5 -10q3 -3 10 -3q5 1 11 7q5 5 5 12v67q0 7 -5 11q-5 3 -11 2zM913 1355
q2 1 5 -1q2 -1 2 -4v-68q0 -3 -2 -5q-2 -3 -5 -3t-4 1q-2 2 -2 5v67q0 4 2 5q1 3 4 3zM959 1271v46v26v32l7 1l7 1q7 1 14 -3q6 -5 6 -14v-22q0 -6 -3 -12q-1 -2 -9 -10l-4 -2l1 -4l14 -33h-3l-14 34l-1 2h-3l-5 -1l-5 -1v-4v-35zM966 1264l4 1v4v30l12 -29l1 -3l3 1l12 2
l7 1l-3 5l-14 35q5 4 9 11q5 7 5 17v23q0 11 -9 19q-8 8 -20 5l-7 -1l-12 -2l-4 -1v-5v-36v-25v-51v-4l4 1zM961 1318v-4h5l7 2q6 0 13 7q5 8 5 14v23q0 7 -5 12q-6 4 -13 3l-7 -1l-5 -1v-5v-50zM970 1366h3q2 1 7 -1q2 -4 2 -7v-22q0 -2 -2 -8q-1 -1 -7 -4h-3v42z
M1018 1394l-5 -1v-4v-112v-5l5 1l11 2l4 1v5v112v4l-4 -1zM1025 1387v-104h-3v103zM1074 1405q-12 -3 -19 -12q-8 -8 -8 -20v-68q0 -12 8 -17q6 -7 19 -5q9 2 19 12q7 8 7 20v67q0 12 -7 18q-10 6 -19 5zM1074 1396q7 1 12 -3q6 -5 6 -12v-67q0 -8 -6 -14q-5 -7 -12 -8
q-9 -2 -13 3q-5 3 -5 12v67q0 9 5 14q4 6 13 8zM1074 1393q-7 -2 -11 -6q-5 -7 -5 -12v-68q0 -5 5 -10q4 -4 11 -2q5 0 11 6q4 5 4 12v67q0 7 -4 11q-6 3 -11 2zM1074 1384q2 1 4 -1q3 -2 3 -4v-67q0 -3 -3 -6l-2 -2l-2 -1q-4 0 -5 2q-2 1 -2 4v67q0 4 2 6t5 2zM1164 1416v5
l-5 -1l-11 -2l-4 -1v-4v-90q0 -3 -2 -5q-3 -3 -5 -3q-3 0 -5 1q-2 2 -2 5v89v5l-4 -1l-11 -2l-5 -1v-4v-90q0 -10 8 -18q6 -6 19 -4q11 1 19 11q8 11 8 21v89zM1155 1325q0 -6 -5 -14q-6 -6 -13 -7q-8 -2 -13 3q-5 3 -5 12v85h2v-85q0 -7 5 -10q4 -5 11 -3q7 1 11 7
q5 5 5 12v85h2v-85zM1199 1315q-8 -2 -12 3q-5 5 -5 12v4h3v-3q0 -7 3 -11q3 -3 11 -3q4 1 10 8q2 6 2 10v17q0 4 -3 7q-2 2 -4 3q-2 2 -3 2q-12 6 -15 10q-4 4 -4 7v16q0 7 5 14t12 7q6 1 10 -2q4 -4 4 -13v-4h-2v4q0 5 -2 9q-5 5 -10 4q-7 -2 -11 -7q-3 -5 -3 -11v-17
q0 -5 4 -7t5 -3q4 -2 5 -3q8 -4 11 -7q3 -5 3 -9v-16q0 -10 -4 -15q-3 -5 -10 -6zM1216 1317q6 9 6 20v17q0 6 -5 13q-4 4 -14 10l-8 4q-1 0 -1 1l-1 1v16q0 2 2 6q2 2 4 2h1h1q1 -2 1 -6v-8v-5l5 1l11 2l4 1v4v9q0 10 -6 18q-7 5 -17 4q-12 -2 -18 -11q-7 -9 -7 -20v-17
q0 -6 6 -12q4 -5 16 -11q4 -2 5 -3t1 -3v-16q0 -5 -1 -6q0 -2 -2 -2q-3 0 -4 1q-2 2 -2 5v8v5l-4 -1l-11 -2l-4 -1v-4v-8q0 -13 7 -18q6 -7 18 -5q8 1 17 11z" />
    <glyph glyph-name="questiondown" unicode="&#xbf;" horiz-adv-x="920" 
d="M466 -313q-161 0 -272 113q-113 113 -113 271v399q0 123 99 229q79 83 183 123l-6 147h67h152h58l18 -394l-46 -2l-81 -4h-3q-57 0 -114 -42q-41 -31 -41 -57v-399q0 -41 29 -70q29 -28 70 -28t69 28q29 29 29 70v290v63h63h161h60v-63v-290q0 -162 -110 -271
q-113 -113 -272 -113zM494 1040q-84 0 -143 59t-59 142t59 142.5t143 59.5q83 0 142.5 -59.5t59.5 -142.5t-59.5 -142t-142.5 -59z" />
    <glyph glyph-name="Agrave" unicode="&#xc0;" 
d="M343 2148l276 -253l-40 -73l-318 180zM594 543l-88 718l-87 -718h175zM636 269h-259q-2 -11 -22.5 -113t-30.5 -156h-304l299 1738h375l299 -1740h-304q-11 60 -53 271z" />
    <glyph glyph-name="Aacute" unicode="&#xc1;" 
d="M690 2148l83 -146l-318 -180l-41 73zM594 543l-88 718l-87 -718h175zM636 269h-259q-2 -11 -22.5 -113t-30.5 -156h-304l299 1738h375l299 -1740h-304q-11 60 -53 271z" />
    <glyph glyph-name="Acircumflex" unicode="&#xc2;" 
d="M201 1906q48 47 136 133t111 109l54 52l4 5q11 -11 32.5 -31.5t26.5 -25.5q23 -22 111 -108.5t136 -133.5q-17 -11 -56.5 -40.5t-62.5 -43.5q-36 35 -102.5 100t-84.5 82q-17 -17 -83.5 -82t-102.5 -100q-11 7 -53 38.5t-66 45.5zM594 543l-88 718l-87 -718h175zM636 269
h-259q-2 -11 -22.5 -113t-30.5 -156h-304l299 1738h375l299 -1740h-304q-11 60 -53 271z" />
    <glyph glyph-name="Atilde" unicode="&#xc3;" 
d="M852 1963l-62 -71q-63 -70 -156 -70q-94 0 -157.5 73t-123.5 75q-60 1 -126 -58l-66 -59v150l55 65q56 66 144 66q87 0 143 -76t131 -75q74 0 146 75l72 75v-170zM594 543l-88 718l-87 -718h175zM636 269h-259q-2 -11 -22.5 -113t-30.5 -156h-304l299 1738h375l299 -1740
h-304q-11 60 -53 271z" />
    <glyph glyph-name="Adieresis" unicode="&#xc4;" 
d="M337 2018q99 0 99 -98t-99 -98q-98 0 -98 98t98 98zM686 2018q98 0 98 -98t-98 -98t-98 98t98 98zM594 543l-88 718l-87 -718h175zM636 269h-259q-2 -11 -22.5 -113t-30.5 -156h-304l299 1738h375l299 -1740h-304q-11 60 -53 271z" />
    <glyph glyph-name="Aring" unicode="&#xc5;" 
d="M506 2209q94 0 161.5 -67.5t67.5 -161.5q0 -151 -144 -207h-169q-144 55 -144 212q0 93 67 158.5t161 65.5zM506 2082q-96 0 -96 -97t96 -97q97 0 97 97t-97 97zM594 543l-88 718l-87 -718h175zM636 269h-259q-2 -11 -22.5 -113t-30.5 -156h-304l299 1738h375l299 -1740
h-304q-11 60 -53 271z" />
    <glyph glyph-name="AE" unicode="&#xc6;" horiz-adv-x="1400" 
d="M531 877l-1 4l-67 -338h199v908h-23zM662 269h-251q-2 -11 -22.5 -113t-30.5 -156h-334l364 1738h958v-287h-398v-439h237v-286h-237v-440h398v-286h-684v269zM530 872l-58 -296z" />
    <glyph glyph-name="Ccedilla" unicode="&#xc7;" horiz-adv-x="900" 
d="M466 1738q158 0 272 -114q113 -112 113 -272v-40v-63h-63h-161h-63v63v40q0 41 -29 70q-28 29 -69 29t-70 -29t-29 -70v-967q0 -41 29 -70q30 -29 70 -29t69 29t29 70v40v63h63h161h63v-63v-40q0 -159 -113 -272q-32 -30 -64 -51q9 -60 0.5 -125t-54.5 -119
q-102 -114 -206 -146l-103 -32l-86 239l114 31q114 32 149 78q-3 -3 9 13q-11 -1 -31 -1q-161 0 -272 113q-113 113 -113 272v967q0 160 113 272q112 114 272 114z" />
    <glyph glyph-name="Egrave" unicode="&#xc8;" horiz-adv-x="825" 
d="M143 1738h560h63v-63v-161v-63h-63h-336v-439h175h62v-63v-161v-62h-62h-175v-440h336h63v-62v-161v-63h-63h-560h-62v63v1612v63h62zM307 2148l275 -253l-40 -73l-318 180z" />
    <glyph glyph-name="Eacute" unicode="&#xc9;" horiz-adv-x="825" 
d="M143 1738h560h63v-63v-161v-63h-63h-336v-439h175h62v-63v-161v-62h-62h-175v-440h336h63v-62v-161v-63h-63h-560h-62v63v1612v63h62zM563 2188l82 -146l-318 -180l-40 73z" />
    <glyph glyph-name="Ecircumflex" unicode="&#xca;" horiz-adv-x="825" 
d="M143 1738h560h63v-63v-161v-63h-63h-336v-439h175h62v-63v-161v-62h-62h-175v-440h336h63v-62v-161v-63h-63h-560h-62v63v1612v63h62zM123 1912l241 236l54 52l5 5l4 -5l54 -52l241 -236l6 -6l-7 -4l-107 -77l-5 -3l-4 4l-182 178l-183 -178l-4 -4l-5 3l-107 77l-7 4z
" />
    <glyph glyph-name="Edieresis" unicode="&#xcb;" horiz-adv-x="825" 
d="M143 1738h560h63v-63v-161v-63h-63h-336v-439h175h62v-63v-161v-62h-62h-175v-440h336h63v-62v-161v-63h-63h-560h-62v63v1612v63h62zM244 2018q98 0 98 -98t-98 -98t-98 98t98 98zM592 2018q98 0 98 -98t-98 -98t-98 98t98 98z" />
    <glyph glyph-name="Igrave" unicode="&#xcc;" horiz-adv-x="490" 
d="M163 1738h161h62v-63v-1612v-63h-62h-161h-63v63v1612v63h63zM18 2148l276 -253l-40 -73l-318 180z" />
    <glyph glyph-name="Iacute" unicode="&#xcd;" horiz-adv-x="490" 
d="M159 1738h162h62v-63v-1612v-63h-62h-162h-62v63v1612v63h62zM452 2148l82 -146l-318 -180l-40 73z" />
    <glyph glyph-name="Icircumflex" unicode="&#xce;" horiz-adv-x="490" 
d="M160 1738h162h62v-63v-1612v-63h-62h-162h-62v63v1612v63h62zM-57 1912l239 236l54 52l5 5l5 -5l53 -52l241 -236l6 -6l-7 -4l-106 -77l-5 -3l-5 4l-182 178l-183 -178l-4 -4l-5 3l-106 77l-7 4z" />
    <glyph glyph-name="Idieresis" unicode="&#xcf;" horiz-adv-x="490" 
d="M167 1738h162h62v-63v-1612v-63h-62h-162h-62v63v1612v63h62zM74 2018q98 0 98 -98t-98 -98q-97 0 -97 98t97 98zM422 2018q98 0 98 -98t-98 -98t-98 98t98 98z" />
    <glyph glyph-name="Ntilde" unicode="&#xd1;" horiz-adv-x="1081" 
d="M80 0v1738h404q96 -478 165 -801.5t75 -353.5q0 134 -5 577.5t-5 577.5h287v-1738h-394q-59 251 -96.5 429t-79 396.5t-65.5 339.5v-1165h-286zM875 1963l-63 -71q-62 -70 -155 -70q-95 0 -159 73q-61 70 -120 74.5t-129 -57.5l-66 -59v150l56 65q56 66 143 66t143.5 -76
t131.5 -75q74 0 146 75l72 75v-170z" />
    <glyph glyph-name="Ograve" unicode="&#xd2;" horiz-adv-x="890" 
d="M450 1738q158 0 272 -114q113 -113 113 -272v-967q0 -158 -113 -272q-113 -113 -272 -113q-161 0 -272 113q-113 113 -113 272v967q0 160 113 272q112 114 272 114zM304 2148l276 -253l-41 -73l-318 180zM450 1451q-41 0 -70 -29t-29 -70v-967q0 -41 29 -70
q30 -29 70 -29q38 0 69 29q29 29 29 70v967q0 41 -29 70t-69 29z" />
    <glyph glyph-name="Oacute" unicode="&#xd3;" horiz-adv-x="890" 
d="M450 1738q158 0 272 -114q113 -113 113 -272v-967q0 -158 -113 -272q-113 -113 -272 -113q-161 0 -272 113q-113 113 -113 272v967q0 160 113 272q112 114 272 114zM591 2148l83 -146l-318 -180l-41 73zM450 1451q-41 0 -70 -29t-29 -70v-967q0 -41 29 -70q30 -29 70 -29
q38 0 69 29q29 29 29 70v967q0 41 -29 70t-69 29z" />
    <glyph glyph-name="Ocircumflex" unicode="&#xd4;" horiz-adv-x="890" 
d="M450 1738q158 0 272 -114q113 -113 113 -272v-967q0 -158 -113 -272q-113 -113 -272 -113q-161 0 -272 113q-113 113 -113 272v967q0 160 113 272q112 114 272 114zM150 1912l241 236l54 52l5 5l4 -5l54 -52l241 -236l6 -6l-7 -4l-107 -77l-5 -3l-4 4l-182 178l-183 -178
l-4 -4l-5 3l-107 77l-7 4zM450 1451q-41 0 -70 -29t-29 -70v-967q0 -41 29 -70q30 -29 70 -29q38 0 69 29q29 29 29 70v967q0 41 -29 70t-69 29z" />
    <glyph glyph-name="Otilde" unicode="&#xd5;" horiz-adv-x="890" 
d="M450 1738q158 0 272 -114q113 -113 113 -272v-967q0 -158 -113 -272q-113 -113 -272 -113q-161 0 -272 113q-113 113 -113 272v967q0 160 113 272q112 114 272 114zM795 1963l-63 -71q-62 -70 -155 -70q-94 0 -157.5 73t-123.5 75q-60 1 -126 -58l-66 -59v150l55 65
q56 66 144 66q87 0 143 -76t131 -75q74 0 146 75l72 75v-170zM450 1451q-41 0 -70 -29t-29 -70v-967q0 -41 29 -70q30 -29 70 -29q38 0 69 29q29 29 29 70v967q0 41 -29 70t-69 29z" />
    <glyph glyph-name="Odieresis" unicode="&#xd6;" horiz-adv-x="890" 
d="M450 1738q158 0 272 -114q113 -113 113 -272v-967q0 -158 -113 -272q-113 -113 -272 -113q-161 0 -272 113q-113 113 -113 272v967q0 160 113 272q112 114 272 114zM275 2018q99 0 99 -98t-99 -98q-98 0 -98 98t98 98zM624 2018q98 0 98 -98t-98 -98t-98 98t98 98z
M450 1451q-41 0 -70 -29t-29 -70v-967q0 -41 29 -70q30 -29 70 -29q38 0 69 29q29 29 29 70v967q0 41 -29 70t-69 29z" />
    <glyph glyph-name="Oslash" unicode="&#xd8;" horiz-adv-x="890" 
d="M450 1738q79 0 155 -33l35 130h137l-57 -210q1 0 2 -1q113 -113 113 -272v-967q0 -158 -113 -272q-113 -113 -272 -113q-81 0 -156 33l-35 -130h-136l56 209h-1v1q-113 113 -113 272v967q0 160 113 272q112 114 272 114zM548 983l-176 -659q2 -3 3.5 -5t4.5 -4
q30 -29 70 -29q38 0 69 29q29 29 29 70v598zM351 755l176 658q-2 3 -8 9q-29 29 -69 29q-41 0 -70 -29t-29 -70v-597z" />
    <glyph glyph-name="Ugrave" unicode="&#xd9;" horiz-adv-x="910" 
d="M851 1675v-1290q0 -159 -113 -272t-272 -113q-161 0 -272 113q-113 113 -113 272v1290v63h62h162h62v-63v-1290q0 -41 29 -70q30 -29 70 -29t69 29t29 70v1290v63h63h161h63v-63zM301 2148l276 -253l-41 -73l-318 180z" />
    <glyph glyph-name="Uacute" unicode="&#xda;" horiz-adv-x="910" 
d="M851 1675v-1290q0 -159 -113 -272t-272 -113q-161 0 -272 113q-113 113 -113 272v1290v63h62h162h62v-63v-1290q0 -41 29 -70q30 -29 70 -29t69 29t29 70v1290v63h63h161h63v-63zM651 2148l82 -146l-318 -180l-40 73z" />
    <glyph glyph-name="Ucircumflex" unicode="&#xdb;" horiz-adv-x="910" 
d="M851 1675v-1290q0 -159 -113 -272t-272 -113q-161 0 -272 113q-113 113 -113 272v1290v63h62h162h62v-63v-1290q0 -41 29 -70q30 -29 70 -29t69 29t29 70v1290v63h63h161h63v-63zM167 1912l240 236l54 52l5 5l5 -5l53 -52l241 -236l6 -6l-7 -4l-107 -77l-5 -3l-4 4
l-182 178l-183 -178l-4 -4l-5 3l-107 77l-7 4z" />
    <glyph glyph-name="Udieresis" unicode="&#xdc;" horiz-adv-x="910" 
d="M851 1675v-1290q0 -159 -113 -272t-272 -113q-161 0 -272 113q-113 113 -113 272v1290v63h62h162h62v-63v-1290q0 -41 29 -70q30 -29 70 -29t69 29t29 70v1290v63h63h161h63v-63zM292 2018q98 0 98 -98t-98 -98t-98 98t98 98zM640 2018q98 0 98 -98t-98 -98t-98 98t98 98
z" />
    <glyph glyph-name="germandbls" unicode="&#xdf;" horiz-adv-x="1693" 
d="M1643 385q0 -107 -48 -195t-132.5 -139t-187.5 -51t-188.5 51.5t-134 140t-48.5 193.5v184h276v-184q0 -27 12.5 -50t34.5 -36t48 -13q35 0 58.5 28.5t23.5 70.5v91q0 33 -14.5 67t-29 53t-42 49.5t-33.5 38.5q-39 48 -134.5 144t-119.5 130q-27 38 -48 90t-31 96t-11 77
l-4 131q0 105 51 194t139 140.5t191 51.5q102 0 185.5 -51.5t130 -140t46.5 -194.5v-183h-276v183q0 42 -23.5 70.5t-58.5 28.5q-40 0 -67.5 -29t-27.5 -70v-73q1 -25 15 -69.5t33 -71.5q20 -29 48.5 -58t58.5 -55t39 -36q25 -26 70.5 -72t59 -60.5t33 -39.5t32.5 -48
q33 -59 53 -128.5t20 -122.5zM803 385q0 -107 -48 -195t-132.5 -139t-187.5 -51t-188.5 51.5t-134 140t-48.5 193.5v184h276v-184q0 -41 28 -70t67 -29q35 0 58.5 28.5t23.5 70.5v91q0 33 -14.5 67t-29 53t-42 49.5t-33.5 38.5q-39 48 -134.5 144t-119.5 130
q-39 55 -63.5 132.5t-26.5 130.5l-4 131q0 105 51 194t139 140.5t191 51.5q102 0 185.5 -51.5t130 -140t46.5 -194.5v-183h-276v183q0 42 -23.5 70.5t-58.5 28.5q-40 0 -67.5 -29t-27.5 -70v-73q1 -25 15 -69.5t33 -71.5q20 -29 48.5 -58t58.5 -55t39 -36q25 -26 70.5 -72
t59 -60.5t33 -39.5t32.5 -48q33 -59 53 -128.5t20 -122.5z" />
    <glyph glyph-name="agrave" unicode="&#xe0;" 
d="M343 2148l276 -253l-40 -73l-318 180zM594 543l-88 718l-87 -718h175zM636 269h-259q-2 -11 -22.5 -113t-30.5 -156h-304l299 1738h375l299 -1740h-304q-11 60 -53 271z" />
    <glyph glyph-name="aacute" unicode="&#xe1;" 
d="M690 2148l83 -146l-318 -180l-41 73zM594 543l-88 718l-87 -718h175zM636 269h-259q-2 -11 -22.5 -113t-30.5 -156h-304l299 1738h375l299 -1740h-304q-11 60 -53 271z" />
    <glyph glyph-name="acircumflex" unicode="&#xe2;" 
d="M201 1906q48 47 136 133t111 109l54 52l4 5q11 -11 32.5 -31.5t26.5 -25.5q23 -22 111 -108.5t136 -133.5q-17 -11 -56.5 -40.5t-62.5 -43.5q-36 35 -102.5 100t-84.5 82q-17 -17 -83.5 -82t-102.5 -100q-11 7 -53 38.5t-66 45.5zM594 543l-88 718l-87 -718h175zM636 269
h-259q-2 -11 -22.5 -113t-30.5 -156h-304l299 1738h375l299 -1740h-304q-11 60 -53 271z" />
    <glyph glyph-name="atilde" unicode="&#xe3;" 
d="M852 1963l-62 -71q-63 -70 -156 -70q-94 0 -157.5 73t-123.5 75q-60 1 -126 -58l-66 -59v150l55 65q56 66 144 66q87 0 143 -76t131 -75q74 0 146 75l72 75v-170zM594 543l-88 718l-87 -718h175zM636 269h-259q-2 -11 -22.5 -113t-30.5 -156h-304l299 1738h375l299 -1740
h-304q-11 60 -53 271z" />
    <glyph glyph-name="adieresis" unicode="&#xe4;" 
d="M337 2018q99 0 99 -98t-99 -98q-98 0 -98 98t98 98zM686 2018q98 0 98 -98t-98 -98t-98 98t98 98zM594 543l-88 718l-87 -718h175zM636 269h-259q-2 -11 -22.5 -113t-30.5 -156h-304l299 1738h375l299 -1740h-304q-11 60 -53 271z" />
    <glyph glyph-name="aring" unicode="&#xe5;" 
d="M506 2209q94 0 161.5 -67.5t67.5 -161.5q0 -151 -144 -207h-169q-144 55 -144 212q0 93 67 158.5t161 65.5zM506 2082q-96 0 -96 -97t96 -97q97 0 97 97t-97 97zM594 543l-88 718l-87 -718h175zM636 269h-259q-2 -11 -22.5 -113t-30.5 -156h-304l299 1738h375l299 -1740
h-304q-11 60 -53 271z" />
    <glyph glyph-name="ae" unicode="&#xe6;" horiz-adv-x="1400" 
d="M531 877l-1 4l-67 -338h199v908h-23zM662 269h-251q-2 -11 -22.5 -113t-30.5 -156h-334l364 1738h958v-287h-398v-439h237v-286h-237v-440h398v-286h-684v269zM530 872l-58 -296z" />
    <glyph glyph-name="ccedilla" unicode="&#xe7;" horiz-adv-x="900" 
d="M466 1738q158 0 272 -114q113 -112 113 -272v-40v-63h-63h-161h-63v63v40q0 41 -29 70q-28 29 -69 29t-70 -29t-29 -70v-967q0 -41 29 -70q30 -29 70 -29t69 29t29 70v40v63h63h161h63v-63v-40q0 -159 -113 -272q-32 -30 -64 -51q9 -60 0.5 -125t-54.5 -119
q-102 -114 -206 -146l-103 -32l-86 239l114 31q114 32 149 78q-3 -3 9 13q-11 -1 -31 -1q-161 0 -272 113q-113 113 -113 272v967q0 160 113 272q112 114 272 114z" />
    <glyph glyph-name="egrave" unicode="&#xe8;" horiz-adv-x="825" 
d="M143 1738h560h63v-63v-161v-63h-63h-336v-439h175h62v-63v-161v-62h-62h-175v-440h336h63v-62v-161v-63h-63h-560h-62v63v1612v63h62zM307 2148l275 -253l-40 -73l-318 180z" />
    <glyph glyph-name="eacute" unicode="&#xe9;" horiz-adv-x="825" 
d="M143 1738h560h63v-63v-161v-63h-63h-336v-439h175h62v-63v-161v-62h-62h-175v-440h336h63v-62v-161v-63h-63h-560h-62v63v1612v63h62zM563 2188l82 -146l-318 -180l-40 73z" />
    <glyph glyph-name="ecircumflex" unicode="&#xea;" horiz-adv-x="825" 
d="M143 1738h560h63v-63v-161v-63h-63h-336v-439h175h62v-63v-161v-62h-62h-175v-440h336h63v-62v-161v-63h-63h-560h-62v63v1612v63h62zM123 1912l241 236l54 52l5 5l4 -5l54 -52l241 -236l6 -6l-7 -4l-107 -77l-5 -3l-4 4l-182 178l-183 -178l-4 -4l-5 3l-107 77l-7 4z
" />
    <glyph glyph-name="edieresis" unicode="&#xeb;" horiz-adv-x="825" 
d="M143 1738h560h63v-63v-161v-63h-63h-336v-439h175h62v-63v-161v-62h-62h-175v-440h336h63v-62v-161v-63h-63h-560h-62v63v1612v63h62zM244 2018q98 0 98 -98t-98 -98t-98 98t98 98zM592 2018q98 0 98 -98t-98 -98t-98 98t98 98z" />
    <glyph glyph-name="igrave" unicode="&#xec;" horiz-adv-x="490" 
d="M163 1738h161h62v-63v-1612v-63h-62h-161h-63v63v1612v63h63zM18 2148l276 -253l-40 -73l-318 180z" />
    <glyph glyph-name="iacute" unicode="&#xed;" horiz-adv-x="490" 
d="M159 1738h162h62v-63v-1612v-63h-62h-162h-62v63v1612v63h62zM452 2148l82 -146l-318 -180l-40 73z" />
    <glyph glyph-name="icircumflex" unicode="&#xee;" horiz-adv-x="490" 
d="M160 1738h162h62v-63v-1612v-63h-62h-162h-62v63v1612v63h62zM-57 1912l239 236l54 52l5 5l5 -5l53 -52l241 -236l6 -6l-7 -4l-106 -77l-5 -3l-5 4l-182 178l-183 -178l-4 -4l-5 3l-106 77l-7 4z" />
    <glyph glyph-name="idieresis" unicode="&#xef;" horiz-adv-x="490" 
d="M167 1738h162h62v-63v-1612v-63h-62h-162h-62v63v1612v63h62zM74 2018q98 0 98 -98t-98 -98q-97 0 -97 98t97 98zM422 2018q98 0 98 -98t-98 -98t-98 98t98 98z" />
    <glyph glyph-name="ntilde" unicode="&#xf1;" horiz-adv-x="1081" 
d="M80 0v1738h404q96 -478 165 -801.5t75 -353.5q0 134 -5 577.5t-5 577.5h287v-1738h-394q-59 251 -96.5 429t-79 396.5t-65.5 339.5v-1165h-286zM875 1963l-63 -71q-62 -70 -155 -70q-95 0 -159 73q-61 70 -120 74.5t-129 -57.5l-66 -59v150l56 65q56 66 143 66t143.5 -76
t131.5 -75q74 0 146 75l72 75v-170z" />
    <glyph glyph-name="ograve" unicode="&#xf2;" horiz-adv-x="890" 
d="M450 1738q158 0 272 -114q113 -113 113 -272v-967q0 -158 -113 -272q-113 -113 -272 -113q-161 0 -272 113q-113 113 -113 272v967q0 160 113 272q112 114 272 114zM304 2148l276 -253l-41 -73l-318 180zM450 1451q-41 0 -70 -29t-29 -70v-967q0 -41 29 -70
q30 -29 70 -29q38 0 69 29q29 29 29 70v967q0 41 -29 70t-69 29z" />
    <glyph glyph-name="oacute" unicode="&#xf3;" horiz-adv-x="890" 
d="M450 1738q158 0 272 -114q113 -113 113 -272v-967q0 -158 -113 -272q-113 -113 -272 -113q-161 0 -272 113q-113 113 -113 272v967q0 160 113 272q112 114 272 114zM591 2148l83 -146l-318 -180l-41 73zM450 1451q-41 0 -70 -29t-29 -70v-967q0 -41 29 -70q30 -29 70 -29
q38 0 69 29q29 29 29 70v967q0 41 -29 70t-69 29z" />
    <glyph glyph-name="ocircumflex" unicode="&#xf4;" horiz-adv-x="890" 
d="M450 1738q158 0 272 -114q113 -113 113 -272v-967q0 -158 -113 -272q-113 -113 -272 -113q-161 0 -272 113q-113 113 -113 272v967q0 160 113 272q112 114 272 114zM150 1912l241 236l54 52l5 5l4 -5l54 -52l241 -236l6 -6l-7 -4l-107 -77l-5 -3l-4 4l-182 178l-183 -178
l-4 -4l-5 3l-107 77l-7 4zM450 1451q-41 0 -70 -29t-29 -70v-967q0 -41 29 -70q30 -29 70 -29q38 0 69 29q29 29 29 70v967q0 41 -29 70t-69 29z" />
    <glyph glyph-name="otilde" unicode="&#xf5;" horiz-adv-x="890" 
d="M450 1738q158 0 272 -114q113 -113 113 -272v-967q0 -158 -113 -272q-113 -113 -272 -113q-161 0 -272 113q-113 113 -113 272v967q0 160 113 272q112 114 272 114zM795 1963l-63 -71q-62 -70 -155 -70q-94 0 -157.5 73t-123.5 75q-60 1 -126 -58l-66 -59v150l55 65
q56 66 144 66q87 0 143 -76t131 -75q74 0 146 75l72 75v-170zM450 1451q-41 0 -70 -29t-29 -70v-967q0 -41 29 -70q30 -29 70 -29q38 0 69 29q29 29 29 70v967q0 41 -29 70t-69 29z" />
    <glyph glyph-name="odieresis" unicode="&#xf6;" horiz-adv-x="890" 
d="M450 1738q158 0 272 -114q113 -113 113 -272v-967q0 -158 -113 -272q-113 -113 -272 -113q-161 0 -272 113q-113 113 -113 272v967q0 160 113 272q112 114 272 114zM275 2018q99 0 99 -98t-99 -98q-98 0 -98 98t98 98zM624 2018q98 0 98 -98t-98 -98t-98 98t98 98z
M450 1451q-41 0 -70 -29t-29 -70v-967q0 -41 29 -70q30 -29 70 -29q38 0 69 29q29 29 29 70v967q0 41 -29 70t-69 29z" />
    <glyph glyph-name="divide" unicode="&#xf7;" horiz-adv-x="1750" 
d="M146 495v-43l1488 298v43zM136 1035v-43l1488 298v42zM177 906l11 2l47 -185l14 -51l13 57l47 204l12 3v-327l-8 -1v306l-57 -245l-8 -32l-7 29l-56 222v-306l-8 -2v326zM149 561v-14l14 3l35 7l14 3v14v90l5 -19l3 -11l6 -26l45 9l7 29l2 11l5 22v-90v-14l14 3l35 7
l14 2v14v354v14l-14 -3l-36 -7l-10 -3l-3 -11l-37 -158l-36 143l-3 10l-11 -2l-35 -7l-14 -3v-14v-353zM543 758l-28 139l-13 60l-6 -1l-12 -66l-29 -150l-7 -37l-1 -1l33 7l38 7l32 7v1zM552 715l-32 -6l-42 -9l-32 -6l-12 -62l-8 -1l64 339l18 4l64 -314l-9 -1zM499 809
l-13 -67zM525 683l9 -46l3 -11l13 3l41 8l19 4l-3 15l-70 340l-2 11l-14 -3l-44 -9l-14 -3l-2 -12l-70 -368l-3 -16l19 3l41 9l13 3l2 11l10 50zM514 740l-30 -6l15 77zM662 679v145v80v101l22 4l22 5q26 5 46 -10q20 -16 20 -42v-71q0 -21 -12 -39q-10 -19 -29 -31l-13 -7
l5 -12l43 -102l-8 -2l-45 106l-3 8l-10 -1l-16 -4l-14 -3v-13v-111zM684 656l13 3v13v94l39 -91l3 -8l9 2l38 8l20 4l-7 17l-46 109q19 15 30 34q16 26 16 55v71q0 39 -27 60q-29 22 -66 14l-22 -4l-36 -7l-14 -3v-14v-115v-79v-159v-14l14 3zM670 826v-14l14 3l22 5
q23 4 41 25q17 21 17 44v71q0 23 -17 37q-18 13 -41 9l-22 -5l-14 -2v-14v-159zM697 977l9 2q13 1 21 -5q9 -8 9 -20v-70q0 -12 -9 -24q-9 -10 -21 -13l-9 -2v132zM914 730q-24 -5 -37 8q-15 13 -15 38v13l8 2v-13q0 -23 11 -32q12 -13 33 -8q20 4 31 23q7 14 7 34v53
q0 11 -9 22q-7 7 -11 9q-5 3 -11 7q-33 14 -47 28q-12 12 -12 22v53q0 24 15 44q13 18 37 23q19 4 33 -8q13 -12 13 -39v-13l-8 -2v13q0 19 -7 31q-11 14 -31 10q-21 -3 -33 -21q-11 -16 -11 -37v-53q0 -11 14 -22q20 -12 16 -10l14 -7q23 -9 36 -23q10 -12 10 -25v-54
q0 -28 -13 -45q-14 -17 -33 -21zM967 738q21 27 21 64v53q0 22 -17 41q-13 14 -42 29q-14 4 -26 14l-6 4v53q0 9 5 18q6 6 12 7q4 1 8 -2q3 -6 3 -18v-26v-14l14 3l35 7l14 3v14v26q0 36 -21 57q-20 19 -53 13q-35 -8 -57 -36q-23 -31 -23 -65v-53q0 -20 20 -38
q19 -18 51 -32q13 -8 16 -11q4 -6 4 -7v-53q0 -12 -3 -18q-3 -5 -8 -6q-8 -2 -12 3q-5 5 -5 16v26v14l-14 -3l-35 -7l-14 -3v-14v-26q0 -35 23 -56q22 -20 57 -13q33 7 53 36zM1050 1084l13 2l78 -223l24 -70l2 1v78v236l8 1v-326l-13 -3l-77 225l-24 69h-3v-79v-236l-8 -1
v326zM1023 739v-14l13 2l36 8l13 2v14v163l55 -156l3 -9l10 2l36 8l14 2v14v354v14l-14 -3l-36 -7l-13 -3v-14v-163l-54 156l-3 9l-10 -2l-37 -7l-13 -3v-14v-353zM1255 1153l123 25l14 3v-14v-35v-14l-14 -3l-74 -15v-96l38 8l14 3v-14v-36v-13l-14 -3l-38 -8v-96l74 15
l14 3v-14v-35v-14l-14 -3l-123 -25l-14 -3v14v354v14zM1364 1148l-95 -20v-326l95 20v8l-74 -16l-13 -2v14v123v14l13 3l39 8v8l-39 -8l-13 -3v13v125v13l13 3l74 15v8zM1490 1070l-6 34l-11 66l-8 -2l56 -314l15 3l56 337l-8 -1l-12 -71l-5 -36l-25 -149l-12 -70l-4 -1
l-11 65zM1511 1114l6 -34l11 -62l11 67l7 36l13 83l2 11l12 3l35 7l16 3l-3 -17l-60 -365l-2 -12l-12 -3l-38 -7l-11 -3l-2 11l-61 342l-2 15l16 4l35 7l12 2l2 -11zM81 1693h1612v-1612h-1612v1612zM357 235q3 0 5 -2q3 -3 3 -5v-25v-9v-3h2h9h5h3v3v9v3h-3h-2v22q0 3 2 5
q4 2 6 2q3 0 5 -2t2 -5v-25v-9v-3h3h9h5h3v3v9v3h-3h-2v22q0 8 -7 15q-6 6 -15 6q-7 0 -10 -2q-4 -2 -5 -3q-2 0 -3.5 1t-2.5 2q-3 2 -9 2q-4 0 -6 -1h-1h-1v1h-3h-8h-6h-2v-2v-9v-3h2h3v-7v-34v-3h3h8h3v3v34q0 1 2 5q4 2 6 2zM445 249q-8 0 -11 -2q-6 -2 -9 -6
q-5 -5 -6 -9q-3 -6 -3 -12q0 -5 3 -11q1 -5 6 -9q7 -9 20 -9q5 0 10 3q3 0 5 2v-2v-3h3h8h6h2v3v9v3h-2h-3v14v27v2h-3h-8h-3v-2v-2q-4 2 -5 2q-3 2 -10 2zM460 220q0 -6 -4 -10t-11 -4q-6 0 -10 4q-5 5 -5 10q0 6 5 11q4 4 10 4q7 0 11 -4t4 -11v0zM490 249h-5h-3v-2v-9v-3
h3h2v-15v-14h-2h-3v-3v-9v-3h3h5h9h3v3v9v17q0 7 4 11t10 4h3v3v9v2h-3q-7 0 -10 -2q-2 0 -4 -2v2v2h-3h-9zM524 194v-3h3h8h3v2h1q1 0 1 -1q2 0 3.5 -0.5t3.5 -0.5q9 0 17 6q7 4 7 13q0 6 -6 11q-6 3 -16 7h-2h-2q-1 0 -2.5 0.5t-1.5 1.5q-2 0 -2 1h-1q0 1 2 3q2 1 7 1
t7 -1q1 -1 2 -1l1 -1v-2h2h9h3v3v14v2h-3h-9h-2v-1q-2 0 -3 1h-3h-4q-10 0 -16 -5q-7 -5 -7 -13q0 -7 6 -11q6 -6 17 -7q2 0 4 -1q3 0 4 -1q0 -1 1 -1h1q0 -1 -2 -3q-2 -1 -8 -1q-4 0 -6 1q-3 1 -3 2l-1 2h-2h-7h-1h-3v-3v-14zM583 249h-5h-3v-2v-9v-3h3h2v-12v-3v-26v-3h3
h9h3v3v26v3q0 4 3 9q3 3 9 3q5 0 8 -3q4 -4 4 -9v-3v-17v-9v-3h3h8h6h2v3v9v3h-2h-3v14v3q0 12 -8 19q-7 7 -18 7q-6 0 -9 -1q-1 -1 -2 -1l-1 -1v1v2h-3h-9zM677 233q1 0 3 -2l-25 -9q1 6 4 9q4 4 11 4q5 0 7 -2zM697 222l2 1l-1 2q-2 11 -9 17q-9 7 -19 7q-8 0 -11 -2
q-6 -2 -10 -6q-2 -3 -3.5 -5t-2.5 -4q-2 -8 -2 -12q0 -3 2 -11q1 -3 2.5 -5t3.5 -4q9 -9 21 -9q6 0 14 4q6 4 11 11l2 2l-4 2l-8 3h-2l-1 -1l-5 -5q-3 -1 -7 -1q-5 0 -7 1q-1 0 -2 0.5t-1 1.5l28 10zM706 249h-2h-3v-2v-9v-3h3h4l17 -42l1 -2h2h9h2l1 2l21 53l1 3h-4h-9h-2
l-1 -1l-14 -35l-14 35l-1 1h-2h-9zM892 238q5 0 8 -3t3 -7v-25v-9h9h5v9h-5v25q0 4 3 7t7 3t7 -3t3 -7v-25v-9h9h6v9h-6v25q0 6 -5 13q-6 6 -14 6t-15 -7q-7 7 -15 7q-6 0 -10 -3v3h-9h-5v-9h5v-10v-34h9v34q0 4 3 7t7 3zM976 247q-11 0 -19 -8t-8 -19q0 -10 8 -18t19 -8
q10 0 17 7v-7h9h5v9h-5v17v27h-9v-7q-7 7 -17 7zM993 220q0 -6 -5 -12q-5 -5 -12 -5t-13 5q-5 6 -5 12t5 13q6 5 13 5t12 -5q5 -7 5 -13zM1016 247h-5v-9h5v-18v-17h-5v-9h5h9v9v17q0 6 5 13q5 5 12 5v9q-10 0 -17 -7v7h-9zM1047 194h9v3q6 -3 12 -3q8 0 15 5q6 4 6 11
q0 5 -6 10q-6 3 -14 5q-2 0 -8 2q-5 1 -5 4t3 5q6 2 9 2q4 0 8 -2t4 -3h8h1v14h-9v-3q-6 3 -12 3q-9 0 -15 -5t-6 -11t6 -10q7 -4 15 -5q2 0 8 -2q4 -2 4 -4q0 -4 -3 -5q-6 -2 -9 -2t-4.5 0.5t-3.5 0.5l-4 4h-8h-1v-14zM1099 247h-5v-9h5v-15v-3v-26h9v26v3q0 6 4 10
q5 5 11 5q7 0 11 -5q4 -4 4 -10v-3v-17v-9h9h5v9h-5v17v3q0 8 -7 17q-9 7 -17 7q-9 0 -15 -6v6h-9zM1182 238q4 0 8 -2q4 -3 6 -6l-32 -12v1v1q0 6 5 13q6 5 13 5zM1199 222l9 3q-2 9 -9 15q-7 7 -17 7q-11 0 -19 -8t-8 -19q0 -10 8 -18t19 -8q7 0 13 4q6 3 9 9l-8 3
q-6 -7 -14 -7q-10 0 -14 7zM1212 247h-2v-9h6l18 -44h9l21 53h-9l-17 -41l-16 41h-10zM1319 247q-11 0 -19 -8q-7 -7 -7 -19q0 -11 7 -18q8 -8 19 -8q6 0 11 3q5 1 9 7l-8 4q-5 -5 -12 -5t-12 5t-5 12q0 8 5 13t12 5t12 -5h9v14h-9v-3q-5 3 -12 3zM1370 247q-10 0 -18 -8
t-8 -19q0 -10 8 -18t18 -8q11 0 19 8t8 18q0 11 -8 19t-19 8zM1358 233q6 5 12 5t13 -5q5 -7 5 -13t-5 -12q-7 -5 -13 -5t-12 5q-5 6 -5 12t5 13zM1423 238q5 0 8 -3t3 -7v-25v-9h9h5v9h-5v25q0 4 3 7t7 3q5 0 8 -3t3 -7v-25v-9h8h6v9h-6v25q0 6 -5 13q-6 6 -14 6t-15 -7
q-7 7 -15 7q-6 0 -10 -3v3h-9h-5v-9h5v-10v-34h9v34q0 4 3 7t7 3zM814 246h-1h-1q-5 0 -7 -1q-3 0 -7 -2q-3 -2 -4 -4q-1 -1 -1 -4v-28q0 -3 1 -4q1 -3 4 -4q4 -2 7 -2q2 -1 7 -1h1h1h1h1v0v-1q0 -1 0.5 -2t2.5 -2q0 -1 1.5 -2t2.5 -1q8 -2 13 -2q6 0 12 4q2 1 4 5v0
q1 2 1 5v1v3v0v2v7v38q0 4 -3 9q-3 3 -9 7q-8 4 -13 5t-16 1t-16 -1t-13 -5q-7 -4 -9 -7q-3 -5 -3 -9v-63q0 -5 3 -9q2 -4 9 -7q8 -4 13 -5q10 -2 16 -2h2h3q1 0 2 0.5t3 0.5t3 1h1h2l4 1v3v1v6l-9 -2h-1h-1q-1 0 -2 -0.5t-2 -0.5h-3h-2q-7 0 -9 1q-4 0 -8 2q-4 1 -5 4
q-2 1 -2 3v68q0 3 2 4q3 3 5 4q-4 -2 8 2q1 0 3.5 0.5t5.5 0.5q2 0 4.5 -0.5t4.5 -0.5q12 -4 8 -2l3 -2q1 -2 3 -2q1 -1 1 -4v-44v-4v-1v0v-1v-1v-4v-2h-1h-1h-1v0q-1 0 -1 1t-1 2v43v4h-6h-2h-7v0h-1h-1zM816 213v-7v0h-1h-1h-1h-1h-1h-1h-1v1h-1v1v1v24v0v1v1l1 1v0l1 1h1
h1v0h1h1v-1q2 0 2 -1v-22zM1276 206q-7 0 -7 -7q0 -6 7 -6t7 6q0 7 -7 7zM665 1330l-4 -1v-4v-112v-4h4l11 2l5 1v4v113v4l-5 -1zM672 1323v-104h-3v103zM703 1328l4 1l25 -72l7 -22h1v25v75l2 1v-104l-3 -1l-25 72l-8 22h-1v-25v-75h-2v103zM694 1219v-5l4 1l12 2l4 1v4v52
l17 -50l1 -3l3 1l12 2l4 1v4v112v5l-4 -1l-11 -2l-5 -1v-4v-52l-17 50l-1 3l-3 -1l-12 -2l-4 -1v-4v-112zM790 1353q-12 -4 -19 -12q-8 -10 -8 -20v-67q0 -10 8 -18q8 -6 19 -4q10 1 19 11q8 9 8 21v39v4l-4 -1l-20 -3l-5 -1v-4v-12v-4l5 1l4 1v-24q0 -3 -2 -5q-2 -3 -5 -3
t-5 1q-2 2 -2 4v68q0 1 2 5q3 3 5 3q4 0 5 -1q2 -2 2 -5v-5v-4l5 1l11 2l4 1v4v5q0 10 -8 17q-7 6 -19 5zM790 1344q8 1 13 -3t5 -12l-2 -1v1q0 6 -5 10q-3 3 -11 3q-8 -2 -11 -7q-4 -6 -4 -12v-67q0 -8 4 -10q4 -5 11 -3q6 1 11 7q5 5 5 12v28v4l-4 -1l-5 -1v3l11 2v-35
q0 -9 -5 -14q-6 -7 -13 -7q-8 -2 -12 3q-6 3 -6 11v68q0 6 6 14q4 5 12 7zM831 1360l-4 -1v-4v-112v-4h4l38 7l5 1v5v11v4l-5 -1l-22 -4v97v4l-4 -1zM838 1353v-97v-4l5 1l22 4v-3l-29 -5v103zM913 1375q-11 -2 -18 -11q-8 -8 -8 -21v-67q0 -12 8 -17q6 -7 18 -5q11 2 19 12
q8 8 8 20v67q0 12 -8 18q-9 6 -19 4zM913 1367q8 0 13 -3q6 -5 6 -12v-67q0 -8 -6 -14q-4 -7 -13 -8q-8 -2 -12 3q-6 4 -6 12v67q0 8 6 14q4 6 12 8zM913 1364q-8 -2 -10 -7q-5 -4 -5 -11v-68q0 -7 5 -10q3 -3 10 -3q5 1 11 7q5 5 5 12v67q0 7 -5 11q-5 3 -11 2zM913 1355
q2 1 5 -1q2 -1 2 -4v-68q0 -3 -2 -5q-2 -3 -5 -3t-4 1q-2 2 -2 5v67q0 4 2 5q1 3 4 3zM959 1271v46v26v32l7 1l7 1q7 1 14 -3q6 -5 6 -14v-22q0 -6 -3 -12q-1 -2 -9 -10l-4 -2l1 -4l14 -33h-3l-14 34l-1 2h-3l-5 -1l-5 -1v-4v-35zM966 1264l4 1v4v30l12 -29l1 -3l3 1l12 2
l7 1l-3 5l-14 35q5 4 9 11q5 7 5 17v23q0 11 -9 19q-8 8 -20 5l-7 -1l-12 -2l-4 -1v-5v-36v-25v-51v-4l4 1zM961 1318v-4h5l7 2q6 0 13 7q5 8 5 14v23q0 7 -5 12q-6 4 -13 3l-7 -1l-5 -1v-5v-50zM970 1366h3q2 1 7 -1q2 -4 2 -7v-22q0 -2 -2 -8q-1 -1 -7 -4h-3v42z
M1018 1394l-5 -1v-4v-112v-5l5 1l11 2l4 1v5v112v4l-4 -1zM1025 1387v-104h-3v103zM1074 1405q-12 -3 -19 -12q-8 -8 -8 -20v-68q0 -12 8 -17q6 -7 19 -5q9 2 19 12q7 8 7 20v67q0 12 -7 18q-10 6 -19 5zM1074 1396q7 1 12 -3q6 -5 6 -12v-67q0 -8 -6 -14q-5 -7 -12 -8
q-9 -2 -13 3q-5 3 -5 12v67q0 9 5 14q4 6 13 8zM1074 1393q-7 -2 -11 -6q-5 -7 -5 -12v-68q0 -5 5 -10q4 -4 11 -2q5 0 11 6q4 5 4 12v67q0 7 -4 11q-6 3 -11 2zM1074 1384q2 1 4 -1q3 -2 3 -4v-67q0 -3 -3 -6l-2 -2l-2 -1q-4 0 -5 2q-2 1 -2 4v67q0 4 2 6t5 2zM1164 1416v5
l-5 -1l-11 -2l-4 -1v-4v-90q0 -3 -2 -5q-3 -3 -5 -3q-3 0 -5 1q-2 2 -2 5v89v5l-4 -1l-11 -2l-5 -1v-4v-90q0 -10 8 -18q6 -6 19 -4q11 1 19 11q8 11 8 21v89zM1155 1325q0 -6 -5 -14q-6 -6 -13 -7q-8 -2 -13 3q-5 3 -5 12v85h2v-85q0 -7 5 -10q4 -5 11 -3q7 1 11 7
q5 5 5 12v85h2v-85zM1199 1315q-8 -2 -12 3q-5 5 -5 12v4h3v-3q0 -7 3 -11q3 -3 11 -3q4 1 10 8q2 6 2 10v17q0 4 -3 7q-2 2 -4 3q-2 2 -3 2q-12 6 -15 10q-4 4 -4 7v16q0 7 5 14t12 7q6 1 10 -2q4 -4 4 -13v-4h-2v4q0 5 -2 9q-5 5 -10 4q-7 -2 -11 -7q-3 -5 -3 -11v-17
q0 -5 4 -7t5 -3q4 -2 5 -3q8 -4 11 -7q3 -5 3 -9v-16q0 -10 -4 -15q-3 -5 -10 -6zM1216 1317q6 9 6 20v17q0 6 -5 13q-4 4 -14 10l-8 4q-1 0 -1 1l-1 1v16q0 2 2 6q2 2 4 2h1h1q1 -2 1 -6v-8v-5l5 1l11 2l4 1v4v9q0 10 -6 18q-7 5 -17 4q-12 -2 -18 -11q-7 -9 -7 -20v-17
q0 -6 6 -12q4 -5 16 -11q4 -2 5 -3t1 -3v-16q0 -5 -1 -6q0 -2 -2 -2q-3 0 -4 1q-2 2 -2 5v8v5l-4 -1l-11 -2l-4 -1v-4v-8q0 -13 7 -18q6 -7 18 -5q8 1 17 11z" />
    <glyph glyph-name="oslash" unicode="&#xf8;" horiz-adv-x="890" 
d="M450 1738q79 0 155 -33l35 130h137l-57 -210q1 0 2 -1q113 -113 113 -272v-967q0 -158 -113 -272q-113 -113 -272 -113q-81 0 -156 33l-35 -130h-136l56 209h-1v1q-113 113 -113 272v967q0 160 113 272q112 114 272 114zM548 983l-176 -659q2 -3 3.5 -5t4.5 -4
q30 -29 70 -29q38 0 69 29q29 29 29 70v598zM351 755l176 658q-2 3 -8 9q-29 29 -69 29q-41 0 -70 -29t-29 -70v-597z" />
    <glyph glyph-name="ugrave" unicode="&#xf9;" horiz-adv-x="910" 
d="M851 1675v-1290q0 -159 -113 -272t-272 -113q-161 0 -272 113q-113 113 -113 272v1290v63h62h162h62v-63v-1290q0 -41 29 -70q30 -29 70 -29t69 29t29 70v1290v63h63h161h63v-63zM301 2148l276 -253l-41 -73l-318 180z" />
    <glyph glyph-name="uacute" unicode="&#xfa;" horiz-adv-x="910" 
d="M851 1675v-1290q0 -159 -113 -272t-272 -113q-161 0 -272 113q-113 113 -113 272v1290v63h62h162h62v-63v-1290q0 -41 29 -70q30 -29 70 -29t69 29t29 70v1290v63h63h161h63v-63zM651 2148l82 -146l-318 -180l-40 73z" />
    <glyph glyph-name="ucircumflex" unicode="&#xfb;" horiz-adv-x="910" 
d="M851 1675v-1290q0 -159 -113 -272t-272 -113q-161 0 -272 113q-113 113 -113 272v1290v63h62h162h62v-63v-1290q0 -41 29 -70q30 -29 70 -29t69 29t29 70v1290v63h63h161h63v-63zM167 1912l240 236l54 52l5 5l5 -5l53 -52l241 -236l6 -6l-7 -4l-107 -77l-5 -3l-4 4
l-182 178l-183 -178l-4 -4l-5 3l-107 77l-7 4z" />
    <glyph glyph-name="udieresis" unicode="&#xfc;" horiz-adv-x="910" 
d="M851 1675v-1290q0 -159 -113 -272t-272 -113q-161 0 -272 113q-113 113 -113 272v1290v63h62h162h62v-63v-1290q0 -41 29 -70q30 -29 70 -29t69 29t29 70v1290v63h63h161h63v-63zM292 2018q98 0 98 -98t-98 -98t-98 98t98 98zM640 2018q98 0 98 -98t-98 -98t-98 98t98 98
z" />
    <glyph glyph-name="Aogonek" unicode="&#x104;" 
d="M604 543l-98 828l-97 -828h195zM646 269h-279q-2 -11 -22.5 -113t-30.5 -156h-294l299 1738h375l299 -1740h-15q-50 -6 -96.5 -17t-89.5 -26.5t-73 -37t-45.5 -46.5t-9.5 -57t37 -67q16 -18 57.5 -29.5t89 -14.5t93 -3.5t75.5 1.5l30 2l-61 -201q-264 -14 -398 54
t-154 229q-4 39 3.5 75.5t26 67.5t42.5 57.5t54.5 49.5t58.5 40t60 32q-5 24 -10.5 51t-11.5 60t-10 51z" />
    <glyph glyph-name="aogonek" unicode="&#x105;" 
d="M604 543l-98 828l-97 -828h195zM646 269h-279q-2 -11 -22.5 -113t-30.5 -156h-294l299 1738h375l299 -1740h-15q-50 -6 -96.5 -17t-89.5 -26.5t-73 -37t-45.5 -46.5t-9.5 -57t37 -67q16 -18 57.5 -29.5t89 -14.5t93 -3.5t75.5 1.5l30 2l-61 -201q-264 -14 -398 54
t-154 229q-4 39 3.5 75.5t26 67.5t42.5 57.5t54.5 49.5t58.5 40t60 32q-5 24 -10.5 51t-11.5 60t-10 51z" />
    <glyph glyph-name="Cacute" unicode="&#x106;" horiz-adv-x="880" 
d="M563 2188l82 -146l-318 -180l-40 73zM450 1738q158 0 272 -114q113 -112 113 -272v-40v-63h-63h-161h-63v63v40q0 41 -29 70q-28 29 -69 29t-70 -29t-29 -70v-967q0 -41 29 -70q30 -29 70 -29t69 29t29 70v40v63h63h161h63v-63v-40q0 -159 -113 -272t-272 -113
q-161 0 -272 113q-113 113 -113 272v967q0 160 113 272q112 114 272 114z" />
    <glyph glyph-name="cacute" unicode="&#x107;" horiz-adv-x="880" 
d="M563 2188l82 -146l-318 -180l-40 73zM450 1738q158 0 272 -114q113 -112 113 -272v-40v-63h-63h-161h-63v63v40q0 41 -29 70q-28 29 -69 29t-70 -29t-29 -70v-967q0 -41 29 -70q30 -29 70 -29t69 29t29 70v40v63h63h161h63v-63v-40q0 -159 -113 -272t-272 -113
q-161 0 -272 113q-113 113 -113 272v967q0 160 113 272q112 114 272 114z" />
    <glyph glyph-name="Eogonek" unicode="&#x118;" horiz-adv-x="825" 
d="M143 1738h560h63v-63v-161v-63h-63h-336v-439h175h62v-63v-161v-62h-62h-175v-440h336h63v-62v-161v-63q-71 -8 -127.5 -34.5t-86 -61.5t-29 -77.5t37.5 -79.5q17 -18 58.5 -29t89 -14t92.5 -3.5t75 0.5l30 2l-61 -201q-264 -14 -398 54t-154 229q-14 117 86 215h-236
h-62v63v1612v63h62z" />
    <glyph glyph-name="eogonek" unicode="&#x119;" horiz-adv-x="825" 
d="M143 1738h560h63v-63v-161v-63h-63h-336v-439h175h62v-63v-161v-62h-62h-175v-440h336h63v-62v-161v-63q-71 -8 -127.5 -34.5t-86 -61.5t-29 -77.5t37.5 -79.5q17 -18 58.5 -29t89 -14t92.5 -3.5t75 0.5l30 2l-61 -201q-264 -14 -398 54t-154 229q-14 117 86 215h-236
h-62v63v1612v63h62z" />
    <glyph glyph-name="Lslash" unicode="&#x141;" horiz-adv-x="883" 
d="M30 780l680 220v-216l-680 -220v216zM243 1738h162h62v-63v-1389h323h63v-62v-161v-63h-63h-547h-62v63v1612v63h62z" />
    <glyph glyph-name="lslash" unicode="&#x142;" horiz-adv-x="883" 
d="M30 780l680 220v-216l-680 -220v216zM243 1738h162h62v-63v-1389h323h63v-62v-161v-63h-63h-547h-62v63v1612v63h62z" />
    <glyph glyph-name="Nacute" unicode="&#x143;" horiz-adv-x="1101" 
d="M643 2188l82 -146l-318 -180l-40 73zM80 0v1738h384q86 -391 160.5 -689.5t119.5 -495.5q0 134 -5 592.5t-5 592.5h287v-1738h-394q-31 131 -79.5 332.5t-60.5 252.5t-37.5 163t-41.5 190t-42 207v-1145h-286z" />
    <glyph glyph-name="nacute" unicode="&#x144;" horiz-adv-x="1101" 
d="M643 2188l82 -146l-318 -180l-40 73zM80 0v1738h384q86 -391 160.5 -689.5t119.5 -495.5q0 134 -5 592.5t-5 592.5h287v-1738h-394q-31 131 -79.5 332.5t-60.5 252.5t-37.5 163t-41.5 190t-42 207v-1145h-286z" />
    <glyph glyph-name="OE" unicode="&#x152;" horiz-adv-x="1270" 
d="M450 1738q47 0 98 -13v13h63h560h62v-63v-161v-63h-62h-336v-99v-340h174h63v-63v-161v-62h-63h-174v-341v-99h336h62v-62v-161v-63h-62h-560h-63v13q-51 -13 -98 -13q-161 0 -272 113q-113 113 -113 272v967q0 160 113 272q112 114 272 114zM450 1451q-41 0 -70 -29
t-29 -70v-967q0 -41 29 -70q30 -29 70 -29q38 0 69 29q29 29 29 70v967q0 41 -29 70t-69 29z" />
    <glyph glyph-name="oe" unicode="&#x153;" horiz-adv-x="1270" 
d="M450 1738q47 0 98 -13v13h63h560h62v-63v-161v-63h-62h-336v-99v-340h174h63v-63v-161v-62h-63h-174v-341v-99h336h62v-62v-161v-63h-62h-560h-63v13q-51 -13 -98 -13q-161 0 -272 113q-113 113 -113 272v967q0 160 113 272q112 114 272 114zM450 1451q-41 0 -70 -29
t-29 -70v-967q0 -41 29 -70q30 -29 70 -29q38 0 69 29q29 29 29 70v967q0 41 -29 70t-69 29z" />
    <glyph glyph-name="Sacute" unicode="&#x15a;" horiz-adv-x="853" 
d="M563 2188l82 -146l-318 -180l-40 73zM803 385q0 -107 -48 -195t-132.5 -139t-187.5 -51t-188.5 51.5t-134 140t-48.5 193.5v184h276v-184q0 -41 28 -70t67 -29q35 0 58.5 28.5t23.5 70.5v91q0 33 -14.5 67t-29 53t-42 49.5t-33.5 38.5q-39 48 -134.5 144t-119.5 130
q-39 55 -63.5 132.5t-26.5 130.5l-4 131q0 105 51 194t139 140.5t191 51.5q102 0 185.5 -51.5t130 -140t46.5 -194.5v-183h-276v183q0 42 -23.5 70.5t-58.5 28.5q-40 0 -67.5 -29t-27.5 -70v-73q1 -25 15 -69.5t33 -71.5q20 -29 48.5 -58t58.5 -55t39 -36q25 -26 70.5 -72
t59 -60.5t33 -39.5t32.5 -48q33 -59 53 -128.5t20 -122.5z" />
    <glyph glyph-name="sacute" unicode="&#x15b;" horiz-adv-x="853" 
d="M563 2188l82 -146l-318 -180l-40 73zM803 385q0 -107 -48 -195t-132.5 -139t-187.5 -51t-188.5 51.5t-134 140t-48.5 193.5v184h276v-184q0 -41 28 -70t67 -29q35 0 58.5 28.5t23.5 70.5v91q0 33 -14.5 67t-29 53t-42 49.5t-33.5 38.5q-39 48 -134.5 144t-119.5 130
q-39 55 -63.5 132.5t-26.5 130.5l-4 131q0 105 51 194t139 140.5t191 51.5q102 0 185.5 -51.5t130 -140t46.5 -194.5v-183h-276v183q0 42 -23.5 70.5t-58.5 28.5q-40 0 -67.5 -29t-27.5 -70v-73q1 -25 15 -69.5t33 -71.5q20 -29 48.5 -58t58.5 -55t39 -36q25 -26 70.5 -72
t59 -60.5t33 -39.5t32.5 -48q33 -59 53 -128.5t20 -122.5z" />
    <glyph glyph-name="Zacute" unicode="&#x179;" horiz-adv-x="767" 
d="M503 2188l82 -146l-318 -180l-40 73zM108 1738h551h63v-63v-162l-3 -17l-356 -1210h296h63v-62v-161v-63h-63h-551h-63v63v161l3 18l356 1209h-296h-63v63v161v63h63z" />
    <glyph glyph-name="zacute" unicode="&#x17a;" horiz-adv-x="767" 
d="M503 2188l82 -146l-318 -180l-40 73zM108 1738h551h63v-63v-162l-3 -17l-356 -1210h296h63v-62v-161v-63h-63h-551h-63v63v161l3 18l356 1209h-296h-63v63v161v63h63z" />
    <glyph glyph-name="Zdotaccent" unicode="&#x17b;" horiz-adv-x="767" 
d="M376 2153q58 0 100 -41.5t42 -99.5q0 -59 -42 -100.5t-100 -41.5q-59 0 -100 41.5t-41 100.5q0 58 41 99.5t100 41.5zM108 1738h551h63v-63v-162l-3 -17l-356 -1210h296h63v-62v-161v-63h-63h-551h-63v63v161l3 18l356 1209h-296h-63v63v161v63h63z" />
    <glyph glyph-name="zdotaccent" unicode="&#x17c;" horiz-adv-x="767" 
d="M376 2153q58 0 100 -41.5t42 -99.5q0 -59 -42 -100.5t-100 -41.5q-59 0 -100 41.5t-41 100.5q0 58 41 99.5t100 41.5zM108 1738h551h63v-63v-162l-3 -17l-356 -1210h296h63v-62v-161v-63h-63h-551h-63v63v161l3 18l356 1209h-296h-63v63v161v63h63z" />
    <glyph glyph-name="uni2001" unicode="&#x2001;" horiz-adv-x="680" 
d="M410 1738h146h51v-63v-178l-2 -19l-44 -162l-11 -43h-37h-78h-56l6 69l7 93h-33v62v178v63h51zM115 1738h147h51v-63v-178l-3 -19l-44 -162l-11 -43h-37h-78h-56l6 69l7 93h-32v62v178v63h50z" />
    <glyph glyph-name="uni2002" unicode="&#x2002;" horiz-adv-x="680" 
d="M410 1738h146h51v-63v-178l-2 -19l-44 -162l-11 -43h-37h-78h-56l6 69l7 93h-33v62v178v63h51zM115 1738h147h51v-63v-178l-3 -19l-44 -162l-11 -43h-37h-78h-56l6 69l7 93h-32v62v178v63h50z" />
    <glyph glyph-name="quoteright" unicode="&#x2019;" horiz-adv-x="380" 
d="M65 1738h251v-164l-52 -301h-144l-55 301v164z" />
    <glyph glyph-name="quotedblleft" unicode="&#x201c;" horiz-adv-x="680" 
d="M262 1273h-147h-50v63v177l2 20l44 162l11 43h37h78h56l-6 -69l-7 -93h33v-63v-177v-63h-51zM556 1273h-146h-51v63v177l3 20l44 162l11 43h37h78h56l-6 -69l-7 -93h32v-63v-177v-63h-51z" />
    <glyph glyph-name="quotedblright" unicode="&#x201d;" horiz-adv-x="680" 
d="M410 1738h146h51v-63v-178l-2 -19l-44 -162l-11 -43h-37h-78h-56l6 69l7 93h-33v62v178v63h51zM115 1738h147h51v-63v-178l-3 -19l-44 -162l-11 -43h-37h-78h-56l6 69l7 93h-32v62v178v63h50z" />
    <glyph glyph-name="uni201F" unicode="&#x201f;" horiz-adv-x="680" 
d="M262 1273h-147h-50v63v177l2 20l44 162l11 43h37h78h56l-6 -69l-7 -93h33v-63v-177v-63h-51zM556 1273h-146h-51v63v177l3 20l44 162l11 43h37h78h56l-6 -69l-7 -93h32v-63v-177v-63h-51z" />
    <glyph glyph-name="ellipsis" unicode="&#x2026;" horiz-adv-x="1570" 
d="M266 403q83 0 142.5 -59t59.5 -142q0 -84 -59.5 -143t-142.5 -59q-84 0 -142.5 59t-58.5 143q0 83 58.5 142t142.5 59zM1314 403q83 0 142.5 -59t59.5 -142q0 -84 -59.5 -143t-142.5 -59q-84 0 -142.5 59t-58.5 143q0 83 58.5 142t142.5 59zM790 403q83 0 142.5 -59
t59.5 -142q0 -84 -59.5 -143t-142.5 -59q-84 0 -142.5 59t-58.5 143q0 83 58.5 142t142.5 59z" />
    <glyph glyph-name="second" unicode="&#x2033;" horiz-adv-x="680" 
d="M410 1738h146h51v-63v-178l-2 -19l-44 -162l-11 -43h-37h-78h-56l6 69l7 93h-33v62v178v63h51zM115 1738h147h51v-63v-178l-3 -19l-44 -162l-11 -43h-37h-78h-56l6 69l7 93h-32v62v178v63h50z" />
    <glyph glyph-name="uni2036" unicode="&#x2036;" horiz-adv-x="680" 
d="M262 1273h-147h-50v63v177l2 20l44 162l11 43h37h78h56l-6 -69l-7 -93h33v-63v-177v-63h-51zM556 1273h-146h-51v63v177l3 20l44 162l11 43h37h78h56l-6 -69l-7 -93h32v-63v-177v-63h-51z" />
    <glyph glyph-name="lira" unicode="&#x20a4;" horiz-adv-x="1030" 
d="M571 1738q159 0 272 -114q113 -112 113 -272l-286 -40v40q0 41 -29 70t-70 29q-40 0 -69 -29t-29 -70v-322h370v-120h-370v-90h370v-121h-370v-314q0 -41 29 -70q30 -29 69 -29t70 29q29 29 29 70v40l286 -40q0 -159 -113 -272q-112 -113 -272 -113q-159 0 -272 113
q-113 114 -113 272v314h-146v121h146v90h-146v120h146v322q0 159 113 272q114 114 272 114z" />
    <glyph glyph-name="Euro" unicode="&#x20ac;" horiz-adv-x="1030" 
d="M571 1738q159 0 272 -114q113 -112 113 -272l-286 -40v40q0 41 -29 70t-70 29q-40 0 -69 -29t-29 -70v-322h370v-120h-370v-90h370v-121h-370v-314q0 -41 29 -70q30 -29 69 -29t70 29q29 29 29 70v40l286 -40q0 -159 -113 -272q-112 -113 -272 -113q-159 0 -272 113
q-113 114 -113 272v314h-146v121h146v90h-146v120h146v322q0 159 113 272q114 114 272 114z" />
    <glyph glyph-name="glyph1" horiz-adv-x="0" 
 />
    <glyph glyph-name="glyph2" horiz-adv-x="2048" 
 />
    </font>
</defs>
</svg>
